<svg xmlns="http://www.w3.org/2000/svg" width="660" height="350"><path d="M162.542 485.848c-6.279.468-10.988 1.77-15.43 4.342-6.613 3.807-11.69 9.518-14.662 16.465-1.47 3.474-2.204 6.38-2.639 10.42-.2 1.904-.334 24.616-.334 57.88v54.775l-8.583.033c-9.586 0-14.595.534-22.477 2.438-31.663 7.548-57.113 31.195-67.132 62.322-1.336 4.108-2.84 10.588-3.574 15.197-.835 5.544-.868 21.275 0 26.685 1.804 11.323 4.71 20.34 9.686 30.093 2.237 4.375 6.513 10.954 9.619 14.829 1.169 1.436 2.338 2.905 2.605 3.273.434.601.133.968-4.175 5.31l-4.643 4.643-1.503-1.47c-.834-.801-1.837-1.636-2.237-1.837-.902-.467-2.772-.467-3.908-.033-.935.334-93.216 92.214-95.42 94.952-1.07 1.336-1.303 1.904-1.303 3.106 0 .835.2 1.904.468 2.405.6 1.069 14.094 14.529 15.13 15.063 1.068.534 3.506.434 4.441-.167 1.603-1.069 95.187-94.819 95.688-95.888 1.069-2.204.534-4.342-1.636-6.412-.668-.635-1.203-1.336-1.203-1.537 0-.167 2.004-2.37 4.476-4.81 4.174-4.174 4.542-4.441 5.143-4.007.367.267 1.837 1.436 3.273 2.605 10.888 8.784 24.815 15.297 38.876 18.202 7.048 1.436 12.09 1.904 20.54 1.837l7.682-.066.2 7.314c.335 11.222 1.47 15.397 6.013 22.544 1.703 2.672 6.312 7.381 9.05 9.251 2.572 1.77 7.549 3.975 11.122 4.977l3.34.935 266.857.001c217.861 0 267.258-.068 269.028-.435 10.654-2.138 19.271-8.517 24.482-18.102 1.502-2.772 3.106-7.882 3.406-10.855.134-1.269.267-72.943.267-159.312 0-121.671-.1-157.408-.4-158.978-3.006-14.795-14.395-25.616-29.224-27.72-2.906-.435-39.478-.468-266.39-.435-144.65.033-263.684.1-264.519.167zm532.712 20.841c3.974 1.87 6.546 4.943 7.882 9.285.401 1.302.468 25.015.468 157.708 0 149.96-.034 156.24-.601 158.01-1.67 5.077-4.943 8.216-10.054 9.752-1.67.501-24.08.535-266.556.535-242.409 0-264.886-.034-266.556-.535-4.041-1.202-7.148-3.707-8.951-7.247-1.47-2.873-1.737-5.31-1.636-14.228.1-6.245.166-7.515.6-7.749.268-.167 2.405-1.035 4.71-1.937 17.835-6.98 33.332-19.504 43.82-35.302 15.263-23.079 19.538-51.601 11.722-78.587-1.336-4.543-3.04-8.884-5.61-14.228-10.354-21.476-28.757-38.242-51.301-46.692l-3.841-1.436-.1-57.279c-.034-36.638.033-58.013.233-59.416.869-5.477 5.01-10.02 10.488-11.523 1.502-.4 39.21-.434 267.257-.4l265.521.067zM128.242 654.144l1.235.234v68.768c0 65.16-.033 68.768-.567 69.002-.334.134-4.209.234-8.617.234-6.28-.034-8.75-.167-11.356-.635-16.633-3.04-31.161-11.355-41.648-23.913-20.875-24.916-21.843-60.419-2.372-86.436 2.639-3.474 9.018-10.054 12.291-12.592 11.556-8.984 23.012-13.426 38.409-14.996 1.77-.167 11.022.067 12.625.334zm24.28 7.482c1.437.734 4.41 2.538 6.58 3.974 16.332 11.021 27.187 28.255 30.06 47.76.767 5.21.767 14.562 0 19.805-1.003 6.747-3.641 15.164-6.614 21.042-5.11 10.12-13.46 19.638-23.179 26.385-2.37 1.67-9.385 5.611-9.953 5.611-.133 0-.233-28.322-.233-62.957 0-42.65.1-62.956.334-62.956.2 0 1.536.6 3.006 1.336z" transform="matrix(.7966 0 0 .7966 54.905 -378.983)" style="fill:#000;fill-opacity:1;stroke-linejoin:miter"/><path d="M98.717 867.395c-.3.167-.334 1.103-.2 3.207 1.135 15.764 10.988 28.99 24.514 32.897l2.605.768 300.924.001h300.924l2.839-.97c5.31-1.803 8.95-3.974 12.725-7.614 4.81-4.642 8.35-11.055 10.187-18.47.868-3.506 1.469-9.819.935-9.886-1.17-.2-655.152-.133-655.453.067zm378.41 8.183c.868.701 1.035 1.102 1.035 2.304 0 1.236-.167 1.57-.969 2.138l-.969.701-49.93.001h-49.899l-.902-.869c-1.202-1.236-1.169-2.739.1-4.108l.97-1.035H476.09zM549.27 629.533q4.368 0 8.479.727 5.081.68 8.914 3.168 3.825 2.267 6.182 6.35 2.348 3.864 2.588 10.008.25 6.364-1.993 10.846-2.023 4.475-5.65 7.254-3.627 2.779-8.623 4.292-4.784 1.286-10.27 1.5l-28.525 1.115-1.724-44.104 28.525-1.115q1.056-.041 2.097-.041zm6.619 65.662q4.55 0 8.83.94 4.87.908 8.703 3.396 3.833 2.487 6.418 6.781 2.358 4.083 2.606 10.447.249 6.363-1.782 10.618-2.04 4.035-5.676 6.595-3.636 2.56-8.64 3.854-5.012 1.074-10.498 1.289l-32.914 1.286-1.715-43.885 32.914-1.286q.882-.035 1.754-.035zm-151.81-65.485q8.35 0 15.75 2.864 8.248 2.974 14.456 9.983 5.988 7.018 9.725 18.3 3.737 11.28 4.372 27.518.635 16.238-2.21 27.776-2.846 11.54-8.488 19.012-5.422 7.464-13.403 11.292-7.99 3.608-17.426 3.977-1.02.04-2.024.04-8.503 0-15.886-2.856-8.028-2.983-14.236-9.992-5.988-7.018-9.725-18.3-3.737-11.281-4.372-27.519-.635-16.237 2.21-27.776 2.846-11.538 8.488-19.01 5.422-7.465 13.403-11.293 7.77-3.6 17.426-3.977.976-.039 1.94-.039zm145.206-22.137q-1.477 0-2.97.059l-51.564 2.015 6.003 153.598 55.954-2.187q10.093-.395 19.206-3.388 9.122-2.774 15.937-8.315 6.597-5.532 10.457-13.594 3.64-8.054 3.212-19.025-.54-13.824-7.466-22.343-6.917-8.3-18.051-12.041 8.816-4.96 13.984-13.293 4.949-8.324 4.46-20.831-.42-10.752-4.906-18.708-4.259-7.745-11.486-12.737-7.008-5-16.327-7.273-7.94-1.937-16.443-1.937zm-144.694.387q-1.636 0-3.301.065-14.482.567-26.573 6.094-11.88 5.298-20.482 15.744-8.601 10.445-13.04 26.221-4.446 15.557-3.623 36.622.824 21.065 6.48 36.447 5.646 15.162 15.037 24.904 9.391 9.742 21.876 14.309 10.848 3.854 23.438 3.854 1.636 0 3.301-.065 14.482-.566 26.573-6.093 11.88-5.299 20.482-15.744 8.602-10.445 13.04-26.222 4.446-15.557 3.623-36.621-.824-21.065-6.48-36.447-5.646-15.162-15.037-24.904-9.391-9.742-21.876-14.309-10.848-3.855-23.438-3.855zm-95.035 8.925-23.04.9 4.031 103.13q.635 16.237-5.648 24.175-6.282 7.937-17.034 8.357-.828.032-1.734.032-4.143 0-9.938-.675-6.845-.83-12.628-2.583l-3.59 20.578q7.563 2.342 14.644 3.603 5.69 1.014 11.907 1.014 1.521 0 3.074-.06 9.874-.387 18.303-4.013 8.21-3.617 14.097-10.44 5.886-6.823 9.002-17.053 3.117-10.231 2.585-23.835z" transform="matrix(.7966 0 0 .7966 54.905 -378.983)" style="fill:#000;fill-opacity:1;stroke-linejoin:miter"/></svg>