<svg xmlns="http://www.w3.org/2000/svg" width="32" height="32" viewBox="123.445 0 596 595.281"><circle fill="#F63E28" cx="420.944" cy="296.781" r="294.5"/><path d="M435.603 325.237c-6.896-2.964-13.741-4.601-20.562-4.898-4.75-.149-12.786-.596-24.121-1.327-11.348-.744-20.265-1.19-26.788-1.327a591.362 591.362 0 0 1-17.672-.682c-5.705-.285-10.716-1.029-15.007-2.22-4.452-1.042-8.234-3.002-11.347-5.903-3.113-2.878-4.663-7.069-4.663-12.563 0-5.332 1.848-9.562 5.556-12.662s7.255-5.258 10.665-6.449h26.899c20.748 0 38.941-6.672 54.58-20.004 15.638-13.344 23.451-29.64 23.451-48.912 0-7.403-1.327-14.969-3.993-22.683-2.666-7.701-6.747-14.745-12.229-21.12v-1.326h51.579v-21.344H395.47c-6.82-2.071-13.53-3.782-20.128-5.109s-13.232-2.009-19.892-2.009c-24.159 0-43.989 6.672-59.467 20.016-15.489 13.345-23.24 30.385-23.24 51.133 0 13.79 3.919 25.906 11.781 36.349 7.851 10.455 18.888 19.012 33.125 25.685v3.336c-11.261 4.737-19.669 10.417-25.237 17.003-5.556 6.598-8.334 13.815-8.334 21.678 0 6.226 1.19 11.447 3.56 15.676 2.368 4.229 5.481 7.899 9.338 11.013 3.411 2.666 7.479 4.998 12.229 6.994 4.737 1.997 9.339 3.671 13.778 4.998v3.113c-18.379.756-33.497 5.481-45.353 14.225-11.856 8.743-17.784 20.674-17.784 35.804 0 18.677 8.234 32.852 24.679 42.574 16.445 9.724 41.273 14.572 74.473 14.572 20.301 0 37.354-1.935 51.144-5.791 13.791-3.857 25.635-9.265 35.568-16.234 9.339-6.82 16.296-14.857 20.909-24.121 4.589-9.264 6.896-19.148 6.896-29.677s-1.712-19.347-5.109-26.466c-3.41-7.105-8.086-13.48-14.014-19.123-5.631-5.175-11.894-9.255-18.789-12.219zm-51.578-78.812c-6.896 10.306-16.718 15.452-29.454 15.452-11.409 0-20.711-5.184-27.903-15.564-7.193-10.367-10.777-23.786-10.777-40.243 0-7.255.632-14.336 1.885-21.231s3.361-12.786 6.337-17.673c3.113-5.332 7.156-9.449 12.117-12.339 4.96-2.89 10.926-4.341 17.896-4.341 12.736 0 22.633 5.159 29.677 15.452 7.032 10.306 10.566 24.121 10.566 41.459-.002 15.712-3.449 28.722-10.344 39.028zm34.24 182.974c-12.525 8.383-29.689 12.562-51.467 12.562-12.6 0-23.265-1.228-32.021-3.658-8.743-2.443-15.713-5.594-20.896-9.463-5.482-3.993-9.339-8.371-11.559-13.121-2.22-4.737-3.336-9.698-3.336-14.895 0-11.558 3.373-20.995 10.119-28.337 6.734-7.342 18.119-12.576 34.13-15.688 17.04 0 32.021.372 44.906 1.116 12.897.756 21.417 1.414 25.572 1.996 7.85 1.923 13.704 5.557 17.573 10.901 3.856 5.345 5.779 12.142 5.779 20.45-.024 17.041-6.274 29.766-18.8 38.137zm103.542-222.177v43.468h16.966v-43.468h43.269v-16.68h-43.269v-43.567h-16.966v43.567h-43.27v16.68h43.27z" fill="#FFF"/></svg>