<svg version="1.0" xmlns="http://www.w3.org/2000/svg" width="1706.667" height="1706.667" viewBox="0 0 1280 1280"><circle cx="640" cy="640" r="610" stroke="#ff8e31" stroke-width="60" fill="none" /><path fill="#203549" d="M451.6 212.4c-4.7 1.8-9.4 6-11.2 10.3-1.8 4.1-2.1 85.4-.3 90 3.4 9 15.3 13.7 24.6 9.8 5-2.1 7.2-4.2 9.4-9 1.7-3.7 1.9-7.4 1.9-45.3 0-44.4-.1-45.5-5.3-51-4.7-5.1-12.7-7.1-19.1-4.8zM299.2 277.1c-8.5 4.3-12.4 14.7-8.7 23.7 1.9 4.4 54.5 57.8 61.4 62.3 10.7 6.9 24.6 1 28-11.9 2.4-9 2-9.6-30.7-42.6-19.4-19.5-31.1-30.5-33.7-31.7-5.3-2.5-11-2.4-16.3.2zM599 277c-4.7 2.5-70.6 68.8-71.9 72.3-2.9 7.6.1 16.6 7 21.7 5.1 3.7 9.9 4.6 15.2 3 3.5-1 9.6-6.6 38.5-35.3 18.9-18.8 34.9-35.3 35.7-36.7 3.6-6.9 2.6-14.6-2.8-20.7-5.6-6.4-14.6-8.2-21.7-4.3zM236.2 425.1c-12.1 6-12.5 25.9-.7 32.6l4 2.3h54.2c36 0 55.1-.4 57-1.1 9-3.4 13.7-15.3 9.8-24.6-2.1-5-4.2-7.2-9-9.4-3.7-1.7-7.7-1.9-57.5-1.9-52.5 0-53.6 0-57.8 2.1zM369.5 510.5c-.5.2-2.3.6-4 1-2.2.5-12.1 9.7-36.8 34.3-18.6 18.5-34.8 35.2-35.9 37-2.9 4.7-2.8 12.8.2 17.6 4.7 7.7 12.9 11.4 20.9 9.4 4.2-1 7.6-4.1 38.8-35.1 19.5-19.4 35-35.6 35.9-37.6 3.8-7.9.9-18.8-6.4-23.5-3.4-2.2-10.4-4-12.7-3.1z"/><path fill="#34495e" d="M419.7 384.4c-7 1.9-12.5 6.3-16.1 12.6-2.6 4.7-3.1 6.5-3.1 12.5 0 6.1 1.1 10.2 8.2 31.5 4.5 13.5 17.7 53.5 29.3 89 11.6 35.5 26 79.3 32 97.5 6 18.1 20.3 61.9 31.9 97.2 11.6 35.4 30.5 93 42 128 11.5 35.1 22.2 67.6 23.7 72.2 2.2 7 3.5 9.2 7.8 13.7 5.2 5.3 12 8.4 18.6 8.4 5.1 0 13.1-3.1 17-6.6 2.7-2.4 15.6-22.9 40.6-64.2 20.2-33.4 37.9-62.4 39.2-64.6l2.4-3.9 56.6 56.6c39.5 39.4 58 57.2 61.1 58.7 5.3 2.6 14.5 3.1 20.6 1.1 5.8-1.9 104.6-100.2 108.1-107.6 3.1-6.4 3.2-15.1.3-21.5-1.5-3.4-15.3-17.9-58.7-61.2-36-36-56.3-57.1-55.7-57.7.6-.5 29.4-18.1 64-39 66.2-40.1 69.8-42.6 72.3-50.8 3.6-11.9-.6-24.5-10.2-30.7-2.2-1.4-12.1-5.3-22-8.5-97.5-32-145.8-47.8-171.1-56.1-16.5-5.4-45.3-14.9-64-21-64.6-21.2-95-31.2-103.5-34-9.7-3.2-108.4-35.6-138.5-45.4-22.8-7.4-26.1-8.1-32.8-6.2z"/></svg>