<svg xmlns="http://www.w3.org/2000/svg" height="867.436" width="867.392"><g transform="translate(-79.302 -79.239)"><path fill="none" d="M-1-1h582v402H-1z"/></g><g transform="translate(-79.302 -79.239)"><path d="M485.5 80.1c-88.4 5.5-173.9 38.6-243 94-65.9 52.8-115.3 123.7-141.4 202.9-31.8 96.3-28.7 201 8.6 296 6.4 16.3 21.7 47.2 31 62.6 37.6 62.1 87.6 112.1 149.7 149.7 15.4 9.3 46.4 24.6 62.6 31 103.4 40.5 216.6 40.5 320 0 16.2-6.4 47.2-21.7 62.6-31 62.1-37.6 112.1-87.6 149.7-149.7 9.3-15.4 24.6-46.4 31-62.6 37.7-96.2 40.4-200.9 7.7-299-12-35.7-32.1-75.7-54.5-108.1-53.3-76.8-132-135.7-220.5-164.8-52.3-17.3-108.3-24.5-163.5-21zM713 329.5c13.9 2.8 29.9 10.8 40.3 20.1 12.6 11.3 21 27.8 23.8 46.5 1.8 12.6.7 38.6-2.5 55.1-12.3 64.1-39.7 124.3-82.1 180.3-30 39.7-90.6 104.8-125.9 135.4-16.3 14.1-39.3 31.4-46.8 35.2-26.4 13.3-48.3 11.5-71.5-6-16.8-12.7-31.1-30.8-39.3-49.8-5.8-13.6-19.8-56-44.5-135.8-23.3-75-39.5-125-43.4-134.2-1.9-4.2-3-5.4-6.2-6.7-11.7-4.7-28.7.5-49.6 15-4.2 2.9-7.8 5.3-7.8 5.1-.1-.1-5-6.9-10.9-15.1-10.6-14.7-10.7-14.9-8.8-17 1-1.1 6.7-7.7 12.7-14.6 21.2-24.5 36.4-38.8 66.5-62.9 56.4-45.2 94.4-57.4 119.8-38.6 13.5 9.8 25.1 32.5 32.2 62.6 1.1 4.8 5.4 28.6 9.5 53 9.4 55.5 10.6 61.5 16.1 82.4 15 56.3 23.7 81.6 30.8 89.3 2.7 3 6.9 5.2 9.8 5.2 9.9-.1 26-16.4 43.5-44 15.6-24.5 37.3-65.5 41.1-77.5 7.3-22.7 4.2-42.2-8.9-56-13.1-13.9-29.6-15-52.9-3.7-5.2 2.5-9.9 4.8-10.4 5-2.1 1 3.2-20 8.1-32.1 4.4-10.9 12.2-24.9 18.8-33.7 13.5-18.1 36.1-36.7 57.9-47.7 30.2-15.2 55.8-19.9 80.6-14.8z" fill="#4ebbff"/></g></svg>