<svg version="1.1" xmlns="http://www.w3.org/2000/svg" x="0" y="0" viewBox="0 0 351.7 351.7" xml:space="preserve"><path d="M58 0h235.7c31.9 0 58 26.1 58 58v235.7c0 31.9-26.1 58-58 58H58c-31.9 0-58-26.1-58-58V58C0 26.1 26.1 0 58 0z" fill="#ff5722" stroke="#ff5722" stroke-width=".216" stroke-miterlimit="10"/><path d="M136.2 67.3h47.6c17.6 2.1 43.1 17.1 52.6 37.2 2.6 5.6 4 6.5 6.1 23.1 1.2 8.6 1.7 14.9 5.5 18.4 5.4 4.9 25.4 1.6 29.4 4.7l3 2.4 1.8 3.7.6 3-.4 55c-.2 37.4-30.6 68-68 68h-78.2c-37.4 0-68-30.6-68-68v-79.4c0-37.4 30.6-68.1 68-68.1z" fill="#fff"/><path d="M137.1 123h37.7c7.2 0 13 5.8 13 13 0 7.1-5.8 13-13 13h-37.7c-7.2 0-13-5.9-13-13 0-7.2 5.8-13 13-13zM137.1 200.9h76.7c7.1 0 13 5.8 13 13 0 7.1-5.8 13-13 13h-76.7c-7.2 0-13-5.9-13-13 0-7.2 5.8-13 13-13z" fill="#ff5722"/></svg>