<svg xmlns="http://www.w3.org/2000/svg" width="60.178" height="91.677"><path d="M47.51 37.422c-.005-.847-.718-.276-2.228-.675-1.51-.389-6.11-1.738-13.168-.637-5.877.917-4.372 2.853-6.791 2.964l-.37.004c-2.423-.064-.952-2.03-6.848-2.84-7.074-.975-11.652.458-13.15.878-1.502.421-2.06-.013-2.05.828.01.844.393 1.286 1.099 1.627.656.315.729-.003 1.907 3.553 1.398 4.251 1.773 5.444 3.11 6.43 1.608 1.183 8.345 1.12 10.514-.212 2.709-1.66 2.295-7.806 5.575-7.939h.099c3.283.07 2.977 6.221 5.718 7.835 2.19 1.3 8.93 1.238 10.513.02 1.32-1.003 1.678-2.213 2.996-6.486 1.114-3.578 1.226-3.199 1.84-3.58.652-.414 1.238-.929 1.235-1.77zm-26.54 6.75c-.668 1.723-1.184 3.272-2.126 3.916-.993.675-2.464.828-4.658.815-1.834-.013-3.817.066-4.646-.717-.704-.659-1.404-2.713-2.01-4.568-.827-2.528-1.231-4.062-.397-4.833 1-.944 3.656-1.114 6.8-1.185 3.143-.07 7.289.821 7.852 2.047.424.933-.212 2.964-.815 4.525zm21.854-.876c-.58 1.87-1.232 3.936-1.923 4.604-.818.8-2.802.754-4.632.8-2.188.06-3.665-.074-4.677-.727-.952-.628-1.493-2.165-2.193-3.878-.634-1.544-1.302-3.569-.901-4.505.547-1.242 4.667-2.207 7.813-2.194 3.146.013 5.807.141 6.819 1.051.853.771.474 2.31-.306 4.85z" fill="#c33"/><path d="M46.075 72.845c1.649-2.468 2.257-4.533 1.707-7.972-1.436 4.377-4.165 6.52-7.004 8.59-2.002 1.461-1.448 3.578-1.031 5.488.917 4.21-.042 8.074-2.08 12.726-.617-4.87-2.537-8.348-4.603-11.802-2.868-4.789-2.556-7.769 1.073-12.137 2.314-2.789 4.804-5.44 7.1-8.249 4.66-5.693 5.658-12.14 3.75-19.15-.433-1.586-1.095-2.509-2.958-2.837-3.085-.545-6.06-1.7-9.122-2.41-8.714-2.013-14.002-7.488-16.428-15.938-5.874 4.116-9.934 6.914-14.543 18.252C.126 30.59-.84 24.011.958 17.348 2.578 11.33 6.51 7.482 12.62 5.966c1.356-.344 2.662-.713 3.83-1.605 6.345-4.826 13.356-5.698 20.478-2.36 7.909 3.711 12.643 10.362 13.028 19.006.284 6.247 1.723 11.38 5.53 16.435 4.018 5.333 5.132 11.945 4.546 18.686-.213 2.502-1.146 4.658-3.432 6.151 1.503-3.188.277-5.74-1.681-8.059-1.273-1.509-2.245-1.369-2.862.707-.793 2.671-.35 5.342-.277 8.017.119 4.17-.394 8.006-5.705 9.901z" clip-rule="evenodd" fill="#333" fill-rule="evenodd"/><path d="M30.809 58.362s-2.184 1.71-4.881 1.71c-2.7 0-4.884-1.71-4.884-1.71 0 .423 2.929-2.197 4.884-.856 1.586-1.035 4.88.856 4.88.856z" clip-rule="evenodd" fill="#c33" fill-rule="evenodd"/></svg>