<svg xmlns="http://www.w3.org/2000/svg" width="612" height="612.999" viewBox="0 88.5 612 612.999"><circle fill="#517FA4" cx="305.997" cy="395.024" r="306"/><g fill="#FFF"><path d="M340.315 402.634c0-17.987-14.634-32.624-32.628-32.624-17.986 0-32.617 14.637-32.617 32.624 0 17.987 14.633 32.624 32.617 32.624 17.996 0 32.628-14.637 32.628-32.624zm-32.627-78.589c16.941 0 32.638 5.402 45.482 14.553h118.356v-23.052c0-45.619-37.12-82.739-82.735-82.739H223.205c-45.619 0-82.739 37.12-82.739 82.739v23.052h121.75c12.846-9.151 28.534-14.553 45.472-14.553zm67.819-40.953c0-5.059 4.133-9.192 9.195-9.192h28.4c5.06 0 9.194 4.133 9.194 9.192V311.5c0 5.059-4.136 9.192-9.194 9.192h-28.4c-5.062 0-9.195-4.133-9.195-9.192v-28.408z"/><path d="M386.284 402.634c0 43.338-35.258 78.59-78.597 78.59-43.331 0-78.584-35.252-78.584-78.59a78.177 78.177 0 0 1 7.463-33.386h-96.1v113.248c0 45.619 37.12 82.738 82.739 82.738h165.59c45.615 0 82.735-37.119 82.735-82.738V369.248h-92.713a78.106 78.106 0 0 1 7.467 33.386z"/></g></svg>