<svg xmlns="http://www.w3.org/2000/svg" viewBox="0 0 203 103"><defs><clipPath id="solr-a"><path d="M0 36h49v66.7H0z"/></clipPath><clipPath id="solr-b"><path d="M53 53h47v49.7H53z"/></clipPath><clipPath id="solr-c"><path d="M106 35h17v67.7h-17z"/></clipPath><clipPath id="solr-d"><path d="M163 29h40v23h-40z"/></clipPath></defs><g clip-path="url(#solr-a)"><path d="M40.8 70.9c-2.35-1.25-5-2.12-7.88-2.61a51.62 51.62 0 0 0-8.55-.715c-2.33 0-4.68-.203-7-.598-2.25-.387-4.3-1.09-6.07-2.11-1.73-.984-3.16-2.36-4.25-4.09-1.08-1.71-1.62-3.97-1.62-6.7.05-2.41.609-4.47 1.66-6.13a12.61 12.61 0 0 1 4.15-4.07c1.73-1.04 3.72-1.8 5.92-2.27 3.75-.797 7.71-.945 11.7-.383 1.58.223 3.13.617 4.63 1.17 1.47.547 2.85 1.29 4.11 2.22 1.23.914 2.33 2.06 3.25 3.41l.512.754 3.79-1.59-.805-1.13a24.791 24.791 0 0 0-3.39-3.9 17.382 17.382 0 0 0-4.36-2.91c-1.62-.766-3.48-1.36-5.52-1.75-2.02-.391-4.38-.59-7-.59-2.52 0-5.12.289-7.73.859-2.65.578-5.11 1.54-7.3 2.85a16.622 16.622 0 0 0-5.5 5.31c-1.42 2.22-2.15 4.96-2.15 8.14 0 3.34.672 6.18 1.99 8.45 1.32 2.25 3.08 4.08 5.24 5.42 2.12 1.32 4.59 2.27 7.34 2.82 2.69.539 5.5.812 8.37.812 2.28 0 4.69.172 7.16.516 2.41.332 4.66 1 6.67 2 1.96.969 3.6 2.32 4.86 4 1.22 1.64 1.84 3.84 1.84 6.56 0 2.44-.598 4.52-1.77 6.2-1.21 1.72-2.79 3.14-4.68 4.23-1.93 1.11-4.12 1.92-6.51 2.42-2.43.508-4.82.766-7.13.766-3.87 0-7.7-.738-11.4-2.2-3.66-1.45-6.9-3.63-9.64-6.48l-.734-.766-3.02 2.62.848.848c2.7 2.7 6.06 5.06 9.98 7 3.96 1.97 8.66 2.96 13.9 2.96 2.52 0 5.19-.285 7.94-.855 2.79-.574 5.41-1.56 7.78-2.93 2.41-1.39 4.41-3.21 5.96-5.41 1.59-2.26 2.39-5.08 2.39-8.4 0-3.36-.754-6.21-2.25-8.46-1.47-2.22-3.43-4-5.84-5.28" fill="#231e28"/></g><g clip-path="url(#solr-b)"><path d="M76.4 98.7c-2.73 0-5.23-.562-7.43-1.68a19.135 19.135 0 0 1-5.84-4.55c-1.66-1.91-2.98-4.14-3.92-6.63-.945-2.5-1.48-5.13-1.59-7.75 0-2.43.453-4.91 1.34-7.38.887-2.46 2.18-4.7 3.84-6.67 1.65-1.96 3.66-3.57 5.98-4.82 2.28-1.22 4.84-1.84 7.62-1.84 2.61 0 5.08.578 7.34 1.72 2.29 1.16 4.3 2.71 5.98 4.61 1.68 1.91 3.03 4.14 4 6.63.969 2.49 1.46 5.1 1.46 7.75 0 2.43-.449 4.91-1.34 7.38a21.824 21.824 0 0 1-3.83 6.67 19.763 19.763 0 0 1-5.98 4.77c-2.28 1.2-4.84 1.8-7.63 1.8M93 61.31c-1.98-2.32-4.39-4.23-7.16-5.7-2.81-1.48-5.98-2.23-9.41-2.23-3.13 0-6.12.668-8.89 1.99a23.008 23.008 0 0 0-7.22 5.38c-2.04 2.25-3.67 4.9-4.86 7.88-1.19 2.98-1.79 6.15-1.79 9.44 0 3.1.555 6.14 1.65 9.03 1.09 2.88 2.65 5.5 4.62 7.78 1.98 2.29 4.4 4.16 7.17 5.57 2.8 1.41 5.93 2.16 9.29 2.22h.04c3.19-.059 6.2-.777 8.97-2.12 2.74-1.34 5.17-3.17 7.22-5.43 2.04-2.25 3.65-4.87 4.81-7.79 1.16-2.93 1.74-6.04 1.74-9.26 0-2.92-.54-5.89-1.6-8.84A25.547 25.547 0 0 0 93 61.3" fill="#231e28"/></g><g clip-path="url(#solr-c)"><path d="M120 97.6c-.668.168-1.26.293-1.75.375-.52.09-1.08.176-1.68.262a11.91 11.91 0 0 1-1.64.121c-1.34 0-2.32-.445-3.01-1.36-.762-1-1.13-2-1.13-3.05v-58.3h-3.98v58.3c0 2.19.691 4.12 2.05 5.75 1.41 1.69 3.43 2.55 5.98 2.55.801 0 1.6-.047 2.37-.137.742-.09 1.41-.18 2-.27.609-.09 1.32-.23 2.1-.41l1.35-.312-1.77-3.75z" fill="#231e28"/></g><path d="M137 57.4c-2.07 1.46-3.9 3.31-5.47 5.52v-8.84h-3.98v47.7h3.98v-29.7c.551-1.95 1.31-3.77 2.26-5.43.957-1.67 2.14-3.14 3.54-4.36 1.39-1.23 3.01-2.22 4.81-2.96 1.8-.738 3.83-1.17 6.03-1.28l1.06-.055v-3.93h-1.11c-4.25 0-7.99 1.11-11.1 3.31" fill="#231e28"/><path d="m194 10.6-33 35.7 41.5-19.1a33.29 33.29 0 0 0-8.47-16.5M169 0c-4.57 0-8.93.918-12.9 2.57l-4.43 37.3 22.1-39.5a33.5 33.5 0 0 0-4.8-.348" fill="#d93321"/><g clip-path="url(#solr-d)"><path d="m203 29.2-39.3 22 36.9-4.38c1.75-4.07 2.72-8.54 2.72-13.2 0-1.48-.105-2.94-.289-4.37" fill="#d93321"/></g><path d="M188 61.4c4.39-2.97 8.04-6.96 10.6-11.6L164 56.66zM176 .695l-19.2 41.7 35.7-33c-4.47-4.3-10.1-7.38-16.4-8.69M172 67c3.72-.309 7.26-1.21 10.5-2.64l-19.4-2.3zM139 19.8a33.379 33.379 0 0 0-2.83 10.8l5.21 9.32zM154 3.95a33.214 33.214 0 0 0-11.8 10.6l4.87 24.5z" fill="#d93321"/></svg>