<svg xmlns="http://www.w3.org/2000/svg" xmlns:xlink="http://www.w3.org/1999/xlink" width="1120" height="500"><defs><linearGradient id="f"><stop offset="0" stop-color="#fff"/><stop offset="1" stop-color="#fff" stop-opacity="0"/></linearGradient><linearGradient id="e"><stop offset="0" stop-color="#fff"/><stop offset=".5" stop-color="#fff" stop-opacity=".532"/><stop offset="1" stop-color="#fff" stop-opacity="0"/></linearGradient><linearGradient id="d"><stop offset="0" stop-color="#e5e5e5"/><stop offset="1" stop-color="#fff"/></linearGradient><linearGradient id="c"><stop offset="0" stop-color="#24303a"/><stop offset="1" stop-color="#394958"/></linearGradient><linearGradient id="b"><stop offset="0" stop-color="#25303b"/><stop offset="1" stop-color="#25303b" stop-opacity="0"/></linearGradient><linearGradient id="a"><stop offset="0" stop-color="#acacac"/><stop offset="1" stop-color="#e9e9e9"/></linearGradient><linearGradient xlink:href="#a" id="h" x1="386.671" y1="402.394" x2="70.076" y2="198.421" gradientUnits="userSpaceOnUse" gradientTransform="translate(-14.85 -10.607)"/><filter id="p" x="-.201" width="1.402" y="-.054" height="1.107" color-interpolation-filters="sRGB"><feGaussianBlur stdDeviation="1.11"/></filter><filter id="o" x="-.415" width="1.83" y="-.111" height="1.222" color-interpolation-filters="sRGB"><feGaussianBlur stdDeviation="2.293"/></filter><radialGradient xlink:href="#b" id="i" gradientUnits="userSpaceOnUse" gradientTransform="matrix(.92308 -11.5077 -5.89644 -.47304 -2165.7 4248.202)" cx="355.75" cy="-334.763" fx="355.75" fy="-334.763" r="16.25"/><linearGradient xlink:href="#c" id="j" x1="342.034" y1="321.846" x2="326.447" y2="136.707" gradientUnits="userSpaceOnUse" gradientTransform="translate(-14.85 -10.607)"/><linearGradient xlink:href="#c" id="k" gradientUnits="userSpaceOnUse" x1="342.034" y1="321.846" x2="326.447" y2="136.707" gradientTransform="matrix(-1 0 0 1 477.738 -10.607)"/><linearGradient xlink:href="#d" id="l" x1="367.775" y1="117.797" x2="107" y2="143.957" gradientUnits="userSpaceOnUse" gradientTransform="translate(-14.85 -10.607)"/><linearGradient xlink:href="#e" id="m" x1="182.228" y1="190.194" x2="182.228" y2="317.94" gradientUnits="userSpaceOnUse"/><linearGradient xlink:href="#f" id="n" x1="193.994" y1="190.194" x2="193.994" y2="126.35" gradientUnits="userSpaceOnUse"/><filter id="g" x="-.131" width="1.262" y="-.358" height="1.715" color-interpolation-filters="sRGB"><feGaussianBlur stdDeviation="19.201"/></filter></defs><path d="M407.211 433.212l-80.56-128.862h-191.5L54.985 433.194z" transform="matrix(.77652 0 0 .68796 51.645 127.075)" fill-opacity=".569" fill-rule="evenodd" filter="url(#g)"/><path d="M341.153 349.75l-23.106 48.268-15.91-60.104zm-212.746 0l15.73 48.268 15.91-60.104z" fill="#7f8082" fill-rule="evenodd"/><path d="M54.985 190.194l-.012.018 32.791 207.806h56.373l-4.605-48.267h28.923l3.684 48.267h118.09l3.683-48.267h28.74l-4.605 48.267h56.74l32.424-207.806-.011-.018H54.985z" fill="url(#h)" fill-rule="evenodd" stroke="#d6d6d6" stroke-linejoin="round"/><path d="M135.558 317.94l16.956-63.529-1.192-128.31-31.799 64.093z" fill="url(#i)" fill-rule="evenodd"/><path d="M257.328 113.532h70.27l-1.443 155.314H251.91zm-50.828.097l-68.445.042 1.622 154.621h69.684z" fill="#293441" fill-rule="evenodd"/><path d="M145.139 254.411l-9.58 63.53h191.625l-11.39-63.077z" fill="#2d3948" fill-rule="evenodd"/><path d="M327.184 317.94l-16.64-63.077.625-129.169 32.195 64.496z" fill="url(#j)" fill-rule="evenodd"/><path d="M135.705 317.94l16.81-63.529-1.193-128.31-31.797 64.09z" fill="url(#k)" fill-rule="evenodd"/><path d="M199.316 149.428l6.327 134.88h49.285l7.939-134.88z" fill="#2d3b48" fill-rule="evenodd"/><path d="M407.2 190.194L326.65 61.35h-191.5L54.986 190.194h64.54l31.626-63.844h52l-3.835 23.078h63.551l-3.359-23.777h51.796l32.06 64.543z" fill="url(#l)" fill-rule="evenodd" stroke="#d6d6d6" stroke-linejoin="round"/><path d="M259.508 125.651l52.235.043 31.62 64.5-16.179 127.746H205.643l62.822-127.746z" fill="#363f49" fill-rule="evenodd" opacity=".449"/><path d="M268.465 190.194L205.643 317.94h-70.085l-16.035-127.746z" opacity=".3" fill="url(#m)" fill-rule="evenodd"/><path d="M151.15 126.35h52l-3.834 23.078h63.551l5.598 40.766H119.523z" fill="url(#n)" fill-rule="evenodd" opacity=".2"/><g color="#000"><g transform="matrix(.89998 0 0 .97775 -16.344 563.117)"><ellipse transform="matrix(1.49929 0 0 1.30774 -75.689 99.471)" style="isolation:auto;mix-blend-mode:normal;solid-color:#000;solid-opacity:1;marker:none" cx="272.593" cy="-325.399" rx="6.63" ry="24.805" overflow="visible" opacity=".8" fill="#05f0ff" filter="url(#o)" enable-background="accumulate"/><ellipse style="isolation:auto;mix-blend-mode:normal;solid-color:#000;solid-opacity:1;marker:none" cx="289.158" cy="-326.054" rx="6.63" ry="24.805" transform="matrix(1.16533 0 0 1.15783 -3.956 51.93)" overflow="visible" opacity=".9" fill="#fff" stroke="#06effe" stroke-width=".918" stroke-linecap="round" filter="url(#p)" enable-background="accumulate"/><ellipse transform="matrix(1.16533 0 0 1.0707 -3.956 23.603)" ry="24.805" rx="6.63" cy="-326.054" cx="289.158" style="isolation:auto;mix-blend-mode:normal;solid-color:#000;solid-opacity:1;marker:none" overflow="visible" opacity=".9" fill="#feffff" stroke="#06effe" stroke-width=".954" stroke-linecap="round" filter="url(#p)" enable-background="accumulate"/></g><g transform="matrix(.89998 0 0 .97775 -117.537 567.593)"><ellipse ry="24.805" rx="6.63" cy="-325.399" cx="272.593" style="isolation:auto;mix-blend-mode:normal;solid-color:#000;solid-opacity:1;marker:none" transform="matrix(1.49929 0 0 1.30774 -75.689 99.471)" overflow="visible" opacity=".8" fill="#05f0ff" filter="url(#o)" enable-background="accumulate"/><ellipse transform="matrix(1.16533 0 0 1.15783 -3.956 51.93)" ry="24.805" rx="6.63" cy="-326.054" cx="289.158" style="isolation:auto;mix-blend-mode:normal;solid-color:#000;solid-opacity:1;marker:none" overflow="visible" opacity=".9" fill="#fff" stroke="#06effe" stroke-width=".918" stroke-linecap="round" filter="url(#p)" enable-background="accumulate"/><ellipse style="isolation:auto;mix-blend-mode:normal;solid-color:#000;solid-opacity:1;marker:none" cx="289.158" cy="-326.054" rx="6.63" ry="24.805" transform="matrix(1.16533 0 0 1.0707 -3.956 23.603)" overflow="visible" opacity=".9" fill="#feffff" stroke="#06effe" stroke-width=".954" stroke-linecap="round" filter="url(#p)" enable-background="accumulate"/></g></g><path d="M151.15 126.35h52l-3.834 23.078h63.551l-3.359-23.777 52.235.043 31.62 64.5-16.179 127.747-191.626-.001-16.035-127.746z" fill="none" stroke="#d6d6d6" stroke-linejoin="round"/><path d="M342.836 190.194H119.367" opacity=".343" fill="#fff" fill-rule="evenodd" stroke="#fff"/><g font-family="Helvetica Neue" letter-spacing="0" word-spacing="0" fill="#444"><g style="line-height:125%;-inkscape-font-specification:'Helvetica Neue Light'"><path d="M479.09 168.55l-10.513 27.399h4.95l2.57-7.253h10.937l2.57 7.253h5.143l-10.553-27.398h-5.103zm-1.688 16.5l4.145-11.78h.115l4.106 11.78h-8.366zm19.991-16.5v27.399h4.797v-10.514h7.29c1.92 0 3.493-.269 4.759-.806 1.19-.537 2.149-1.266 2.84-2.11a6.723 6.723 0 0 0 1.342-2.725 14.9 14.9 0 0 0 .384-2.763c0-.844-.153-1.765-.384-2.763-.23-.997-.69-1.918-1.343-2.763-.69-.844-1.611-1.534-2.84-2.11-1.227-.537-2.839-.844-4.757-.844h-12.088zm4.797 12.97v-9.055h7.099a9.27 9.27 0 0 1 1.803.192 4.52 4.52 0 0 1 1.497.729c.422.345.767.805 1.036 1.381.23.614.345 1.343.384 2.226 0 .882-.154 1.611-.46 2.187-.308.576-.692 1.036-1.152 1.381-.46.346-.998.576-1.535.73a6.33 6.33 0 0 1-1.65.23h-7.022zm25.316-12.97l-10.514 27.399h4.95l2.571-7.253h10.936l2.571 7.253h5.142L532.61 168.55h-5.104zm-1.688 16.5l4.144-11.78h.115l4.106 11.78h-8.365zm38.486-7.789h4.797a10.817 10.817 0 0 0-1.19-3.952 9.731 9.731 0 0 0-2.532-2.916c-1.036-.806-2.226-1.42-3.569-1.842a14.638 14.638 0 0 0-4.336-.653c-2.072 0-3.914.384-5.526 1.152-1.611.767-2.993 1.803-4.106 3.108-1.15 1.304-1.995 2.84-2.609 4.566-.614 1.765-.883 3.607-.883 5.526 0 1.995.27 3.837.883 5.564.614 1.765 1.458 3.261 2.61 4.566 1.112 1.305 2.494 2.34 4.105 3.108 1.612.768 3.454 1.113 5.526 1.113 1.65 0 3.185-.269 4.566-.806 1.382-.537 2.571-1.266 3.607-2.264a11.537 11.537 0 0 0 2.418-3.53c.614-1.343.959-2.84 1.074-4.49h-4.681a12.47 12.47 0 0 1-.653 2.802 7.663 7.663 0 0 1-1.381 2.302 6.94 6.94 0 0 1-2.11 1.535c-.845.384-1.766.537-2.84.537-1.458 0-2.725-.269-3.799-.883a6.87 6.87 0 0 1-2.57-2.34 9.976 9.976 0 0 1-1.497-3.377 15.688 15.688 0 0 1-.46-3.837c-.04-1.267.153-2.571.46-3.838.307-1.227.805-2.34 1.496-3.338.652-.998 1.497-1.765 2.571-2.379 1.074-.576 2.302-.844 3.799-.883.96 0 1.842.154 2.61.422a6.71 6.71 0 0 1 1.995 1.113 7.595 7.595 0 0 1 1.381 1.727c.345.69.614 1.42.844 2.187zm9.12-8.711v27.399h4.796v-12.356h12.471v12.356h4.797V168.55h-4.797v10.898h-12.47V168.55h-4.797zm27.845 0v27.399h19.992v-4.145h-15.195v-8.02h13.814v-3.913h-13.814v-7.176h14.926v-4.144H601.27z" style="-inkscape-font-specification:'Helvetica Neue Medium'" font-weight="500" font-size="38.373"/></g><g style="line-height:125%;-inkscape-font-specification:'Helvetica Neue Light'"><path d="M527.97 235.288a23.468 23.468 0 0 0-3.384-7.825c-1.58-2.358-3.384-4.288-5.64-5.896-2.255-1.5-4.624-2.68-7.33-3.537a27.118 27.118 0 0 0-8.347-1.287c-5.414 0-9.925.965-13.76 2.895-3.835 1.93-6.993 4.502-9.474 7.718a31.377 31.377 0 0 0-5.414 10.72 45.806 45.806 0 0 0-1.692 12.327c0 4.18.564 8.254 1.692 12.328a30.936 30.936 0 0 0 5.414 10.827c2.481 3.216 5.64 5.681 9.474 7.61 3.835 1.93 8.346 2.895 13.76 2.895 3.722 0 7.106-.643 10.15-1.93 2.933-1.179 5.527-3.001 7.783-5.252 2.143-2.144 3.835-4.717 5.301-7.718a38.23 38.23 0 0 0 2.594-9.648h7.67c-.564 4.717-1.692 9.004-3.497 12.756-1.804 3.86-4.173 7.075-6.992 9.648-2.933 2.68-6.316 4.717-10.151 6.11-3.835 1.501-8.12 2.144-12.858 2.144-6.316 0-11.955-1.072-16.692-3.216-4.738-2.144-8.685-5.145-11.843-8.79-3.158-3.645-5.527-7.825-7.106-12.65-1.579-4.716-2.368-9.754-2.368-15.114 0-5.252.79-10.29 2.368-15.115 1.58-4.716 3.948-9.004 7.106-12.649 3.045-3.645 7.105-6.646 11.843-8.79 4.737-2.144 10.376-3.216 16.692-3.323 3.835 0 7.557.536 11.166 1.608 3.61 1.072 6.993 2.68 9.925 4.824a31.024 31.024 0 0 1 7.444 7.718c2.03 3.109 3.271 6.646 3.835 10.612h-7.67zm23.812 15.115c0 4.18.564 8.254 1.691 12.328a30.937 30.937 0 0 0 5.414 10.827c2.482 3.216 5.64 5.681 9.474 7.61 3.835 1.93 8.347 2.895 13.76 2.895 5.301 0 9.813-.965 13.648-2.894 3.834-1.93 6.88-4.395 9.361-7.611a30.936 30.936 0 0 0 5.414-10.827c1.128-4.074 1.692-8.147 1.804-12.328 0-4.18-.676-8.254-1.804-12.328a31.377 31.377 0 0 0-5.414-10.72c-2.481-3.215-5.527-5.788-9.361-7.717-3.835-1.93-8.347-2.895-13.648-2.895-5.413 0-9.925.965-13.76 2.895-3.834 1.93-6.992 4.502-9.474 7.718a31.377 31.377 0 0 0-5.414 10.72 45.806 45.806 0 0 0-1.691 12.327zm-7.67 0c0-5.252.79-10.29 2.369-15.115 1.579-4.716 3.947-9.004 7.105-12.649 3.046-3.645 7.106-6.646 11.843-8.79 4.737-2.144 10.376-3.216 16.692-3.323 6.317 0 11.843 1.179 16.58 3.323 4.737 2.144 8.685 5.145 11.843 8.79 3.158 3.645 5.526 7.933 7.105 12.65 1.58 4.823 2.369 9.862 2.369 15.114 0 5.36-.79 10.398-2.369 15.115-1.579 4.824-3.947 9.004-7.105 12.65-3.158 3.644-7.106 6.645-11.843 8.79-4.737 2.143-10.263 3.215-16.58 3.215-6.316 0-11.955-1.072-16.692-3.216s-8.685-5.145-11.843-8.79c-3.158-3.645-5.526-7.825-7.105-12.65-1.58-4.716-2.369-9.754-2.369-15.114zm95.445-1.929h28.648a23.22 23.22 0 0 0 6.654-.965c2.03-.643 3.835-1.715 5.527-3.002 1.466-1.286 2.82-2.787 3.722-4.61.902-1.822 1.353-3.965 1.466-6.324 0-4.61-1.466-8.361-4.286-11.148-2.933-2.68-7.218-3.967-13.083-4.074h-28.648v30.123zm-7.67-36.34h36.882c3.27 0 6.428.429 9.36 1.179 2.933.858 5.527 2.037 7.783 3.645 2.256 1.608 3.948 3.644 5.301 6.217 1.354 2.573 2.03 5.467 2.03 8.897 0 4.932-1.353 9.112-3.947 12.65-2.707 3.644-6.542 5.896-11.73 6.86v.215c2.594.429 4.737 1.072 6.542 2.036 1.691.965 3.045 2.144 4.173 3.645 1.128 1.5 1.917 3.323 2.368 5.253.451 1.93.79 4.073 1.015 6.324 0 1.287.113 2.895.226 4.717 0 1.93.226 3.752.451 5.682.113 1.93.564 3.644 1.015 5.36.451 1.715 1.128 3 2.03 3.858h-8.459a6.971 6.971 0 0 1-1.128-2.572c-.225-1.072-.45-2.144-.564-3.216-.112-1.072-.225-2.251-.225-3.323-.113-1.072-.226-1.93-.226-2.787-.225-2.68-.45-5.36-.79-8.04-.338-2.68-1.014-5.038-2.142-7.182s-2.707-3.752-4.737-5.146c-2.03-1.179-4.85-1.822-8.46-1.715h-29.098v33.981h-7.67v-76.538zm75.338 0h27.859c12.181.321 21.43 3.645 27.633 9.862 6.203 6.217 9.361 15.758 9.361 28.407 0 12.757-3.158 22.297-9.361 28.515-6.203 6.217-15.452 9.54-27.633 9.754h-27.859v-76.538zm7.67 70.321h16.354c5.752 0 10.715-.536 14.888-1.715 4.173-1.18 7.67-3.109 10.377-5.682 2.594-2.572 4.624-5.895 5.977-9.969 1.24-4.073 1.805-8.897 1.918-14.686 0-5.681-.677-10.612-1.918-14.686-1.353-4.073-3.27-7.396-5.977-9.97-2.707-2.572-6.204-4.394-10.377-5.573-4.173-1.18-9.136-1.823-14.888-1.823h-16.354v64.104zm73.035-32.052c0 4.18.564 8.254 1.692 12.328a30.937 30.937 0 0 0 5.414 10.827c2.481 3.216 5.64 5.681 9.474 7.61 3.835 1.93 8.346 2.895 13.76 2.895 5.3 0 9.812-.965 13.647-2.894 3.835-1.93 6.88-4.395 9.361-7.611a30.936 30.936 0 0 0 5.414-10.827c1.128-4.074 1.692-8.147 1.805-12.328 0-4.18-.677-8.254-1.805-12.328a31.377 31.377 0 0 0-5.414-10.72c-2.48-3.215-5.526-5.788-9.36-7.717-3.836-1.93-8.347-2.895-13.648-2.895-5.414 0-9.925.965-13.76 2.895-3.835 1.93-6.993 4.502-9.474 7.718a31.377 31.377 0 0 0-5.414 10.72 45.806 45.806 0 0 0-1.692 12.327zm-7.67 0c0-5.252.79-10.29 2.37-15.115 1.578-4.716 3.947-9.004 7.105-12.649 3.045-3.645 7.105-6.646 11.842-8.79 4.737-2.144 10.377-3.216 16.693-3.323 6.316 0 11.843 1.179 16.58 3.323 4.737 2.144 8.684 5.145 11.842 8.79 3.158 3.645 5.527 7.933 7.106 12.65 1.579 4.823 2.368 9.862 2.368 15.114 0 5.36-.79 10.398-2.368 15.115-1.58 4.824-3.948 9.004-7.106 12.65-3.158 3.644-7.105 6.645-11.842 8.79-4.737 2.143-10.264 3.215-16.58 3.215-6.316 0-11.956-1.072-16.693-3.216-4.737-2.144-8.684-5.145-11.842-8.79-3.158-3.645-5.527-7.825-7.106-12.65-1.579-4.716-2.368-9.754-2.368-15.114zm78.978-38.269h8.12l26.167 68.499h.226l25.941-68.5h8.12l-29.888 76.54h-8.91l-29.776-76.54zm80.988 46.523h31.694l-15.565-39.234-16.129 39.234zm12.182-46.523h8.571l31.58 76.538h-8.233l-9.812-23.797h-36.656l-9.7 23.797h-8.12l32.37-76.538z" style="-inkscape-font-specification:'Helvetica Neue Light'" font-weight="300" font-size="109.957"/></g><g style="line-height:125%;-inkscape-font-specification:'Helvetica Neue Light'"><path d="M984.126 210.366v2.722h5.696v15.274h3.15v-15.274h5.721v-2.722h-14.567zm16.628 0v17.996h3v-13.888h.05l4.99 13.888h2.595l4.99-13.888h.05v13.888h3v-17.996h-4.385l-4.84 14.09h-.05l-4.965-14.09h-4.436z" style="-inkscape-font-specification:'Helvetica Neue Medium'" font-weight="500" font-size="25.204"/></g></g></svg>