<svg xmlns="http://www.w3.org/2000/svg" preserveAspectRatio="xMidYMid" viewBox="-26 0 308 308"><path fill="#5E1F18" d="m166.01 127.465 59.202-6.314 30.676 6.369.111.068-56.558 3.374-33.484-3.442.053-.055Z"/><path fill="#8C3123" d="m165.958 127.521 59.204-4.625.407-.593.002-73.044-.407-.835-59.206 15.397v63.7"/><path fill="#E05243" d="m256 127.59-30.838-4.694.002-74.472 30.835 15.428.001 63.738"/><path fill="#F2B0A9" d="m165.958 180.115.865.606 58.349 3.959 29.772-3.959 1.055-.579-56.557-3.475-33.484 3.448"/><path fill="#8C3123" d="m165.958 180.115 59.214 4.405.183.246-.045 73.942-.146.386-59.206-15.275v-63.704"/><path fill="#E05243" d="m255.999 180.142-30.827 4.378-.008 74.574 30.835-15.309v-63.643"/><path fill="#5E1F18" d="m89.119 127.408-58.53-5.014L.195 127.44l-.193.151 56.557 3.374 32.874-3.376-.314-.18Z"/><path fill="#8C3123" d="m.002 127.59 30.557-4.474.899-.637v-73.2l-.899-.855L.002 63.855v63.735"/><path fill="#E05243" d="m89.433 127.588-58.874-4.472V48.424l58.877 15.397-.003 63.767"/><path fill="#F2B0A9" d="m89.433 180.142-1.351.985-57.523 4.313-29.583-4.313-.976-.985 56.559-3.475 32.874 3.475"/><path fill="#8C3123" d="m0 180.142 30.558 4.34.777.952.083 72.333-.859 1.327L.002 243.785 0 180.142"/><path fill="#E05243" d="m89.433 180.142-58.875 4.34.001 74.612 58.874-15.275v-63.677"/><path fill="#F2B0A9" d="m189.104 189.66-61.103-6.026-61.712 6.027.87.735 60.541 9.617 60.533-9.617.871-.736"/><path fill="#8C3123" d="m66.289 189.661 61.411 8.998.623.833.079 106.959-.702 1.186-61.411-30.706v-87.27"/><path fill="#E05243" d="m189.104 189.66-61.404 8.999v108.978l61.405-30.706-.001-87.271"/><path fill="#5E1F18" d="m128.001 123.933-61.712-5.958.159-.091 61.249-9.502 61.222 9.524.186.069-61.104 5.958Z"/><path fill="#8C3123" d="m66.289 117.975 61.411-8.949.294-.268L127.858.165 127.7 0 66.289 30.709v87.266"/><path fill="#E05243" d="m189.105 117.975-61.405-8.949V0l61.405 30.709v87.266"/></svg>