<svg xmlns="http://www.w3.org/2000/svg" xmlns:xlink="http://www.w3.org/1999/xlink" width="353.238" height="393.959" viewBox="0 0 93.461 104.235"><defs><linearGradient xlink:href="#a" id="h" x1="386.671" y1="402.394" x2="70.076" y2="198.421" gradientUnits="userSpaceOnUse" gradientTransform="translate(-14.85 -10.607)"/><linearGradient id="a"><stop offset="0" stop-color="#acacac"/><stop offset="1" stop-color="#e9e9e9"/></linearGradient><radialGradient xlink:href="#b" id="i" gradientUnits="userSpaceOnUse" gradientTransform="matrix(.92308 -11.5077 -5.89644 -.47304 -2165.7 4248.202)" cx="355.75" cy="-334.763" fx="355.75" fy="-334.763" r="16.25"/><linearGradient id="b"><stop offset="0" stop-color="#25303b"/><stop offset="1" stop-color="#25303b" stop-opacity="0"/></linearGradient><linearGradient xlink:href="#c" id="j" x1="342.034" y1="321.846" x2="326.447" y2="136.707" gradientUnits="userSpaceOnUse" gradientTransform="translate(-14.85 -10.607)"/><linearGradient id="c"><stop offset="0" stop-color="#24303a"/><stop offset="1" stop-color="#394958"/></linearGradient><linearGradient xlink:href="#c" id="k" gradientUnits="userSpaceOnUse" x1="342.034" y1="321.846" x2="326.447" y2="136.707" gradientTransform="matrix(-1 0 0 1 477.738 -10.607)"/><linearGradient xlink:href="#d" id="l" x1="367.775" y1="117.797" x2="107" y2="143.957" gradientUnits="userSpaceOnUse" gradientTransform="translate(-14.85 -10.607)"/><linearGradient id="d"><stop offset="0" stop-color="#e5e5e5"/><stop offset="1" stop-color="#fff"/></linearGradient><linearGradient xlink:href="#e" id="m" x1="182.228" y1="190.194" x2="182.228" y2="317.94" gradientUnits="userSpaceOnUse"/><linearGradient id="e"><stop offset="0" stop-color="#fff"/><stop offset=".5" stop-color="#fff" stop-opacity=".532"/><stop offset="1" stop-color="#fff" stop-opacity="0"/></linearGradient><linearGradient xlink:href="#f" id="n" x1="193.994" y1="190.194" x2="193.994" y2="126.35" gradientUnits="userSpaceOnUse"/><linearGradient id="f"><stop offset="0" stop-color="#fff"/><stop offset="1" stop-color="#fff" stop-opacity="0"/></linearGradient><filter id="o" x="-.415" width="1.83" y="-.111" height="1.222" color-interpolation-filters="sRGB"><feGaussianBlur stdDeviation="2.293"/></filter><filter id="p" x="-.201" width="1.402" y="-.054" height="1.107" color-interpolation-filters="sRGB"><feGaussianBlur stdDeviation="1.11"/></filter><filter id="g" x="-.131" width="1.262" y="-.358" height="1.715" color-interpolation-filters="sRGB"><feGaussianBlur stdDeviation="19.201"/></filter></defs><path d="M407.211 433.212l-80.56-128.862h-191.5L54.985 433.194z" transform="matrix(.20546 0 0 .18202 -1.277 16.993)" fill-opacity=".569" fill-rule="evenodd" filter="url(#g)"/><path d="M75.85 76.438L69.738 89.21l-4.21-15.903zm-56.288 0l4.162 12.771 4.21-15.903z" fill="#7f8082" fill-rule="evenodd"/><path d="M54.985 190.194l-.012.018 32.791 207.806h56.373l-4.605-48.267h28.923l3.684 48.267h118.09l3.683-48.267h28.74l-4.605 48.267h56.74l32.424-207.806-.011-.018H54.985z" fill="url(#h)" fill-rule="evenodd" stroke="#d6d6d6" stroke-linejoin="round" transform="translate(-14.413 -16.1) scale(.26458)"/><path d="M135.558 317.94l16.956-63.529-1.192-128.31-31.799 64.093z" fill="url(#i)" fill-rule="evenodd" transform="translate(-14.413 -16.1) scale(.26458)"/><path d="M53.672 13.939h18.592l-.381 41.093H52.238zm-13.448.025l-18.11.011.43 40.91H40.98z" fill="#293441" fill-rule="evenodd"/><path d="M23.989 51.213l-2.535 16.809h50.7l-3.013-16.69z" fill="#2d3948" fill-rule="evenodd"/><path d="M327.184 317.94l-16.64-63.077.625-129.169 32.195 64.496z" fill="url(#j)" fill-rule="evenodd" transform="translate(-14.413 -16.1) scale(.26458)"/><path d="M135.705 317.94l16.81-63.529-1.193-128.31-31.797 64.09z" fill="url(#k)" fill-rule="evenodd" transform="translate(-14.413 -16.1) scale(.26458)"/><path d="M38.323 23.436l1.674 35.687h13.04l2.1-35.687z" fill="#2d3b48" fill-rule="evenodd"/><path d="M407.2 190.194L326.65 61.35h-191.5L54.986 190.194h64.54l31.626-63.844h52l-3.835 23.078h63.551l-3.359-23.777h51.796l32.06 64.543z" fill="url(#l)" fill-rule="evenodd" stroke="#d6d6d6" stroke-linejoin="round" transform="translate(-14.413 -16.1) scale(.26458)"/><path d="M54.249 17.145l13.82.012 8.367 17.065-4.281 33.8H39.997l16.622-33.8z" opacity=".449" fill="#363f49" fill-rule="evenodd"/><path d="M268.465 190.194L205.643 317.94h-70.085l-16.035-127.746z" opacity=".3" fill="url(#m)" fill-rule="evenodd" transform="translate(-14.413 -16.1) scale(.26458)"/><path d="M151.15 126.35h52l-3.834 23.078h63.551l5.598 40.766H119.523z" opacity=".2" fill="url(#n)" fill-rule="evenodd" transform="translate(-14.413 -16.1) scale(.26458)"/><g color="#000"><g transform="matrix(.23812 0 0 .2587 -18.737 132.891)"><ellipse transform="matrix(1.49929 0 0 1.30774 -75.689 99.471)" style="isolation:auto;mix-blend-mode:normal;solid-color:#000;solid-opacity:1;marker:none" cx="272.593" cy="-325.399" rx="6.63" ry="24.805" overflow="visible" opacity=".8" fill="#05f0ff" filter="url(#o)" enable-background="accumulate"/><ellipse style="isolation:auto;mix-blend-mode:normal;solid-color:#000;solid-opacity:1;marker:none" cx="289.158" cy="-326.054" rx="6.63" ry="24.805" transform="matrix(1.16533 0 0 1.15783 -3.956 51.93)" overflow="visible" opacity=".9" fill="#fff" stroke="#06effe" stroke-width=".918" stroke-linecap="round" filter="url(#p)" enable-background="accumulate"/><ellipse transform="matrix(1.16533 0 0 1.0707 -3.956 23.603)" ry="24.805" rx="6.63" cy="-326.054" cx="289.158" style="isolation:auto;mix-blend-mode:normal;solid-color:#000;solid-opacity:1;marker:none" overflow="visible" opacity=".9" fill="#feffff" stroke="#06effe" stroke-width=".954" stroke-linecap="round" filter="url(#p)" enable-background="accumulate"/></g><g transform="matrix(.23812 0 0 .2587 -45.511 134.076)"><ellipse ry="24.805" rx="6.63" cy="-325.399" cx="272.593" style="isolation:auto;mix-blend-mode:normal;solid-color:#000;solid-opacity:1;marker:none" transform="matrix(1.49929 0 0 1.30774 -75.689 99.471)" overflow="visible" opacity=".8" fill="#05f0ff" filter="url(#o)" enable-background="accumulate"/><ellipse transform="matrix(1.16533 0 0 1.15783 -3.956 51.93)" ry="24.805" rx="6.63" cy="-326.054" cx="289.158" style="isolation:auto;mix-blend-mode:normal;solid-color:#000;solid-opacity:1;marker:none" overflow="visible" opacity=".9" fill="#fff" stroke="#06effe" stroke-width=".918" stroke-linecap="round" filter="url(#p)" enable-background="accumulate"/><ellipse style="isolation:auto;mix-blend-mode:normal;solid-color:#000;solid-opacity:1;marker:none" cx="289.158" cy="-326.054" rx="6.63" ry="24.805" transform="matrix(1.16533 0 0 1.0707 -3.956 23.603)" overflow="visible" opacity=".9" fill="#feffff" stroke="#06effe" stroke-width=".954" stroke-linecap="round" filter="url(#p)" enable-background="accumulate"/></g></g><path d="M25.58 17.33h13.758l-1.015 6.106h16.815l-.89-6.29 13.821.01 8.367 17.066-4.281 33.8H21.454l-4.243-33.8z" fill="none" stroke="#d6d6d6" stroke-linejoin="round" stroke-width=".265"/><path d="M76.296 34.222H17.17" opacity=".343" fill="#fff" fill-rule="evenodd" stroke="#fff" stroke-width=".265"/></svg>