<svg version="1.1" id="Layer_1" xmlns="http://www.w3.org/2000/svg" x="0" y="0" viewBox="0 0 72 72" xml:space="preserve"><style>.st1{fill-rule:evenodd;clip-rule:evenodd;fill:#fff}</style><path d="M35.5 9C50.7 9 63 21.3 63 36.5S50.7 64 35.5 64 8 51.7 8 36.5 20.3 9 35.5 9h0z" fill-rule="evenodd" clip-rule="evenodd" fill="#4a4a4d" stroke="#fff" stroke-miterlimit="10"/><path class="st1" d="M50.1 48.6c-1 3.1-2.5 5.4-4.6 7.1-2.1 1.7-4.9 2.6-8.4 2.9l-.7-4.6c2.3-.3 4-.8 5.1-1.6.4-.3 1.2-1.2 1.2-1.2l-8.3-26.6h6.9l4.8 19.9 5.1-19.9h6.7l-7.8 24zM26 23.7c1.6 0 3.1.2 4.3.7 1.3.5 2.5 1.2 3.7 2.2l-2.8 3.8c-.8-.6-1.6-1-2.3-1.3-.7-.3-1.6-.4-2.4-.4-3.4 0-5.1 2.6-5.1 7.9 0 2.7.4 4.6 1.3 5.7.9 1.2 2.1 1.7 3.8 1.7.8 0 1.6-.1 2.3-.4.7-.3 1.5-.7 2.5-1.3l2.8 4c-2.3 1.9-4.9 2.8-7.9 2.8-2.4 0-4.4-.5-6.2-1.5-1.7-1-3.1-2.5-4-4.4-.9-1.9-1.4-4.1-1.4-6.7 0-2.5.5-4.8 1.4-6.7.9-2 2.3-3.5 4-4.6 1.7-.9 3.7-1.5 6-1.5z"/></svg>