<svg xmlns="http://www.w3.org/2000/svg" xmlns:xlink="http://www.w3.org/1999/xlink" viewBox="0 0 32 32"><defs><path id="elasticsearch-a" d="M.644 0h26.835v9H.644z"/><path id="elasticsearch-c" d="M.644 0h26.835v9H.644z"/></defs><g fill="none" fill-rule="evenodd"><path fill="#343741" d="M1 16c0 1.384.194 2.72.524 4H21a4 4 0 0 0 0-8H1.524A15.984 15.984 0 0 0 1 16"/><g transform="translate(2)"><mask id="elasticsearch-b" fill="#fff"><use xlink:href="#elasticsearch-a"/></mask><path fill="#FEC514" d="M25.924 7.662A15.279 15.279 0 0 0 27.48 6C24.547 2.345 20.05 0 15 0 8.679 0 3.239 3.678.644 9H22.51a5.035 5.035 0 0 0 3.413-1.338" mask="url(#elasticsearch-b)"/></g><g transform="translate(2 23)"><mask id="elasticsearch-d" fill="#fff"><use xlink:href="#elasticsearch-c"/></mask><path fill="#00BFB3" d="M22.51 0H.645C3.24 5.322 8.679 9 15 9c5.05 0 9.547-2.346 12.48-6a15.197 15.197 0 0 0-1.556-1.662A5.03 5.03 0 0 0 22.51 0" mask="url(#elasticsearch-d)"/></g></g></svg>