<svg xmlns="http://www.w3.org/2000/svg" fill="none" viewBox="0 -40 320 320"><path fill="#000" d="M243.983 44.855c2.442 3.93 3.313 7.383 3.313 11.901h-6.018c0-3.592-.553-5.756-2.413-8.748l5.118-3.153ZM212.101 51.42l3.973-4.502c4.676 4.092 5.927 8.553 5.927 14.465h-6.018c0-4.63-.451-6.962-3.882-9.964Z"/><path fill="#000" fill-rule="evenodd" d="M169.985 64.118c-.394-1.366-.607-3.272.408-5.012 2.2-3.775 5.502-5.654 9.333-6.588 2.495-.608 4.677.172 6.255 1.646 1.451 1.356 2.328 3.215 2.831 4.943.515 1.768.723 3.685.624 5.433-.093 1.65-.485 3.594-1.589 5.06-2.434 3.234-5.95 3.901-9.109 3.568-1.565-.165-2.948-1.12-3.864-1.887-1.038-.869-2.048-1.985-2.887-3.174-.83-1.176-1.59-2.56-2.002-3.99Zm9.519 3.105c1.791.164 2.81-.263 3.528-1.216.002-.003.026-.038.062-.117a2.6 2.6 0 0 0 .134-.375c.095-.336.169-.779.2-1.312a10.55 10.55 0 0 0-.396-3.428c-.335-1.15-.792-1.889-1.169-2.242-.251-.234-.39-.272-.707-.194-2.626.64-4.309 1.711-5.48 3.643.003.077.02.23.093.48.172.597.561 1.377 1.142 2.2.573.812 1.237 1.532 1.835 2.032.402.337.646.468.73.513a.426.426 0 0 1 .028.016ZM139.666 63.787l19.718 15.433 1.564 11.345 1.463 22.072-17.466 17.65-40.641-27.524 35.362-38.976Zm-13.593 23.921 10.429-11.494a342.36 342.36 0 0 0-.35 7.846l-10.079 3.648Zm-10.928 12.044 2.315-2.55 18.686-6.764c.188 4.133.815 8.243 1.227 12.359l-22.228-3.045Zm25.596 20.442-20.15-13.647 17.526 2.4c.757 3.775 1.987 7.447 2.624 11.247Zm15.487-9.847-9.445 9.545c-.457-3.159-1.352-6.231-2.124-9.328l11.175-6.158.394 5.941Zm-1.116-16.831.284 4.283-11.834 6.521c-.161-1.816-.39-3.625-.593-5.437-.399-3.353-.8-6.71-.852-10.075l12.995 4.708Zm-1.359-11.082.611 4.434-12.135-4.395c.09-2.326.177-4.658.338-6.98l.092-1.742 11.094 8.683Z" clip-rule="evenodd"/><path fill="#000" d="M87.403 89.847c.19-2.31-.225-5.071-1.276-7.152-5.624 6.563-5.062 17.018-5.303 25.207a175.623 175.623 0 0 1-.832 12.893l-5.986-.614.308-2.98c.348-3.365.44-6.747.534-10.129.073-2.641.145-5.282.34-7.916.466-6.33 1.567-12.984 4.96-18.414 1.324-2.119 3.244-4.384 5.947-4.516 2.896-.141 4.547 2.158 5.288 3.546 1.65 3.087 2.303 7.095 2.017 10.565-.35 4.261-1.063 8.476-1.775 12.691-.713 4.221-1.426 8.442-1.777 12.711-.683 8.321.317 14.547 4.581 18.174l2.288 1.946-3.91 4.556-2.287-1.946c-6.689-5.69-7.367-14.717-6.67-23.218.35-4.27 1.064-8.492 1.778-12.714.712-4.215 1.424-8.429 1.775-12.69ZM224.12 87.763l-5.336 2.771c2.2 4.2 1.813 6.67-.43 10.537l5.212 2.996c3.237-5.582 3.682-10.333.554-16.304ZM249.159 91.517l-6 .458c.262 3.412.193 6.146-.674 9.432l5.821 1.522c1.02-3.87 1.156-7.47.853-11.412Z"/><path fill="#000" fill-rule="evenodd" d="M182.472 109.538c-3.47-.815-7.982.619-9.492 4.896-1.328 3.763.095 7.385 1.814 9.658 2.393 3.164 6.222 4.739 9.714 4.581.876-.039 2.31-.106 3.684-.724 1.555-.7 2.751-1.952 3.495-3.777 2.176-5.336-.567-10.391-4.016-12.68-1.542-1.024-3.411-1.534-5.199-1.954Zm-2.871 10.949c-.993-1.313-1.375-2.844-.943-4.067.328-.929 1.456-1.244 2.349-1.068 1.096.336 2.354.48 3.326 1.125 1.612 1.071 2.652 3.298 1.779 5.441-.97 2.378-5.591-.214-6.511-1.431ZM180.665 133.562c-3.933-2.19-9.642-1.199-12.053 2.801-1.878 3.116-1.825 6.323-.168 8.848 1.523 2.322 4.136 3.658 6.661 3.971 3.258.403 7.961.463 9.87-2.802.821-1.404.947-2.932.893-4.099-.056-1.199-.318-2.326-.561-3.167-.411-1.419-1.043-2.578-1.943-3.544-.862-.925-1.848-1.534-2.699-2.008Zm-5.844 5.07c.519-.38 1.768-.474 2.906.159.896.5 1.505.976 1.797 1.984.176.604.307 1.233.332 1.784.026.549-.04.571-.553.691-.929.217-2.002.165-3.456-.015-1.092-.135-1.974-.706-2.365-1.301-.518-.789-.157-1.744.287-2.482.27-.338.707-.566 1.052-.82ZM184.776 82.965c-1.881-.214-3.98-.178-5.901.373-1.939.556-3.958 1.727-5.081 3.946-1.32 2.608-1.3 5.395-1.046 7.624.267 2.346 1.24 4.115 2.913 5.332 1.301.946 2.911 1.431 4.078 1.783l.005.002c2.026.611 4.095 1.205 6.237 1.088.693-.039 1.387-.004 2.08-.062.852-.072 2.318-.283 3.541-1.301 1.554-1.294 2.184-3.095 2.438-4.59.26-1.522.197-3.1.047-4.431a27.98 27.98 0 0 0-.633-3.482c-.535-2.18-1.879-3.4-3.74-4.457-1.176-.667-3.061-1.612-4.938-1.825Zm1.957 7.031c1.813 1.029 2.152 5.339 1.09 7.052-.713.12-1.454.042-2.174.082-1.345.074-2.711-.399-3.978-.785-.755-.228-2.293-.454-2.712-1.218-.744-1.359-.455-3.834.209-5.147.134-.265.462-.624 1.371-.884.927-.266 2.178-.334 3.556-.178.583.066 1.564.468 2.638 1.078Z" clip-rule="evenodd"/><path fill="#000" fill-rule="evenodd" d="M160.714 30.002c7.215-.112 17.248 3.792 20.095 10.88 5.801-.698 11.603-1.15 17.31-1.239 7.747-.12 15.447-1.09 23.125-2.049 7.702-.96 15.587-1.945 23.545-2.069 5.141-.08 5.991-.32 8.888-.566l.014-.001c2.962-.25 5.32-.505 10.687-.588 10.072-.158 15.462 5.474 15.62 15.457.108 6.865-3.526 12.134-9.831 14.56-11.523 4.433-23.669 2.307-35.717 4.472-3.976 1.241-8.28 1.335-12.157 2.89-2.827 1.135-8.055 2.445-11.343 2.496-3.145.05-7.43.23-9.928 2.47 21.253 3.334 42.804 4.418 64.283 5.101 4.86.417 9.481 2.014 12.391 6.223 2.483 3.592 2.306 7.907.6 11.635-3.357 7.331-12.178 13.381-24.125 12.406-4.507-.008-9.008.225-13.508.457-4.89.253-9.78.506-14.678.45-6.029-.068-11.366-.107-16.724-.093.87 4.109.419 8.468-.444 12.542-.451 2.131-1.072 4.249-1.852 6.103-.475 1.126-1.05 2.257-1.75 3.254 1.139 3.864.532 8.114-1.1 11.844-1.91 4.369-5.371 8.4-9.883 10.842-3.552 1.923-8.831 2.993-14.595 3.551-5.867.568-12.621.637-19.383.336-13.42-.598-27.387-2.679-34.81-5.503-3.296-1.254-6.525-2.923-9.574-4.519-2.325.473-4.652.921-6.99 1.325-7.379 1.274-12.233 2.285-19.807 9.341-2.863 2.667-6.079 6.963-8.654 10.747a143.853 143.853 0 0 0-3.107 4.77c-.919 1.474-1.793 2.974-2.672 4.471-1.707-.938-3.415-1.875-5.108-2.837a299.397 299.397 0 0 1-5.956-3.475c-4.48-2.686-7.907-6.121-10.753-8.67-10.589-9.482-11.937-19.944-12.657-30.715-.387-5.792-.023-11.595.34-17.379l.022-.333c.302-4.78.6-9.496.525-14.254-.07-4.388-.596-8.753-.725-13.14-.135-4.556.126-9.362 1.848-13.988 3.154-8.468 7.765-14.452 15.39-18.418 1.496-.778 3.01-1.512 4.537-2.225a111.573 111.573 0 0 0 14.262 4.934c3.668.997 7.675 1.868 11.518 2.277 3.876.412 6.388.332 9.16-.424 5.179-1.414 9.427-4.002 13.564-7.183 4.382-3.37 8.411-7.168 12.803-10.526 10.377-7.934 23.618-15.426 37.304-15.64Zm-40.159 25.749c10.796-9.19 25.399-19.526 40.253-19.757 4.443-.07 10.886 2.083 13.694 5.738-9.24 1.375-18.379 3.295-27.499 5.302l1.299 5.85c16.417-3.612 33.037-6.986 49.911-7.25 7.934-.124 15.818-1.1 23.682-2.082 7.788-.972 15.38-1.917 22.988-2.036 5.349-.083 6.356-.337 9.317-.587h.001c2.901-.246 5.104-.488 10.271-.568 6.838-.107 9.402 2.797 9.508 9.56.069 4.366-1.98 7.337-5.982 8.877-10.576 4.068-23.315 1.903-34.489 4.274-4.46.946-9.219 1.416-13.466 3.12-2.363.948-6.844 2.025-9.188 2.062-2.804.044-6.747.394-10.083 1.742-5.361 2.167-6.834 6.34-6.75 11.631 23.453 3.987 47.172 5.416 70.926 6.173 5.047.447 6.763 2.15 7.79 3.636.99 1.432 1.151 3.417.082 5.752-5.312 11.603-21.598 8.812-32.13 9.358-14.945.774-29.911.263-44.871.497l.094 5.991c2.402-.037 4.804-.077 7.206-.101.798 3.77.61 7.485-.19 11.267l-.041.19c-.519 2.459-1.236 5.849-3.147 7.615l-1.602 1.479.917 1.975c1.081 2.326.974 5.511-.458 8.786-1.419 3.244-3.998 6.215-7.24 7.97-2.435 1.318-6.693 2.308-12.303 2.851-5.507.533-11.963.607-18.532.314-13.245-.59-26.43-2.641-32.931-5.115-3.099-1.179-6.159-2.78-9.395-4.473-4.788-2.503-9.709-4.699-14.872-6.325l-1.814 5.714c1.762.554 3.537 1.074 5.255 1.756-7.135 1.234-13.375 2.845-21.804 10.697-3.388 3.157-6.918 7.931-9.525 11.762a147.129 147.129 0 0 0-2.966 4.536 295.516 295.516 0 0 1-5.79-3.379c-4.568-2.738-7.487-5.89-9.834-7.992-9.169-8.211-10.035-17.068-10.677-26.658-.36-5.394-.012-10.996.364-16.944.301-4.751.615-9.709.536-14.718-.07-4.415-.597-8.808-.727-13.221-.126-4.263.15-8.168 1.476-11.73 2.71-7.276 7.874-12.906 14.453-16.165a123.52 123.52 0 0 0 12.507 4.153c3.857 1.049 8.198 2.001 12.464 2.455 4.232.45 7.59.433 11.39-.603 6.227-1.7 11.187-4.786 15.652-8.22 2.161-1.66 4.238-3.43 6.27-5.16Z" clip-rule="evenodd"/><path fill="#000" fill-rule="evenodd" d="M111.254 166.395c.946-.74 1.868-1.46 2.749-2.16l1.664 1.97.391-.489c2.441 1.839 5.061 3.387 7.889 4.838.526.27 1.387.666 2.165 1.014.453.203.907.403 1.363.601l-2.367 5.153c-1.306-.566-2.618-1.133-3.882-1.782-2.427-1.245-4.791-2.598-7.069-4.168-1.984 1.552-3.987 3.129-5.938 4.777.931.601 1.849 1.201 2.753 1.787 2.229 1.444 4.398 2.82 6.637 4.043 1.435.783 1.876 1.107 2.548 1.244l-1.199 5.52c-4.004-.817-7.914-3.975-11.22-6.117-1.325-.859-2.612-1.704-3.898-2.521-2.829 2.769-5.246 5.668-6.93 8.78-.718 1.324-1.569 2.577-2.25 3.92-.69 1.363-.897 2.252-.835 2.778l-5.78.641c-.263-2.225.611-4.361 1.393-5.904.704-1.391 1.578-2.688 2.32-4.057 2.537-4.686 6.307-8.737 10.275-12.308 2.999-2.699 6.234-5.226 9.221-7.56Zm75.471 7.014a280.313 280.313 0 0 1-3.372-5.41l5.017-2.857a287.723 287.723 0 0 0 3.608 5.777 42.538 42.538 0 0 1 5.263-1.725c1.403-.364 4.371-1.136 7.31-1.453 1.565-.169 3.311-.233 4.902.043 1.54.266 3.494.955 4.633 2.774.71 1.135 1.058 2.402.901 3.723-.152 1.283-.748 2.352-1.445 3.191-1.328 1.601-3.376 2.789-5.227 3.662-1.332.627-2.811 1.195-4.205 1.682 2.613.771 5.326 1.547 7.106 1.993.562.141 1.181.279 1.837.426 2.817.629 5.524 2.023 8.349 2.432.311.045.625.079.939.099l-.153 2.817c-.015.275-.132 2.818-.17 2.816a17.34 17.34 0 0 1-1.475-.153c-.745-.107-1.944-.326-2.976-.804-1.655-.767-3.329-1.143-5.323-1.591a99.387 99.387 0 0 1-2.484-.58c-1.776-.445-4.353-1.179-6.838-1.909 1.064 1.843 2.09 3.858 2.697 5.883l-5.587 1.576c-.819-2.73-2.656-5.465-4.496-8.514-1.839-3.05-3.77-6.06-5.73-9.101-1.761.932-3.481 1.935-5.201 2.935l-2.992-4.838c1.692-.983 3.383-1.97 5.112-2.894Zm8.377 2.37a642.866 642.866 0 0 1 2.108 3.291c.436-.142.95-.298 1.521-.471 1.974-.597 4.623-1.4 7.041-2.539.526-.248 4.787-2.355 2.659-2.723-.796-.138-1.908-.133-3.237.01-2.479.268-5.056.936-6.478 1.304a36.347 36.347 0 0 0-3.614 1.128Zm-31.731 3.791c-10.196 2.571-20.814 3.944-31.254 4.479l-.007-.129c-.665 2.069-1.297 4.117-1.844 6.169l12.552-1.382c-.012.002-.01.001.006-.002.839-.183 1.635-.511 2.427-.829l1.122 2.602c.035.081 1.137 2.596 1.112 2.606a34.82 34.82 0 0 1-1.372.519c-.624.222-1.763.613-2.639.71l-13.302 1.464-.424-3.627a56.759 56.759 0 0 0-.742 3.661c-.301 1.8-.699 3.587-.865 5.478-.102 1.154-.088 2.121.036 2.9 2.147-.292 4.182-.703 6.311-1.133 2.295-.464 4.599-.874 6.904-1.293 2.867-.521 5.989-1.088 9.128-1.201.787-.099 1.562-.267 2.339-.42l.005-.001 1.165 5.527c-1.06.21-2.159.492-3.247.529-2.679.092-5.27.561-8.104 1.074-.77.139-1.558.282-2.371.421-1.322.226-2.754.513-4.237.81-2.746.55-5.521 1.025-8.292 1.442-1.795.271-3.642-.365-4.469-2.04-1.131-2.286-1.155-4.935-.965-7.095.191-2.17.678-4.461.918-5.9.906-5.423 2.661-10.77 4.324-15.837.45-1.372.893-2.722 1.311-4.048l5.564 1.648c-.171.544-.344 1.084-.517 1.622 9.431-.589 18.904-1.899 27.963-4.184l1.464 5.46Zm8.707 6.668c-1.935.213-3.543.436-4.92.814a52.21 52.21 0 0 0 1.328 3.89 98.86 98.86 0 0 0 1.165-.243c3.054-.659 5.69-1.876 7.401-3.85.324-.374.606-.706.835-1.016-1.945-.067-3.881.193-5.809.405Zm-8.068 9.173-.115 1.812.003.002.948.299c.567 1.453 1.095 2.875 1.544 4.339.305.994.536 2.091.892 3.452.339 1.295.704 2.688 1.548 3.772.436-.32 4.629-3.421 4.675-3.359-.301-.542-.429-1.209-.583-1.799-.086-.328-.18-.711-.28-1.117-.314-1.276-.652-2.54-1.072-3.787 4.577.499 9.181.713 13.753 1.251 1.948.229 3.69 1.194 5.687 1.294l.299-5.634c-.765-.038-1.505-.3-2.228-.528-.791-.25-1.881-.594-3.057-.732-2.947-.347-5.902-.562-8.753-.793 1.552-.871 3.004-1.984 4.235-3.405l.05-.058c.48-.553 1.303-1.501 1.884-2.595.603-1.134 1.213-2.929.401-4.867-.445-1.063-1.29-1.662-1.919-1.98-.633-.32-1.302-.49-1.863-.591-1.128-.202-2.411-.225-3.534-.193-2.269.064-4.621.386-5.103.439-4.445.489-9.388 1.137-13.193 5.449l3.431 2.846c.479 1.593 1.041 3.127 1.612 4.605.248.64.495 1.265.738 1.878Z" clip-rule="evenodd"/><path fill="#000" d="M268.033 146.522c.073.221.144.452.211.69.173-.382.351-.763.535-1.141.546-1.12 1.47-2.43 2.149-3.344a53.515 53.515 0 0 1 1.219-1.574l4.492-.333 1.146 1.163.622.959c.909 2.349 1.245 4.894 1.39 7.248.091 1.486.111 3.076.129 4.519.009.768.018 1.495.037 2.143.146 4.978-.23 9.92-.613 14.697-.091 1.13-.179 2.269-.268 3.415-.359 4.626-.726 9.354-1.279 13.993l-5.78-.647c.539-4.517.895-9.102 1.253-13.717.09-1.159.18-2.32.273-3.482.385-4.802.735-9.461.598-14.098a142.8 142.8 0 0 1-.043-2.469v-.001c-.015-1.334-.03-2.638-.115-4.017a32.468 32.468 0 0 0-.141-1.645c-1.616 3.424-2.721 7.14-3.404 10.926-.185 1.028-.301 2.069-.423 3.105l-5.814-.254a120.112 120.112 0 0 0-.324-5.602c-.267-3.248-.716-6.771-1.391-8.813a15.498 15.498 0 0 0-.854-1.34l-.073.535c-.256 1.867-.51 3.752-.696 5.221-.1.79-.211 1.583-.273 2.377.559 9.628 2.875 19.708 5.633 29.185l-5.599 1.532c-2.817-9.678-5.268-20.257-5.85-30.519-.061-1.081.179-2.196.314-3.263.19-1.497.447-3.405.704-5.277a1208.253 1208.253 0 0 1 1.033-7.378l5.215-1.311a131.98 131.98 0 0 1 2.577 3.246 65.136 65.136 0 0 1 1.972 2.691c.505.738 1.161 1.742 1.438 2.58ZM244.576 161.14c.22 1.167.404 2.562.529 4.092.727 2.377 1.598 4.704 2.503 7.121.429 1.144.865 2.308 1.297 3.508 1.343 3.731 2.592 7.67 3.072 11.737l-5.781.641c-.323-2.737-1.072-5.496-2.029-8.352-1.129 4.596-3.505 9.591-8.541 11.353-2.051.717-3.956.22-5.409-.613-1.389-.795-2.541-1.981-3.443-3.094-1.798-2.217-3.228-4.969-3.825-6.012-2.253-3.936-3.617-8.17-4.685-12.302a204.489 204.489 0 0 1-1.317-5.515c-.519-2.261-1.019-4.442-1.601-6.557l5.622-1.454c.616 2.239 1.138 4.518 1.647 6.737l.011.049c.417 1.82.825 3.603 1.282 5.369 1.021 3.949 2.238 7.632 4.128 10.936.763 1.333 1.887 3.505 3.312 5.263.71.876 1.337 1.442 1.829 1.724.228.13.361.162.409.169 2.691.404 4.543-5.82 4.923-7.367.962-3.922 1.1-8.558.838-12.334a50.438 50.438 0 0 1-.774-2.924 1818.788 1818.788 0 0 1-2.28-10.114l-.281-1.263 5.719-1.126.263.832c.219.703.519 1.677.84 2.763.632 2.134 1.384 4.832 1.742 6.733Z"/></svg>