<svg xmlns="http://www.w3.org/2000/svg" viewBox="0 0 320.5 134.4"><path fill="#ECDFA7" d="M262.7 67.4l-9.2 65.7s-15 5.5-28.6-6l14.9-63.7-28.1-57s11.1-4.7 18.2-3.1l24.7 46.6 42.8-36.4s14.4 5 15.7 9.8l-50.4 44.1z"/><path fill="#3F3E29" d="M.5 94.5c2.8-.3 5.4-.8 7.8-2.2V49c-2.4-1.4-5.4-1.9-8.2-2.2l.4-3.2h23.7l-.5 3.2c-2.8.3-5.4.8-7.8 2.2v18.7H41V49c-2.4-1.4-5.4-1.9-8.2-2.2l.4-3.2h23.7l-.5 3.2c-2.8.3-5.4.8-7.8 2.2v43.2c2.4 1.4 5.4 1.9 8.2 2.2l-.4 3.2H32.8l.5-3.2c2.8-.3 5.4-.8 7.8-2.2v-20H15.9v20.1c2.4 1.4 5.4 1.9 8.2 2.2l-.4 3.2H0l.5-3.2zM84.4 93.9c-3.6 3.4-7.4 4.5-11.8 4.5-6.8 0-10.8-3.7-10.8-9.9 0-7.4 5.4-11.9 15.5-12.6l6.8-.5v-7c0-5.8-2.2-8.2-7.2-8.2-4.3 0-6.8 1.4-6.8 3.9 0 1.4 1 2.6 2.6 3.2 0 2.6-1.8 4.1-5 4.1-3 0-5-2-5-5 0-5.9 5.4-9.7 14.1-9.7 9.1 0 14.6 4.3 14.6 11.7v24.1c1 .8 3.5 1.8 6 2.3l-.3 3H85.3l-.9-3.9zm-.3-15l-6.5.6c-5.1.5-8.2 3.6-8.2 8.2s1.8 7.1 5.4 7.1c3.1 0 5.8-1.4 9.3-5V78.9zM102.7 94.6c2.6-.4 3.9-.9 5.7-2.2V67.8c0-4.3-1.6-5.5-6-5.7l.2-2.6c3.7-.6 7.3-1.9 10.6-2.9l1.5.8.6 4.5c.6-.7 4.5-5.3 10.3-5.3 5.1 0 8.8 1.8 11 5.6 2.8-2.8 6.5-5.6 11.3-5.6 6.9 0 13 3.4 13 13v22.8c1 .8 3.5 1.8 6 2.3l-.3 3h-19l.2-3c2.2-.3 4.1-1.1 5.7-2.3v-23c0-6-2.2-8.6-6.5-8.6-4.1 0-7.8 3.8-8.7 6.7v24.9c1 .8 3.5 1.8 6 2.3l-.3 3h-19l.2-3c2.2-.3 4.1-1.1 5.7-2.3v-23c0-6-2.2-8.6-6.5-8.6-4.1 0-7.8 3.8-8.7 6.7v24.9c1.4 1 3.5 1.8 6 2.3l-.3 3h-19.1l.4-3.1zM172.4 94.6c2.6-.4 3.9-.9 5.7-2.2v-42c0-4.3-1.6-5.5-6-5.7l.2-2.6c3.8-.6 7.9-1.9 11.4-3l1.7.9v52.3c1.4 1 3.5 1.8 6 2.3l-.3 3H172l.4-3z"/><g fill="#3F3E29"><path d="M319.2 74c-.7-1.4-1.6-2.7-2.6-3.9-2-2.3-4.4-4.2-7-5.7a35.2 35.2 0 0 0-8.1-3.8l-1.1-.3-.9-.3c-.6-.2-1.1-.5-1.6-.7-1-.6-1.7-1.2-2.2-2-1-1.5-1.1-3.8-.6-6.2.1-.6.3-1.2.5-1.8.2-.6.4-1.2.6-1.9.2-.9.3-1.8.3-2.9l.5-.4 6-5c1.1-.9 2.2-1.9 3.3-2.8.4.2.8.5 1.1.7 0 0 3.1.3 4.8-4.4l-.9-.6.6-.5 1.5-1.3c.5-.4.9-.9 1.1-1.8-.9-.1-1.5.2-2 .6l-1.6 1.2-1.1.8-13.8-9.5c.7-.6 1.3-1.1 2-1.7l2.9-2.6.3-.3c.3.2.5.4.8.6.7.5 1.5 1 2.2 1.4l4.4 2.4c1.4.8 2.9 1.6 4.4 2.3.7.4 1.5.7 2.3 1 .4.1.8.3 1.2.4.2 0 .5.1.7.1h.5c.2 0 .4-.1.6-.4v-.1c0-.1 0-.2.1-.3v-.4c0-.2-.1-.3-.2-.4-.1-.2-.3-.4-.4-.6-.3-.3-.6-.7-.9-.9-.6-.6-1.3-1.1-1.9-1.6-1.3-1-2.7-1.9-4.1-2.8-1.4-.9-2.8-1.7-4.3-2.4-.7-.4-1.5-.7-2.3-1-.4-.1-.8-.3-1.3-.4-.2 0-.5-.1-.8-.1-.2 0-.3 0-.6.1-.2.1-.5.2-.8.5-.7.3-1.3.6-1.8 1l-3 1.7c-.9.7-1.9 1.5-2.8 2.2l-1-.7s-4.2.4-2.8 3.1l.4.4c-4 3.3-7.9 6.7-11.8 10-4 3.4-7.9 6.8-11.9 10.3l-5.9 5.2c-.3.3-.6.6-1 .9-.2-.6-.5-1.1-.7-1.6l-1.4-3-2.7-6c-1.8-4-3.6-8-5.5-12l-5.6-11.9-.9-1.8h1.2s.4-3.3-2-3.9c0 0-.4 0-1 .1-.9-1.8-1.7-3.6-2.6-5.4l-.4-1.5c-.1-.5-.4-.7-.6-.9-.2-.1-.4-.2-.5-.2-.3-.1-.5-.1-.8-.2-.5-.1-.9-.1-1.3-.1-.9 0-1.7.1-2.5.2-1.6.2-3.3.5-4.9.9-1.6.4-3.2.8-4.8 1.3-.8.3-1.6.5-2.3.9l-1.2.6c-.2.1-.4.3-.6.4l-.3.3c-.1.1-.1.2-.2.3v.4c.1.4.3.5.5.6.2.1.3.2.4.2.3.1.5.1.7.2.4.1.9.1 1.3.1.8 0 1.7-.1 2.5-.2 1.6-.2 3.3-.4 4.9-.7l4.9-.8c.8-.1 1.6-.3 2.5-.5.7 1.4 1.4 2.9 2.1 4.3-4.6.4-11.8 1-16.3 1.5-.5-.9-.9-1.7-1.4-2.6-.1-.2-.4-.4-.7-.3-.3.1-.4.4-.3.7.3.8.6 1.5.9 2.3-1.4.2-2.3.4-2.4.6-.5.9 1 5.6 3 6.8 0 0 .8-.3 2.2-.6l2.1 4.8 6 13.6 6.1 13.6c2 4.5 4.1 9 6.2 13.6 0 0 0 .1.1.1l-.9 3-2.4 8.4c-1.5 5.6-2.9 11.3-4.3 16.9l-2.1 8.5-2 8.5c-1.4 5.7-2.7 11.3-4.3 16.9 0 .1 0 .3.1.4.8 1.1 1.9 1.9 2.9 2.7 1.1.8 2.2 1.4 3.3 2 2.3 1.2 4.7 2.1 7.2 2.9 2.5.7 5.1 1.2 7.8 1.3 1.3.1 2.7 0 4-.2 1.3-.2 2.6-.4 4-.8.4-.1.7-.5.8-.9v-.1c1.1-5.5 2-11.1 3-16.6l2.8-16.7c.9-5.6 1.9-11.1 2.8-16.7.1-.6.2-1.3.3-1.9.2.2.3.5.5.7 1 1.2 2.2 2.2 3.4 3.1 2.4 1.7 5 3 7.6 4 2.6 1 5.3 1.8 8 2.4 1.8.4 3.5.7 5.3.9-.8 1.8-1.3 3.7-1.2 5.8 0 .2.1.4.3.5h.1c1.9 1 3.9 1.8 6.1 2.3 2.1.4 4.4.6 6.6.3 2.3-.3 4.6-1.2 6.4-2.7 1.8-1.5 3.1-3.5 3.9-5.6l.1-.1v-.1l.3-2.7v-.1c1-.6 2-1.2 3-2 1.2-1 2.3-2.1 3.1-3.5.8-1.4 1.3-3.1 1.2-4.8-.1-1.6-.7-3.2-1.4-4.6zm-1.9-50.4s0 .1 0 0zm-7.1-5.3c1.4.8 2.7 1.6 4 2.6.6.5 1.3.9 1.9 1.5.3.3.6.5.8.8l.2.2h-.2c-.4-.1-.7-.2-1.1-.3-.7-.3-1.5-.6-2.2-.9-1.4-.7-2.9-1.4-4.2-2.3-1.3-.9-2.6-1.9-3.7-3-.4-.4-.8-.8-1.1-1.2l1.5.6c1.3.5 2.7 1.2 4.1 2zm-6.8-4.4l.1.1v.2s0-.1-.1-.1v-.2zm-84.5-8.6zm13.2-2.6c-1.4.7-3 1.2-4.5 1.6-1.6.4-3.1.7-4.7.8-.8.1-1.6.1-2.4.1-.4 0-.8 0-1.1-.1h-.3c.1 0 .1-.1.2-.1.3-.2.7-.3 1-.5.7-.3 1.5-.5 2.2-.8 1.5-.4 3.1-.8 4.7-1.1 1.6-.3 3.2-.5 4.7-.6.5 0 1 0 1.5-.1-.3.3-.8.5-1.3.8zm69.4 34.1l-6.2 4.8-6.2 4.9c-1.7 1.4-3.4 2.8-5.1 4.1.1-.1.2-.3.3-.4.8-1.1 1.6-2.1 2.4-3.1 1.7-2 3.3-4.1 5.1-6 1.8-1.9 3.7-3.8 5.6-5.5 1-.9 2-1.7 3.1-2.4l.9-.6c.9.7 1.9 1.4 2.8 2.1-.8.7-1.8 1.4-2.7 2.1zm-73.3-12.3l.5.5c1 1 2 2 2.8 3.1.8 1.1 1.5 2.3 1.8 3.5.2 1 .2 2.1-.3 3l-.1-.3-4.7-9.8zm4.9 10.4c.3-.3.5-.7.7-1.2.3-.7.3-1.5.2-2.2-.2-1.5-.9-2.9-1.8-4-1.3-1.7-2.9-3.1-4.7-4.3l-1.1-2.3c-.7-1.5-1.4-3-2.2-4.4 1.5-.4 3.3-1 5.3-1.5 1.8 2.9 3.4 5.9 4.9 9 1.7 3.9 3.4 8 3.7 12.2.1 1 0 2.1 0 3.2s0 2.2.1 3.3c.1 1.5.4 3.1.7 4.6l-5.8-12.4zm23.6 81.5c-.3.4-.5.7-.9 1-.5.4-1 .6-1.6.5-.5-.1-.9-.6-1.1-1.1-.2-.5-.4-1.1-.4-1.7-.1-1.2-.1-2.4.2-3.6.2-1.2.6-2.3 1.1-3.4.3-.5.6-1 1-1.4.4-.4.9-.7 1.4-.6.5 0 1 .5 1.3 1 .2.3.3.6.4.9l-1.2 7.1c-.1.5-.1.9-.2 1.3zm5.9-34.5l-1.8 10.5c-.1-.7-.3-1.4-.5-2.1-.5-1.9-1.1-3.7-1.7-5.5-1.3-3.6-2.8-7.1-4.6-10.4 1.1 3.7 2.4 7.2 3.7 10.8.7 1.8 1.3 3.6 1.9 5.3l.9 2.7c0 .1.1.3.1.4-.3 1.6-.6 3.2-.8 4.9l-1.5 9.1c-.1-.2-.1-.4-.2-.6-.3-.6-.7-1.2-1.5-1.4-.7-.2-1.4.2-2 .6-.5.4-.9 1-1.3 1.5-.7 1.1-1.1 2.4-1.3 3.6-.2 1.3-.3 2.6 0 3.9.1.6.3 1.3.7 1.9.3.6.9 1.2 1.6 1.3.7.1 1.4-.3 1.8-.8.2-.2.4-.5.6-.7-.7 4.7-1.5 9.4-2.2 14.2-.9.3-1.8.5-2.7.6-1.2.2-2.4.3-3.6.4-2.5.1-4.9-.1-7.4-.7-2.4-.5-4.9-1.3-7.2-2.3-2.2-1-4.3-2.3-5.9-4.1 1.5-5.5 3.2-11 4.9-16.5l2.6-8.3 2.5-8.4c1.7-5.6 3.4-11.2 5-16.8.8-2.8 1.5-5.6 2.3-8.4.6-2.9 1.8-5.6.9-8.8v-.1c-.1-.1-.2-.1-.2 0-.5.5-.8.9-1.2 1.4-1.1-2.5-2.3-4.9-3.4-7.4-.3-.9-.6-1.8-.8-2.8-.5-2.1-.9-4.2-1-6.3-.1-1.1-.1-2.1-.1-3.2s.1-2.2 0-3.3c-.4-4.4-2.1-8.6-4-12.5-1.5-3.1-3.3-6-5.3-8.8 3.3-.9 6.8-1.8 9.6-2.3.4.9.9 1.7 1.3 2.6l6 11.8 6 11.7 3 5.8 1.5 2.9c.4.6.6 1.3 1 1.8l-3.9 3.6c-.1.1-.2.3 0 .5.1.2.4.2.5.1 2.1-1.5 4.2-3.1 6.3-4.7l6.3-4.8c4.2-3.2 8.3-6.4 12.4-9.6 4.1-3.2 8.2-6.5 12.3-9.8l.1-.1c2.2 2.1 5.5 5.2 9 7.9-1.5.8-2.9 1.6-4.2 2.6-2.1 1.6-4.1 3.4-5.9 5.4-1.8 2-3.5 4-5 6.2-1.1 1.5-2.1 3.1-3.1 4.8-6.1 5-12.1 10.1-17.9 15.4-.2.2-.2.5-.1.7.2.2.5.3.7.2-.7 2-1.1 4-1.5 6-.6 2.8-1.2 5.6-1.7 8.4zm44.2 13.4c-1.4 1.1-3.1 1.8-4.9 2.2-1.8.4-3.8.4-5.7.2-1.8-.2-3.7-.5-5.5-1-.2-1.6.1-3.4.8-5 .7.1 1.3.1 2 .2.3 0 .5-.1.6-.4.1-.3 0-.7-.4-.8-.5-.2-.9-.3-1.4-.5.4-.7.9-1.3 1.4-1.9.6-.6 1.2-1.2 1.8-1.7 1.3.8 2.6 1.4 4.1 1.9 1.7.5 3.5.7 5.4.5 1.8-.2 3.7-1.1 4.9-2.6 1.1-1.3 1.6-2.8 1.7-4.4.2.6.2 1.3.1 1.9-.1.8-.2 1.7-.4 2.5l-.3 1.5-1.5.9c-.6.4-1.1.8-1.6 1.7.9.3 1.6.2 2.3 0 .1 0 .1-.1.2-.1-.1.3-.1.5-.2.8-.8 1.6-2 3-3.4 4.1zm9.9-13.1c-.5 1.1-1.3 2.1-2.2 3-.4.4-.9.8-1.3 1.1 0-.9-.1-1.8-.3-2.7-.1-.5-.2-.9-.4-1.4-.2-.4-.4-.9-.9-1.2-.1 0-.2 0-.2.1-.6 1.5-1.6 2.8-2.7 3.7-1.1.9-2.5 1.3-3.9 1.4-1.4.1-2.9-.2-4.4-.6-1.5-.4-3-.9-4.5-1.4l-.2-.1c-.3-.1-.7 0-.9.2-.8 1-1.4 1.9-2.1 2.9-.5.8-.9 1.5-1.3 2.3-1.8-.7-3.5-1.3-5.3-2-2.5-1-5-2-7.3-3.2-2.4-1.1-4.7-2.4-6.7-3.9s-3.8-3.1-4.7-5.1v-.1c-.2-.4-.5-.7-.9-.9 0-.2.1-.5.1-.7.3-2.4.7-4.8.5-7.3 8.1-5.7 16-11.7 23.8-17.9l-.3.9c-.5 1.5-.7 3.2-.7 4.9.1 1.7.6 3.6 1.7 5.2s2.6 2.8 4.1 3.5c.8.4 1.6.7 2.3.9l1.2.3 1 .2c2.6.7 5.1 1.7 7.4 3 2.3 1.3 4.5 2.9 6.3 4.7 1.8 1.8 3.2 4.1 3.4 6.4.1 1.6-.1 2.8-.6 3.8z"/><path d="M250.3 105.2c-.8 1.1-1.4 2.4-1.7 3.7-.2.7-.3 1.4-.3 2l-.1 2c-.2 2.6-.1 5.4.7 8 .8 2.6 1.9 5 3.2 7.3-.4-1.3-.9-2.5-1.3-3.7-.4-1.2-.8-2.5-1.1-3.8-.6-2.5-.6-5.1-.5-7.7l.1-2c0-.6.1-1.3.2-1.9.3-1.2.8-2.4 1.4-3.5.7-1.1 1.5-2.1 2.5-3 .9-.9 2-1.7 3.2-2.3-2.5 1-4.8 2.6-6.3 4.9z"/></g></svg>