<svg xmlns="http://www.w3.org/2000/svg" width="960" height="489"><path opacity=".1" d="M802.411 80.363c-.151.607-.155 1.259-.027 1.948 0 0 2.065 13.708-.279 19.809L702.43 361.291l.008.003c-7.113 19.036 2.419 40.289 21.429 47.601 19.009 7.311 40.325-2.079 47.801-20.976l.009.004 99.675-259.172c1.949-5.07 13.064-14.892 13.064-14.892.558-.425.99-.913 1.285-1.464l.049-.101c.054-.108.116-.212.159-.325 2.57-6.683-14.008-19.279-37.028-28.132-23.021-8.854-43.767-10.613-46.337-3.93-.044.113-.068.231-.101.348l-.032.108z"/><linearGradient id="a" gradientUnits="userSpaceOnUse" x1="632.005" y1="469.897" x2="695.16" y2="533.053" gradientTransform="rotate(-23.964 117.371 90.348)"><stop offset="0" stop-color="#919191"/><stop offset="1" stop-color="#fff"/></linearGradient><path fill="url(#a)" d="M799.53 78.16c-.152.607-.156 1.259-.027 1.948 0 0 2.065 13.709-.28 19.809l-99.675 259.171.009.003c-7.113 19.036 2.419 40.289 21.429 47.601 19.008 7.311 40.325-2.079 47.801-20.976l.009.004 99.675-259.172c1.948-5.07 13.065-14.892 13.065-14.892.558-.425.99-.912 1.285-1.464l.048-.101c.054-.108.116-.212.159-.325 2.57-6.683-14.008-19.279-37.027-28.132-23.022-8.854-43.767-10.613-46.337-3.93-.044.113-.068.231-.101.348l-.033.108z"/><linearGradient id="b" gradientUnits="userSpaceOnUse" x1="608.255" y1="518.076" x2="646.49" y2="556.311" gradientTransform="rotate(-23.964 117.371 90.348)"><stop offset="0" stop-color="#900"/><stop offset="1" stop-color="#e80000"/></linearGradient><path fill="url(#b)" d="M830.797 195.407l-71.88 186.9.047.018c-5.302 13.396-20.729 20.365-34.416 15.102-13.687-5.264-21.094-21.015-16.053-34.512l45.93-119.426s5.736-9.253 16.999-15.836c11.263-6.583 20.551-5.193 33.058-10.752 12.505-5.56 26.315-21.494 26.315-21.494z"/><ellipse transform="rotate(-158.96 841.184 94.485)" fill="#333" cx="841.137" cy="94.48" rx="27.718" ry="7.29"/><path opacity=".3" fill="#FFF" d="M799.503 80.107s2.035 13.787-.28 19.809l-99.675 259.171.009.003c-7.113 19.036 2.419 40.289 21.429 47.601a37.125 37.125 0 0 0 10.02 2.324c-12.813-9.64-18.312-26.88-12.433-42.611l-.009-.003 97.697-254.031c0 .001-13.299-12.486-16.758-32.263z"/><g fill="#FFF"><circle opacity=".5" cx="767.412" cy="247.294" r="2.888"/><circle opacity=".5" cx="786.344" cy="268.235" r="4.354"/><circle opacity=".5" cx="757.443" cy="293.138" r="8.167"/><circle opacity=".5" cx="744.219" cy="308.241" r="4.354"/><circle opacity=".5" cx="761.563" cy="340.542" r="2.888"/></g><g fill="#333"><path d="M253.384 231.366c4.415 3.528 12.361 1.47 17.659-4.411 5.592-6.175 6.475-14.115 2.06-17.644-4.416-3.529-12.362-1.47-17.66 4.705-5.591 6.175-6.474 13.821-2.059 17.35zm-12.95 11.469c-1.177 0-3.237 2.058-1.472 2.94 2.354.882 3.532 2.94 3.532 5.881-2.06 12.057-17.07 25.877-22.957 30.582-1.472 1.471.589 4.705 2.06 3.529 3.238-2.646 10.007-7.94 15.6-14.998-9.124 20.291-26.784 46.462-33.553 55.578-26.488 36.757-66.811 70.574-94.477 70.574-22.074 0-40.911-14.997-45.031-37.052-.294-2.352-3.532-2.94-2.943.294 5.003 30.289 28.255 42.051 56.51 42.051 30.904 0 67.178-22.392 87.126-45.306 32.279-37.078 53.265-79.67 47.673-103.782-2.355-9.115-8.536-10.586-12.068-10.291zm198.579 80.63c8.535-2.058 15.599-6.835 15.599-14.222 0-.738-1.472-.738-1.472 0 0 4.433-5.003 8.046-10.595 8.929-13.245 2.059-39.439-13.474-51.801-29.353 13.245 4.999 40.322-2.326 52.978-11.442 11.773-8.527 16.482-17.924 17.365-25.569 1.471-12.645-12.362-19.989-31.493-12.638-12.361 4.999-27.077 15.882-42.382 36.172 16.188-26.759 47.974-70.279 79.172-98.214 37.967-33.817 60.042-27.347 25.9 8.529-14.128 14.703-40.616 33.817-58.864 42.051-5.592 2.353-2.943 5.588 1.177 3.823 19.426-8.528 45.326-26.171 60.925-40.875 46.209-44.403 7.652-77.926-43.559-30.876-34.73 32.053-57.393 65.575-77.112 109.096-6.77 8.233-11.773 14.997-17.954 20.29a15.12 15.12 0 0 0-1.794 1.87c-16.997 14.565-43.678 34.228-60.258 34.464-11.773.294-16.776-8.527-14.716-19.996 3.237-17.938 21.78-39.11 37.673-46.461 20.603-9.41 32.669 8.821 5.592 23.524-10.301 5.293-22.662 8.233-27.666 8.233-5.887 0-5.298 2.352-.294 2.646 8.241.294 21.486-3.234 30.315-7.352 27.666-13.232 29.432-37.934-.589-38.815-32.669-1.177-71.814 26.759-71.52 61.752.295 15.88 12.95 24.407 30.315 24.407 28.878-.262 54.708-22.28 75.827-41.643 3.032-2.522 5.961-5.294 8.888-8.218-7.358 18.82-11.184 36.169-9.418 49.108 1.178 9.41 6.476 13.82 10.596 17.35.883.588 2.649 0 1.471-1.765-6.181-7.352-4.414-29.166 4.121-50.338 7.063 14.118 34.729 32.003 63.573 25.533zm-34.73-61.353c33.847-30.288 47.091-3.234 25.606 13.232-11.185 8.528-33.259 14.998-40.322 10.881l-1.472-.882c-.883-1.471-1.766-2.942-2.355-4.411 5.593-6.763 12.068-12.938 18.543-18.82zm187.854-34.321c13.539 1.471 7.946-14.997-5.886-10.88-6.181 1.764-12.067 13.526-16.482 23.819-13.539 20.29-36.202 47.932-52.095 62.341-14.128 12.056-27.078 15.291-11.185-7.352 6.475-9.115 14.716-18.819 19.426-28.523 11.184-24.407-12.656-35.287-31.787-20.584-11.184 8.527-26.194 26.171-37.967 35.875-3.238 2.647-2.355 6.47.883 3.823 9.417-7.646 25.9-24.995 40.027-35.287 11.773-9.116 16.482-3.235 9.712 4.41-9.418 10.881-25.9 29.7-30.02 41.757-5.887 17.938 1.177 25.877 12.95 25.877 16.188 0 40.322-25.289 56.51-45.285 5.298-6.763 11.185-14.702 16.188-22.349-14.127 27.348-28.844 54.989-47.091 79.984-25.9 35.288-58.275 61.753-88.885 61.753-22.074 0-41.205-14.997-45.326-37.051-.294-2.354-3.237-2.941-2.943.293 5.004 30.289 28.255 42.051 56.51 42.051 30.904 0 60.63-17.938 81.527-39.992 42.088-44.403 47.091-94.393 60.042-122.329 5.885-12.351 11.477-12.939 15.892-12.351zm171.09-42.815c6.181-10.586 5.887-18.82-8.535-18.82-10.89.294-30.609 7.939-39.733 14.997-2.061 2.059-1.178 3.235 1.472 2.059 1.766-.588 3.826-1.765 5.887-2.646 10.301-5.587 6.181 6.175 3.826 10.586-12.362 21.466-34.142 51.754-45.62 66.751-5.499 7.384-11.699 14.759-17.667 21.029-11.054 10.485-32.883 29.062-49.4 35.313-53.566 19.996 14.716-71.162 20.309-78.514 12.655-15.88 40.911-43.521 49.445-57.342 6.182-10.586 5.887-18.82-8.534-18.82-10.891.294-30.609 7.94-39.733 14.997-2.061 2.059-1.178 3.234 1.471 2.059 1.767-.588 3.826-1.765 5.887-2.647 10.301-5.587 6.181 6.175 3.826 10.586-12.361 21.466-34.142 51.755-45.62 66.752-9.418 12.644-20.896 25.289-29.727 32.347-3.531 2.94-1.471 5.587 2.061 3.234 3.237-2.059 7.946-6.764 13.244-12.351-9.712 19.408-17.659 46.756 7.947 49.99 21.82 2.983 47.764-19.285 64.54-35.778 1.849-1.75 3.877-3.806 6.019-6.042l1.473-1.507c-9.695 19.403-17.587 46.684 7.984 49.914 27.961 3.822 62.691-33.817 76.229-47.639 2.649-2.647 1.766-7.057-2.648-2.647-7.947 8.234-34.73 32.641-54.155 39.993-53.566 19.995 14.716-71.163 20.308-78.515 12.653-15.877 40.908-43.519 49.444-57.339z" opacity=".1"/><path d="M250.558 228.539c4.415 3.529 12.361 1.471 17.659-4.411 5.592-6.175 6.475-14.115 2.06-17.643-4.415-3.529-12.362-1.47-17.66 4.705-5.592 6.175-6.474 13.821-2.059 17.349zm-12.951 11.469c-1.177 0-3.237 2.059-1.472 2.94 2.354.882 3.532 2.94 3.532 5.882-2.06 12.056-17.07 25.877-22.957 30.582-1.472 1.47.588 4.705 2.06 3.528 3.238-2.646 10.007-7.939 15.6-14.997-9.124 20.29-26.784 46.462-33.553 55.577-26.488 36.758-66.811 70.574-94.477 70.574-22.074 0-40.911-14.996-45.031-37.051-.294-2.354-3.532-2.94-2.943.294 5.003 30.288 28.255 42.05 56.51 42.05 30.904 0 67.178-22.392 87.126-45.306 32.279-37.078 53.265-79.669 47.673-103.782-2.355-9.115-8.535-10.585-12.068-10.291zm198.579 80.631c8.535-2.059 15.599-6.835 15.599-14.222 0-.739-1.472-.739-1.472 0 0 4.432-5.003 8.046-10.595 8.928-13.245 2.059-39.439-13.473-51.801-29.352 13.245 4.999 40.322-2.326 52.978-11.441 11.773-8.528 16.482-17.925 17.365-25.57 1.471-12.645-12.362-19.989-31.493-12.638-12.361 4.999-27.077 15.883-42.382 36.173 16.188-26.76 47.974-70.279 79.172-98.215 37.967-33.817 60.042-27.347 25.901 8.529-14.128 14.703-40.617 33.817-58.865 42.051-5.592 2.353-2.943 5.587 1.177 3.822 19.426-8.527 45.326-26.171 60.925-40.874 46.208-44.403 7.652-77.926-43.56-30.876-34.73 32.053-57.393 65.575-77.112 109.097-6.77 8.233-11.773 14.997-17.954 20.29a14.974 14.974 0 0 0-1.794 1.869c-16.997 14.566-43.677 34.227-60.258 34.465-11.773.294-16.776-8.528-14.716-19.996 3.237-17.938 21.78-39.11 37.673-46.462 20.603-9.41 32.669 8.821 5.592 23.524-10.301 5.294-22.663 8.234-27.666 8.234-5.886 0-5.298 2.352-.294 2.646 8.241.294 21.486-3.235 30.315-7.352 27.666-13.233 29.432-37.934-.589-38.816-32.67-1.176-71.815 26.76-71.52 61.753.294 15.879 12.95 24.407 30.315 24.407 28.878-.263 54.707-22.281 75.826-41.644 3.032-2.522 5.961-5.293 8.888-8.217-7.358 18.819-11.184 36.169-9.418 49.108 1.178 9.41 6.476 13.821 10.596 17.35.883.588 2.649 0 1.471-1.764-6.181-7.352-4.415-29.166 4.121-50.338 7.065 14.115 34.732 31.999 63.575 25.531zm-34.73-61.353c33.847-30.288 47.091-3.234 25.606 13.232-11.185 8.528-33.258 14.997-40.322 10.88l-1.472-.882c-.883-1.47-1.766-2.94-2.355-4.41 5.593-6.763 12.068-12.939 18.543-18.82zm187.854-34.321c13.538 1.47 7.946-14.997-5.887-10.88-6.181 1.764-12.067 13.527-16.482 23.819-13.538 20.29-36.201 47.932-52.095 62.341-14.127 12.057-27.077 15.291-11.184-7.352 6.475-9.116 14.716-18.82 19.425-28.523 11.184-24.407-12.656-35.287-31.787-20.584-11.184 8.527-26.194 26.171-37.967 35.875-3.238 2.646-2.355 6.469.883 3.822 9.418-7.645 25.9-24.995 40.027-35.287 11.773-9.116 16.482-3.234 9.713 4.411-9.418 10.88-25.9 29.7-30.021 41.757-5.887 17.938 1.177 25.877 12.949 25.877 16.188 0 40.322-25.289 56.51-45.285 5.298-6.764 11.185-14.703 16.188-22.349-14.128 27.348-28.844 54.989-47.092 79.984-25.899 35.287-58.275 61.752-88.885 61.752-22.074 0-41.205-14.996-45.325-37.051-.295-2.352-3.238-2.94-2.944.294 5.003 30.288 28.255 42.05 56.51 42.05 30.904 0 60.63-17.938 81.527-39.991 42.088-44.403 47.092-94.393 60.042-122.329 5.888-12.351 11.481-12.94 15.895-12.351zm171.09-42.816c6.181-10.586 5.886-18.82-8.535-18.82-10.891.294-30.609 7.939-39.733 14.997-2.06 2.058-1.178 3.234 1.471 2.058 1.767-.588 3.827-1.764 5.887-2.646 10.302-5.587 6.182 6.175 3.826 10.586-12.361 21.466-34.142 51.755-45.62 66.752-5.499 7.383-11.699 14.758-17.667 21.029-11.053 10.485-32.883 29.062-49.399 35.313-53.567 19.995 14.716-71.163 20.308-78.515 12.656-15.879 40.911-43.521 49.446-57.342 6.181-10.586 5.886-18.82-8.535-18.82-10.89.294-30.609 7.939-39.733 14.997-2.061 2.059-1.178 3.234 1.472 2.059 1.766-.588 3.826-1.765 5.887-2.646 10.301-5.587 6.181 6.175 3.825 10.586-12.361 21.466-34.142 51.754-45.619 66.751-9.418 12.645-20.897 25.289-29.728 32.347-3.531 2.94-1.471 5.588 2.062 3.235 3.237-2.06 7.946-6.764 13.244-12.352-9.713 19.408-17.659 46.756 7.946 49.991 21.82 2.982 47.764-19.286 64.541-35.778 1.849-1.751 3.877-3.806 6.02-6.042.504-.516.996-1.018 1.472-1.508-9.695 19.404-17.587 46.684 7.985 49.914 27.961 3.822 62.69-33.817 76.229-47.638 2.648-2.646 1.766-7.058-2.649-2.646-7.946 8.233-34.729 32.641-54.154 39.992-53.567 19.995 14.716-71.163 20.308-78.515 12.653-15.877 40.908-43.518 49.443-57.339z"/><g opacity=".3"><path d="M661.764 281.891l-.412.427c-4.196 9.143-7.592 19.445-7.32 28.013.295-9.433 4.534-20.601 9.204-29.947l-1.472 1.507zm-80.432-6.155c-4.196 9.142-7.591 19.445-7.318 28.012.295-9.459 4.558-20.665 9.243-30.028-.652.687-1.293 1.36-1.925 2.016zm130.334-94.895c.136-.165.285-.335.466-.516 9.124-7.057 28.844-14.703 39.733-14.997 8.229 0 11.854 2.684 12.304 6.954.53-5.417-2.852-8.954-12.304-8.954-10.89.294-30.609 7.939-39.733 14.997-1.413 1.413-1.442 2.409-.466 2.516zm33.135 97.172c-7.946 8.233-34.729 32.641-54.154 39.992-14.205 5.303-19.84 2.787-20.35-3.907-.462 8.146 4.812 11.707 20.35 5.907 19.425-7.352 46.208-31.759 54.154-39.992 2.147-2.146 3.452-2.196 3.929-1.386.747-2.206-.558-3.982-3.929-.614zm-176.85 4.823c8.83-7.058 20.31-19.702 29.728-32.347 11.478-14.997 33.258-45.285 45.619-66.752 1.331-2.492 3.223-7.329 2.762-10.06-.325 2.695-1.716 6.101-2.762 8.06-12.361 21.466-34.142 51.754-45.619 66.752-9.418 12.644-20.897 25.289-29.728 32.347-1.883 1.568-2.166 3.045-1.493 3.732.289-.539.768-1.128 1.493-1.732zm63.697-108.581a7.36 7.36 0 0 1 .466-.515c9.124-7.058 28.844-14.703 39.733-14.997 8.229 0 11.854 2.684 12.305 6.954.529-5.417-2.854-8.954-12.305-8.954-10.89.294-30.609 7.939-39.733 14.997-1.413 1.411-1.441 2.408-.466 2.515zm91.667 16.069c1.33-2.492 3.223-7.329 2.762-10.059-.325 2.695-1.716 6.101-2.762 8.059-12.361 21.466-34.142 51.755-45.62 66.752-5.499 7.383-11.699 14.758-17.667 21.029-11.053 10.485-32.883 29.061-49.399 35.313-14.205 5.302-19.84 2.787-20.349-3.907-.462 8.146 4.812 11.707 20.349 5.907 16.517-6.252 38.347-24.828 49.399-35.313 5.968-6.271 12.168-13.646 17.667-21.029 11.479-14.997 33.259-45.286 45.62-66.752zm-208.468 109.92c-8.886 7.584-17.301 11.671-18.37 8.028-1.29 6.727 8.236 2.62 18.37-6.028 15.893-14.409 38.557-42.051 52.095-62.341 4.415-10.292 10.302-22.055 16.482-23.819 7.621-2.268 12.731 1.711 13.528 5.497.98-4.139-4.525-10.176-13.528-7.497-6.181 1.764-12.067 13.527-16.482 23.819-13.539 20.29-36.202 47.932-52.095 62.341zm-7.897-52.832c-.327 1.483-1.302 3.283-2.993 5.194-9.418 10.88-25.9 29.7-30.021 41.757-1.59 4.845-2.228 8.954-2.091 12.381.132-2.994.799-6.446 2.091-10.381 4.12-12.057 20.603-30.877 30.021-41.757 2.558-2.888 3.475-5.523 2.993-7.194z"/><path d="M453.334 281.66c11.773-9.704 26.783-27.348 37.967-35.875 15.42-11.852 33.887-7.074 34.619 8.003.87-16.64-18.535-22.364-34.619-10.003-11.184 8.527-26.194 26.171-37.967 35.875-1.911 1.562-2.378 3.524-1.781 4.334.299-.759.872-1.592 1.781-2.334zm-77.876 76.562c.549-1.602 2.582-.866 2.824 1.07 4.12 22.055 23.251 37.051 45.325 37.051 30.609 0 62.985-26.465 88.885-61.752 18.248-24.995 32.964-52.637 47.092-79.984a257.079 257.079 0 0 1-4.414 6.504c-12.802 24.541-26.319 49.074-42.678 71.48-25.899 35.287-58.275 61.752-88.885 61.752-22.074 0-41.205-14.996-45.325-37.051-.295-2.352-3.238-2.94-2.944.294.036.216.082.421.12.636zm-54.89-78.482c-10.301 5.294-22.663 8.234-27.666 8.234-4.696 0-5.261 1.495-2.761 2.249.676-.152 1.583-.249 2.761-.249 5.003 0 17.365-2.94 27.666-8.234 11.909-6.466 16.244-13.614 15.613-18.794-.555 4.932-5.171 11.124-15.613 16.794zm44.056 4.213c-5.539 14.862-8.75 28.675-8.607 39.965.25-11.732 3.885-25.968 9.827-41.166-.406.406-.814.802-1.22 1.201z"/><path d="M276.883 308.513c-.39 9.535 4.716 16.421 15.136 16.161 16.581-.237 43.261-19.898 60.258-34.465.48-.6 1.064-1.227 1.794-1.869 6.181-5.293 11.184-12.057 17.954-20.29 19.72-43.521 42.382-77.044 77.112-109.097 34.491-31.688 63.238-26.826 64.218-6.708.864-21.762-28.612-28.003-64.218 4.708-34.73 32.053-57.393 65.575-77.112 109.097-6.77 8.233-11.773 14.997-17.954 20.29-.73.643-1.314 1.27-1.794 1.869-16.997 14.566-43.677 34.227-60.258 34.465-9.676.241-14.769-5.68-15.136-14.161z"/><path d="M430.594 224.881c-3.229 1.358-3.702 3.006-2.738 3.819.477-.601 1.353-1.237 2.738-1.819 18.248-8.234 44.737-27.348 58.865-42.051 12.647-13.291 17.574-22.541 16.842-27.207-.646 5.083-5.802 13.605-16.842 25.207-14.128 14.703-40.617 33.817-58.865 42.051zm-3.532 49.638c7.566-5.8 10.82-12.909 10.389-18.367-.397 5.121-3.717 11.254-10.389 16.367-11.184 8.528-33.258 14.997-40.322 10.88l-1.472-.882c-.623-1.036-1.24-2.073-1.759-3.109-.197.233-.4.463-.595.699.589 1.47 1.472 2.94 2.354 4.41l1.472.882c7.064 4.117 29.138-2.352 40.322-10.88zM450.313 306c0 5-5.003 8.255-10.595 9.137-12.496 1.942-36.513-11.67-49.571-26.562-.777-.197-1.527-.369-2.23-.634 12.362 15.879 38.556 31.438 51.801 29.379 5.592-.883 10.595-4.483 10.595-8.916 0-.602.971-.906 1.331-.524.083-.545.141-.879.141-1.879h-1.472V306zm-127.979-59.547c14.172.417 21.252 6.143 21.876 13.463.573-8.252-6.438-15.009-21.876-15.463-32.67-1.176-71.815 26.76-71.52 61.753.002.12.012.235.015.354.92-34.218 39.349-61.264 71.505-60.107zm104.434-10.11c-10.773 4.357-23.336 13.189-36.518 28.818a377.336 377.336 0 0 0-5.864 9.354c15.305-20.29 30.021-31.174 42.382-36.173 17.671-6.791 30.812-1.038 31.557 9.844.808-12.152-12.832-19.038-31.557-11.843zm-61.94 95.33c-.115 6.95 1.041 12.514 3.552 15.626.51-.253.768-.87.112-1.853-2.343-2.787-3.541-7.654-3.664-13.773zm-128.826-88.808c.457-.489 1.109-.857 1.605-.857 3.532-.294 9.713 1.176 12.067 10.292.521 2.247.81 4.655.882 7.203.05-3.293-.227-6.379-.882-9.203-2.354-9.116-8.535-10.586-12.067-10.292-1.143 0-3.107 1.937-1.605 2.857zM58.45 357.785c.575-1.344 2.627-.595 2.859 1.259 4.12 22.055 22.957 37.051 45.031 37.051 27.667 0 67.989-33.816 94.477-70.574 6.77-9.115 24.429-35.287 33.553-55.577a64.67 64.67 0 0 1-2.151 2.571c-9.519 19.483-25.13 42.562-31.402 51.006-26.488 36.758-66.811 70.574-94.477 70.574-22.074 0-40.911-14.996-45.031-37.051-.295-2.354-3.532-2.94-2.943.294.025.151.057.296.084.447z"/><path d="M216.71 281.412c5.887-4.705 20.897-18.526 22.957-30.582 0-.505-.047-.974-.117-1.425-2.426 11.918-17.047 25.376-22.84 30.007-.628.628-.61 1.576-.27 2.367.073-.13.158-.255.27-.367zm35.908-68.222c5.298-6.175 13.245-8.234 17.66-4.705 1.633 1.306 2.537 3.217 2.75 5.417.248-3.03-.639-5.73-2.75-7.417-4.415-3.529-12.362-1.47-17.66 4.705-3.528 3.896-5.176 8.374-4.808 12.038.278-3.221 1.899-6.827 4.808-10.038z"/></g></g></svg>