<svg xmlns="http://www.w3.org/2000/svg" viewBox="0 0 1136.866 301.661"><defs><linearGradient x1="0" y1="0" x2="1" y2="0" id="leaflet-h" gradientUnits="userSpaceOnUse" gradientTransform="rotate(-161.471 841.124 655.859) scale(137.45081)" spreadMethod="pad"><stop offset="0" stop-color="#acda55"/><stop offset="1" stop-color="#89c442"/></linearGradient><linearGradient x1="0" y1="0" x2="1" y2="0" id="leaflet-g" gradientUnits="userSpaceOnUse" gradientTransform="rotate(-161.471 843.607 651.933) scale(157.74557)" spreadMethod="pad"><stop offset="0" stop-color="#c1ea71"/><stop offset="1" stop-color="#acda55"/></linearGradient><clipPath id="leaflet-f"><path d="M0 3000h2000V0H0v3000z"/></clipPath><clipPath id="leaflet-d"><path d="M1302.329 1422.085l3.028 3.385-65.69 97.928 62.662-101.313z"/></clipPath><linearGradient x1="0" y1="0" x2="1" y2="0" id="leaflet-e" gradientUnits="userSpaceOnUse" gradientTransform="matrix(80.0539 -13.64278 -13.64278 -80.05388 1232.162 1479.361)" spreadMethod="pad"><stop offset="0" stop-color="#74b844"/><stop offset="1" stop-color="#4a9634"/></linearGradient><clipPath id="leaflet-b"><path d="M1235.257 1504.502c-.841-12.783-1.649-35.823 8.88-60.349 10.527-24.527 25.109-31.592 39.248-32.542 10.794-.726 16.416 6.115 20.484 11.662 4.065 5.547 13.383 5.295 15.532 20.529 2.154 15.235-4.505 31.078-19.753 48.833-15.251 17.752-59.113 32.362-61.347 34.97 0 0-2.201-10.321-3.044-23.103"/></clipPath><linearGradient x1="0" y1="0" x2="1" y2="0" id="leaflet-c" gradientUnits="userSpaceOnUse" gradientTransform="matrix(92.77399 -15.81055 -15.81055 -92.77397 1229.242 1474.87)" spreadMethod="pad"><stop offset="0" stop-color="#89c442"/><stop offset="1" stop-color="#74b844"/></linearGradient><clipPath id="leaflet-a"><path d="M0 3000h2000V0H0v3000z"/></clipPath></defs><g clip-path="url(#leaflet-a)" transform="matrix(1.25 0 0 -1.25 -709.98 2030)" fill="#6f6f6e"><path d="M706.129 1469.367c-16.973-17.26-34.34-25.889-52.1-25.889-5.156 0-10.116.664-14.878 1.99-4.763 1.323-10.564 3.56-17.402 6.711-6.84 3.151-12.874 5.442-18.1 6.875-9.668-10.599-18.407-15.898-26.211-15.898-2.723 0-4.98.897-6.768 2.686-1.791 1.79-2.686 3.974-2.686 6.552 0 5.442 2.667 10.223 8.003 14.342 5.334 4.117 12.872 6.963 22.613 8.54 4.082 5.585 6.695 11.046 7.84 16.382 1.146 5.334 2.043 14.126 2.687 26.372 1.217 25.207 7.966 44.956 20.249 59.243 12.28 14.287 25.62 21.43 40.015 21.43 9.883 0 17.993-3.133 24.33-9.399 6.339-6.268 9.508-14.27 9.508-24.009 0-11.244-3.33-21.092-9.991-29.54-6.66-8.452-14.324-12.677-22.988-12.677-4.512 0-8.057 1.236-10.635 3.706-2.578 2.471-3.867 5.855-3.867 10.152 0 2.22.43 4.797 1.289 7.734 1.934-2.22 4.367-3.33 7.305-3.33 4.869 0 9.13 2.901 12.783 8.701 3.652 5.801 5.479 12.711 5.479 20.733 0 6.158-1.397 11.01-4.186 14.555-2.79 3.545-6.617 5.318-11.481 5.318-5.868 0-10.43-2.113-13.683-6.338-3.254-4.227-5.525-9.275-6.813-15.148-1.29-5.873-2.662-15.363-4.12-28.469-1.456-13.105-3.891-24.725-7.302-34.858-3.412-10.133-9.787-20.069-19.124-29.807 6.086.43 11.368.07 15.844-1.074 4.475-1.147 10.885-3.313 19.229-6.498 8.342-3.188 15.522-4.78 21.538-4.78 11.744 0 22.95 6.014 33.623 18.046v-12.354z"/><path d="M730.084 1489.24c18.332 5.156 27.5 14.68 27.5 28.575 0 6.875-2.508 10.312-7.52 10.312-4.726 0-9.238-3.598-13.535-10.796-4.297-7.197-6.445-16.56-6.445-28.09m56.289-19.874c-9.096-8.953-17.26-15.559-24.492-19.818-7.234-4.26-15.219-6.393-23.955-6.393-9.74 0-17.601 3.115-23.579 9.346-5.981 6.23-8.97 14.43-8.97 24.6 0 15.181 5.264 28.913 15.791 41.196 10.527 12.281 22.199 18.423 35.02 18.423 6.66 0 11.994-1.719 16.005-5.156 4.01-3.438 6.016-7.95 6.016-13.535 0-14.825-15.756-26.856-47.266-36.095 2.864-13.965 10.348-20.947 22.452-20.947 4.726 0 9.238 1.272 13.535 3.814 4.297 2.542 10.777 8.18 19.443 16.918v-12.353z"/><path d="M822.467 1463.459c7.16 0 13.91 6.105 20.249 18.316 6.338 12.209 9.507 23.472 9.507 33.784 0 4.01-.897 7.144-2.686 9.4-1.791 2.255-4.19 3.383-7.197 3.383-7.162 0-13.948-6.088-20.356-18.261-6.411-12.177-9.615-23.384-9.615-33.624 0-3.867.949-7 2.847-9.398 1.897-2.401 4.313-3.6 7.25-3.6m78.634 5.908c-11.46-10.887-19.658-17.976-24.6-21.269-4.941-3.293-9.668-4.942-14.18-4.942-11.316 0-16.65 9.99-16.005 29.971-7.162-10.242-13.77-17.797-19.82-22.666-6.052-4.869-12.3-7.305-18.745-7.305-6.303 0-11.655 2.955-16.06 8.864-4.404 5.908-6.606 13.158-6.606 21.752 0 10.742 2.954 20.982 8.862 30.723 5.909 9.738 13.482 17.617 22.72 23.632 9.239 6.016 17.403 9.024 24.492 9.024 8.952 0 15.217-4.119 18.799-12.354l21.956 12.139h6.028l-9.475-31.476c-4.881-15.828-7.322-26.679-7.322-32.551 0-6.157 2.182-9.235 6.55-9.235 2.79 0 5.869 1.486 9.233 4.459 3.363 2.971 8.088 7.5 14.173 13.588v-12.354z"/><path d="M952.142 1530.595c8.373 7.305 14.938 15.164 19.699 23.579 4.76 8.416 7.14 16.169 7.14 23.26 0 3.008-.554 5.479-1.66 7.412-1.108 1.934-2.481 2.9-4.122 2.9-3.142 0-6.338-4.12-9.586-12.36-3.25-8.24-7.073-23.17-11.471-44.791m36.077-61.228c-7.44-8.378-14.807-14.841-22.103-19.388-7.297-4.547-13.806-6.822-19.53-6.822-2.718 0-6.438 1.036-11.158 3.103-3.021-15.748-5.682-32.752-7.983-51.008-7.455-1.004-16.417-2.545-26.882-4.625 2.29 19.623 6.266 45.082 11.922 76.376-.79 1.36-2.185 4.798-4.19 10.314l-7.195-7.95h-2.471v9.668l20.479 21.235c3.892 19.215 7.056 33.12 9.492 41.715 2.434 8.594 5.836 18.1 10.205 28.52 4.367 10.42 7.125 16.399 8.272 17.94 1.144 1.539 3.92 3.008 8.325 4.404 4.404 1.397 9.112 2.72 14.126 3.975 5.01 1.252 7.697 1.88 8.056 1.88 2.72 0 4.942-1.771 6.66-5.313 1.719-3.541 2.579-8.21 2.579-14.003 0-10.017-2.644-19.675-7.931-28.975-5.287-9.301-15.288-20.746-30.004-34.34l-9.03-44.895c3.502-7.51 8.758-11.264 15.763-11.264 10.008 0 20.874 7.268 32.598 21.807v-12.354z"/><path d="M1018.082 1511.37c9.094 10.11 16.471 21.442 22.129 33.994 5.656 12.55 8.486 23.342 8.486 32.379 0 2.654-.394 4.787-1.181 6.402-.789 1.613-1.791 2.42-3.008 2.42-2.651 0-6.499-6.598-11.548-19.794-5.049-13.196-10.009-31.664-14.878-55.401m41.143-42.002c-9.741-8.954-18.281-15.56-25.621-19.82-7.341-4.26-14.34-6.391-21.001-6.391-7.664 0-13.84 2.97-18.53 8.916-4.691 5.943-7.036 13.927-7.036 23.955 0 15.039 3.258 33.086 9.775 54.14 6.516 21.056 14.43 40.462 23.741 58.223l27.285 10.098c.859.285 1.504.43 1.933.43 2.077 0 3.777-1.523 5.103-4.566 1.324-3.045 1.987-7.143 1.987-12.3 0-14.61-3.367-28.753-10.097-42.431-6.733-13.68-17.26-28.29-31.582-43.83-.575-7.448-.86-12.567-.86-15.36 0-6.23 1.145-11.172 3.438-14.824 2.291-3.653 5.334-5.48 9.131-5.48 3.867 0 7.984 1.398 12.353 4.19 4.367 2.794 11.027 8.594 19.981 17.403v-12.353z"/><path d="M1083.287 1489.24c18.332 5.156 27.5 14.68 27.5 28.575 0 6.875-2.508 10.312-7.52 10.312-4.726 0-9.238-3.598-13.535-10.796-4.297-7.197-6.445-16.56-6.445-28.09m56.29-19.874c-9.097-8.953-17.26-15.559-24.493-19.818-7.234-4.26-15.219-6.393-23.955-6.393-9.74 0-17.6 3.115-23.579 9.346-5.98 6.23-8.97 14.43-8.97 24.6 0 15.181 5.264 28.913 15.791 41.196 10.527 12.281 22.2 18.423 35.02 18.423 6.66 0 11.994-1.719 16.005-5.156 4.01-3.438 6.016-7.95 6.016-13.535 0-14.825-15.756-26.856-47.266-36.095 2.864-13.965 10.348-20.947 22.452-20.947 4.726 0 9.238 1.272 13.535 3.814 4.297 2.542 10.777 8.18 19.443 16.918v-12.353z"/><path d="M1201.451 1469.367c-9.023-8.953-16.83-15.559-23.418-19.818-6.59-4.26-12.855-6.393-18.799-6.393-6.16 0-11.155 2.596-14.985 7.79-3.832 5.191-5.747 12.011-5.747 20.462 0 7.447 1.836 17.28 5.511 29.5l4.558 16.262-8.243-.429 3.44 16.865 10.214.43 10.086 33.515 28.696 5.89-11.102-37.365 15.17.86-3.548-16.543-16.664-1.289-7.155-24.07c-2.488-8.364-3.73-15.02-3.73-19.965 0-3.368.843-6.109 2.528-8.224s3.853-3.17 6.508-3.17c3.66 0 7.281 1.163 10.866 3.491 3.585 2.326 8.857 7.178 15.814 14.555v-12.354z"/></g><g clip-path="url(#leaflet-b)" transform="matrix(1.25 0 0 -1.25 -709.98 2030)"><path d="M1235.257 1504.502c-.841-12.783-1.649-35.823 8.88-60.349 10.527-24.527 25.109-31.592 39.248-32.542 10.794-.726 16.416 6.115 20.484 11.662 4.065 5.547 13.383 5.295 15.532 20.529 2.154 15.235-4.505 31.078-19.753 48.833-15.251 17.752-59.113 32.362-61.347 34.97 0 0-2.201-10.321-3.044-23.103" fill="url(#leaflet-c)"/></g><g clip-path="url(#leaflet-d)" transform="matrix(1.25 0 0 -1.25 -709.98 2030)"><path d="M1302.329 1422.085l3.028 3.385-65.69 97.928 62.662-101.313z" fill="url(#leaflet-e)"/></g><g clip-path="url(#leaflet-f)" transform="matrix(1.25 0 0 -1.25 -709.98 2030)"><path d="M987.905 1387.287l.618 4.337c17.52 9.335 39.344 12.934 57.106 21.945 5.328-2.395 7.697 1.062 13.38.747 2.062-1.86-2.594-4.343 2.973-3.963 12.655-1.675 24.973.678 37.413 1.747 13.118 1.126 26.155-.129 39.025.63 4.116.245 10.445 5.931 15.484 3.102 2.28-4.126-7.433-4.485-4.827-9.045 25.76-6.053 90.194-31.682 101.216-3.81.15-1.694-1.924-5.058 1.117-4.583 21.724 9.726 58.632 30.711 65.132 36.211 7.145 6.045 16.668 5.855 26 8 16.828 3.87 34.77 7.817 49.336 16.288 9.002-6.247 27.84-9.36 37.911-7.172 10.516 2.283 26.821 19.728 35.55 25.902 3.427 2.428 8.455 7.135 12.137 4.464-2.476-1.702.445-6.675-2.599-5.823-1.588 3.038-4.752-.466-7.063.121-8.787-7.207-17.92-13.959-26.875-20.946-4.18-2.56 4.035-5.222-.867-6.07-23.14-4.596-58.378 6.927-72.966-9.064-23.113-7.907-44.977-9.914-67.76-22.198-13.087-7.056-29.106-19.897-42.732-26.648-2.308-1.145-5.693-1.549-8.423-3.224-3.323-2.04-4.136-4.602-6.936-5.206-6.98-1.504-21.403 2.141-30.477 3.46-30.28 4.402-62.614 16.745-91.186 18.307-11.298.618-24.639-1.17-37.414-1.745-27.15-1.222-44.134-1.87-65.905-9.188-8.902-2.994-22.596-10.93-28.368-6.576" fill="#3c3c3b" fill-rule="evenodd"/></g><path d="M1313.969 1549.528c-20.873-33.665-26.829-60.173-19.26-85.089 7.567-24.916 22.031-23.794 30.275-32.009 8.246-8.219 19.432-18.193 37.299-14.167 23.397 5.276 45.942 20.891 57.156 64.651 11.214 43.762 3.861 82.083-.879 103.242-4.74 21.158-11.116 37.844-11.116 37.844-3.051-4.944-72.6-40.807-93.475-74.472" fill="url(#leaflet-g)" transform="matrix(1.25 0 0 -1.25 -709.98 2030)"/><path d="M1321.922 1435.717l4.951-4.971 79.387 185.864-84.338-180.893z" fill="url(#leaflet-h)" transform="matrix(1.25 0 0 -1.25 -709.98 2030)"/></svg>