<svg xmlns="http://www.w3.org/2000/svg" viewBox="10 9.5 15 15"><path fill="#d10" d="m22.295 17 1.955-2.192-2.87-.626.292-2.924-2.69 1.181L17.5 9.903l-1.481 2.536-2.69-1.181.292 2.923-2.87.625L12.704 17l-1.955 2.192 2.87.626-.292 2.923 2.69-1.18 1.482 2.536 1.481-2.536 2.69 1.181-.292-2.923 2.87-.625Zm.517 1.417-1.308-.447-.892-1.16 1.149.427Zm-4.22 2.711-.808 1.39v-1.44l.841-1.23Zm-1.901-7.17-1.388-.494-.803-1.084 1.458.64Zm2.352-.938 1.457-.64-.803 1.084-1.387.493Zm1.766 1.28-.705.999.042-1.506.825-1.112ZM17.5 20.5l-1.08-1.577 1.08-1.466 1.08 1.466Zm-2.03-4.49-.055-1.914 1.801.641V16.6Zm2.314-1.273 1.8-.64-.052 1.914-1.748.59Zm-3.592-.437-.162-1.62.824 1.113.042 1.505Zm2.858 2.83-1.08 1.465-1.837-.541L15.3 16.54Zm-.674 2.718.84 1.23v1.44l-.811-1.39Zm1.574-2.718 1.751-.59 1.166 1.514-1.837.541Zm5.25-1.982-1.359 1.525-1.604-.596.962-1.365Zm-5.7-4.142 1.032 1.765L17.5 14.09l-1.03-1.318Zm-5.7 4.141 2.001-.436.962 1.366-1.604.596Zm1.44 2.09 1.148-.427-.892 1.16-1.309.446Zm-.93 1.726 1.361-.465 1.455.429-1.217.385Zm1.87.846 1.629-.515.041 1.732-1.874.823Zm4.969 1.218.042-1.733 1.628.516.204 2.04Zm1.942-1.715-1.217-.385 1.454-.43 1.363.467Z"/></svg>