<svg xmlns="http://www.w3.org/2000/svg" viewBox="0 0 500 500"><path fill="#030304" d="M358.62 304.25c1.54.356 3.066.926 4.624 1.034 10.393.723 21.097-2.214 31.144 2.736.816.402 1.994.348 2.939.168 11.214-2.135 22.558-1.809 33.886-2.028 4.658-.09 7.783 1.745 10.102 5.899 7.432-5.36 15.914-7.42 24.996-6.763 3.492.253 7.158.76 10.305 2.15 1.814.8 3.877 3.598 3.871 5.492-.018 5.918-.967 11.833-1.414 16.33.797 3.837 2.106 6.691 1.832 9.384-1.65 16.241-19.02 22.325-32.223 17.99-2.686-.882-5.3-1.984-8.538-3.21-5.328 8.471-13.111 2.56-20.224 2.382-4.074-.103-8.283-.667-12.201.12-8.057 1.617-13.44-.209-14.647-6.216-.383-1.905.374-4.04.687-6.729-4.447 2.412-9.685 2.406-11.071 8.603-.418 1.868-3.398 3.77-5.588 4.496-3.635 1.204-7.626 1.282-11.384 2.177-5.129 1.22-9.088.128-11.252-4.483l-11.113 4.065c-.52 5.711-1.042 11.551-1.59 17.39-.055.578-.567 1.454-.35 1.667 5.495 5.41 2.673 11.032.573 16.692-2.422 6.527-7.81 10.215-13.74 12.206-4.805 1.613-10.336 1.061-15.546 1.458-.496.038-1.092-.192-1.485.009-4.94 2.53-9.37-.609-14.004-1.257-9.474-1.324-18.859-1.173-28.379.037-6.545.833-13.292-.06-19.926.276-4.49.227-8.939 1.252-13.407 1.917-4.904.729-8.59.606-10.306-6.23-3.784 6.14-8.694 6.74-14.508 3.685-1.076-.566-2.618-.596-3.875-.407-5.084.764-10.138 1.72-15.208 2.577-.768.13-1.774.459-2.307.122-7.341-4.637-14.548-.588-21.712.43-6.025.856-10.549-3.603-8.805-9.388 1.532-5.083 3.44-9.982-.785-15.058-1.233-1.481-.179-4.774-.392-7.216-.39-4.456-1.665-8.98-1.167-13.313.315-2.746 3.172-5.199 5.433-8.602l-1.47-2.189c-7.512 4.52-15.264 4.28-23.43 2.453-2.683-.6-5.841.363-8.663 1.08-3.54.9-6.909 1.969-10.103-.851-.527-.465-1.675-.984-2.062-.737-7.211 4.603-14.88-.162-21.94 1.066-9.5 1.652-18.83-1.49-28.455 1.143-6.654 1.82-14.355-.116-21.583-.485-5.208-.265-10.461-.378-15.59-1.209-2.983-.483-6.736-1.485-8.402-3.615-2.557-3.267-.785-7.254 1.458-10.59 1.347-2.001 2.945-3.91 3.881-6.095 2.64-6.162 1.915-9.599-3.44-13.63-3.423-2.575-4.919-6.011-2.974-9.152 1.46-2.358 5.114-3.937 8.083-4.648 4.848-1.16 9.942-1.802 14.915-1.714 2.398.042 5.057 1.896 7.034 3.589 1.463 1.252 2.013 3.569 3.099 5.659.56-1.32 1.125-2.46 1.535-3.651 1.69-4.911 4.511-6.801 9.38-6.013 3.65.591 7.673.592 10.81 2.233 5.496 2.874 10.288.976 15.443-.356 2.001-.517 4.706-.703 6.342.248 3.684 2.14 6.866 1.833 10.496.127 5.634-2.647 8.93-1.643 11.506 1.666 2.269-1.455 4.614-3.962 7.297-4.399 2.71-.44 5.773 1.103 8.648 1.9 2.76.765 5.477 1.688 9.006 2.538 2.616-.808 4.439-1.612 6.63-2.283 5.853-1.748 11.317-1.105 16.793.203.789.188 2.032.438 2.423.035 5.477-5.645 10.846-3.485 16.64.06 3.483-1.152 6.565-2.314 10.018-3.532 1.097.061 1.825.179 2.599.622 3.717.848 7.387 1.37 11.524 1.919 5.759.03 11.069.266 16.34-.074 2.08-.135 4.078-1.554 6.468-2.373 2.02.043 3.683.07 5.653.292a91.46 91.46 0 0 0 7.584 2.036c4.738-.316 9.047-.626 13.748-.905 1.892-.36 3.392-.752 5.256-1.192 1.343-.067 2.321-.085 3.476.27 3.887.588 7.597.804 11.6.86 2.035-.797 3.779-1.433 5.858-1.95 3.81 2.117 6.975 5.818 11.615 2.457 4.492 1.503 6.328 5.004 7.862 9.117-.7 2.132-1.369 3.9-2.3 6.364 3.892 0 6.519 0 9.524.027 1.844-1.173 3.309-2.374 5.083-3.754 5.433-5.73 11.671-9.202 19.189-10.246a678.161 678.161 0 0 1 16.595-2.107c2.18-.23 3.968-.517 5.757-.804m-63.878 37.538-.58.053c.181.159.362.318.483 1.36.173 3.573 1.724 7.878-2.277 9.976-3.154 1.653-7.04 1.912-11.724 3.067 8.477 1.11 8.64 6.898 8.149 14.508 10.372-6.358 19.477-11.902 28.512-17.558.658-.412 1.161-1.653 1.132-2.488-.195-5.555-3.112-8.275-8.833-8.376-4.913-.087-9.827-.115-14.863-.542m6.956 33.589c3.49 10.484 14.21 10.251 21.977 14.912-4.118.65-8.028.68-11.845.096-3.979-.608-7.868-1.805-11.973-2.788l4.827 12.517c6.211 0 12.063.623 17.725-.146 8.406-1.141 18.843-14.047 13.879-16.593l-1.772 1.372-19.817-11.726.61-1.603 18.696 2.555 1.666-12.108c-6.236.558-12.566.596-18.661 1.812-6.88 1.372-13.472 3.915-17.061 11.52.05.252.102.503.153.755.288-.184.576-.367 1.597-.576m-135.74 6.06-.83.422c.224.125.448.25.845 1.103 3.078 1.798 3.45 4.468 2.563 7.633-.953 3.406-1.791 6.844-2.714 10.4l14.738-2.375-.394-8.265h7.307l2.813 10.181c3.418-1 6.723-1.967 10.3-2.55 0 0 .318.345.68 1.014H217.7l1.507-6.959 12.513.723 1.432 8.292 13.442-2.801-4.887-8.506 3.988-2.763-3.764-9.016-4.633 2.295-4.764-14.927h-4.611l.583-4.282c-4.28 6.249-9.463 4.22-14.254 3.617.456 3.842 5.51 6.51 1.844 10.62-2.124 2.38-1.818 7.47-6.947 6.456 3.08 6.705-3.476 9.157-5.596 14.487l-7.419-10.293 7.807-13.85c-11.712-14.111-26.17-9.34-39.749-8.637l1.068 12.466 4.355-1.32v7.634c-1.31-.195-2.281-.339-3.657-.799m-122.35-67.857-17.306 1.623c15.206 10.255 5.98 21.583.253 32.462l14.184 1.872 2.769-11.954.9-.16 3.563 12.923 9.229-1.428 3.922-13.056 3.387 13.613 12.797-1.915c-8.754-10.3-7.694-21.424-3.302-32.59l-13.181-2.261c-2.598 7.566-5.164 15.039-7.76 22.604-3.25-7.44-6.207-14.211-9.455-21.732m80.187 8.494v10.671l-.789.162-10.928-19.257-15.358 3.277c12.123 10.309 4.746 21.175.318 31.574l13.712.96 2.512-17.057 9.834 17.426 11.935-2.992c-3.926-11.321-1.96-21.492 4.442-30.647l-13.002-4.494c-.893 3.19-1.775 6.336-2.676 10.376m103.89 3.469c3.494 10.355 14.026 10.236 22.079 13.804l-.66 2.167-22.988-3.047 4.547 11.917c4.993 0 9.7.654 14.128-.181 4.538-.856 9.18-2.563 13.083-5.007 4.18-2.618 6.414-9.83 4.734-12.302l-2.051 1.68-19.69-11.48a44955 44955 0 0 1 .468-1.506l18.881 2.51 1.644-12.402c-5.733.51-11.68.728-17.52 1.639-7.361 1.149-14.144 3.691-17.932 10.877-.187.355.42 1.128 1.278 1.331m111.13-3.476 16.483 2.045 1.442-12.387c-13.116 1.83-27.835-.968-36.108 13.592 1.393.59 2.96.812 3.099 1.382 1.457 5.944 6.268 7.776 11.218 9.416 3.215 1.066 6.5 1.923 9.754 2.874-8.205 4.241-15.775-.34-23.733-.798l4.985 12.79c7.167-.63 14.221-.426 20.823-2.056 6.901-1.704 12.311-8.678 11.016-15.795l-2.267 1.352-14.568-8.223-4.261-2.403c.422-.588.844-1.175 2.116-1.79m25.983 10.06-3.6-.852c8.11 6.346.387 13.249.863 19.802l14.626-2.412v-7.943c13.346-1.865 20.911-8.557 22.795-19.646-11.342-13.27-25.83-8.298-39.47-7.742l1.17 12.617 4.708-.96c-.118 2.618-.214 4.759-1.092 7.135m-146.64-18.898-26.656 1.56c3.036 11.234 1.668 22.755-1.108 33.224l32.191 1.661V337.64l-17.785 4.176v-9.775l8.76 2.861v-7.416h-8.62v-7.294l17.652 5.544 1.228-12.233c-1.774-.102-3.24-.187-5.66-.273m184.63 22.206-2.32 12.657 32.2 1.524V337.64l-17.913 4.102v-9.744l8.732 2.992v-7.476h-8.635v-7.334l17.717 5.557 1.34-12.887c-6.814.44-13.065.84-19.315 1.25-2.761.182-5.7 1.069-8.238.406-3.372-.882-4.758.37-5.356 1.896 3.104 6.433 1.952 12.331 1.787 19.034m33.957-.6c3.49 12.183 11.69 17.244 24.929 15.387 6.798-.954 11.805-6.48 11.659-11.395-4.93.936-10.047 2.582-15.207 2.724-7.132.196-5.607-8.175-9.888-11.332 7.004-7.669 15.04-8.776 24.215-3.7l.804-12.877c-7.987-1.958-15.782-1.813-23.306 1.612-6.304 2.87-13.744 13.422-13.206 19.582m-272.64-21.373-7.924-1.113v13.582l13.228-3.162-3.208 27.092 13.854-2.043-3.724-25.823 12.2 1.231v-9.114H177.03l-.636-4.228c-2.818 6.484-7.371 4.17-12.289 3.578m107.17 10.602 6.121-.963-3.27 26.8 13.905-2.088-3.667-25.834 12.248 1.239v-9.066h-11.58l-.498-3.082c-6.347 7.266-13.87.215-20.357 1.636v13.517c2.215-.714 4.244-1.368 7.097-2.159m26.481 66.537v-6.08l-17.644 4.868 2.114-25.937-13.52 1.546c.551 5.343 1.633 10.304 1.424 15.21-.263 6.16 2.026 13.03-3.598 17.658h32.08c-.285-2.155-.562-4.252-.855-7.265m-144.97-62.705 1.255-14.414-12.612 3.535v32.175l11.354-1.217c0-6.586 0-12.852.003-20.08m-61.003 7.747 1-22.17-12.354 3.573v32.09l12.17-1.2c-.276-3.834-.546-7.582-.815-12.293m170.51 59.353v-31.19l-11.605 3.331v31.767c3.18-.2 6.788-.33 10.36-.755.558-.066.955-1.48 1.245-3.153m-2.753-42.352c-7.384 5.013-15.906 4.746-24.034 4.615l7.01 13.86c1.472-9.278 1.647-9.459 10.383-11.688 4.924-1.257 9.659-3.524 15.018-1.41 1.457.576 3.512-.363 4.314-.472l-5.323-11.625c-1.926 1.784-4.354 4.033-7.368 6.721m57.12-16.545.733-7.812h-18.067v7.887c5.676 0 11.088 0 17.335-.075m-115.14 23.726 4.43 3.7c3.629-4.449 3.629-4.449 15.796-5.637-9.81-3.769-19.114-2.844-28.511-1.437 2.556.979 5.113 1.958 8.285 3.374m263.76-28.584h-7.455l-.354 1.822c1.514.495 3.16 1.612 4.506 1.323 1.55-.333 4.893.654 3.303-3.145z"/><path fill="#1a1419" d="M358.78 303.9c-1.95.638-3.74.926-5.836.771-.09-1.413.092-2.394.354-3.353 3.348-12.244 5.486-24.62 4.173-37.771-.845-6.027-1.772-11.664-2.705-17.69-1.69-5.135-3.376-9.882-5.055-14.998-4.616-8.47-9.239-16.57-13.985-24.981-4.011-4.469-7.899-8.625-11.985-13.051-7.022-6.466-14.214-12.115-23.553-16.462v18.386l-13.908.801c.174 12.017-4.4 21.634-12.544 29.639 4.265 2.996 8.046 5.652 12.01 8.575 2.04 2.082 3.895 3.898 5.889 6.023 2.74 3.746 5.34 7.183 8.03 10.948 1.471 2.43 2.852 4.531 4.275 7.012.986 2.363 1.93 4.345 2.89 6.713 6.92 17.288 8.041 35.28 9.937 53.126-1.464 1.2-2.93 2.402-4.72 3.133-.664-4.589-.922-8.716-1.352-12.826-1.586-15.158-3.107-30.336-9.96-44.315-6.277-12.802-13.78-24.562-26.991-31.957-5.214-5.107-9.407-.206-14.333.865-4.846.39-9.275.774-14.091 1.035-3.978-1.168-7.747-1.83-11.107-3.377-2.951-1.358-5.192-1.48-7.742 1.01-24.772 13.768-37.87 50.756-36.03 72.004l4.377.588c-3.083 1.162-6.166 2.323-9.617 3.014-.17-4.607-.51-8.856.334-12.856 2.11-10.01 4.757-19.907 7.387-30.102.833-1.628 1.466-3.003 2.354-4.606 1.377-2.7 2.5-5.171 3.91-7.84 3.14-4.109 5.995-8.02 9.112-12.112 1.68-1.77 3.098-3.36 4.84-5.054 4.264-3.03 8.202-5.954 12.597-9.218-8.803-8.148-12.257-18.317-13.13-29.518l-13.409-.66v-17.86c-9.269 5.376-17.477 10.534-24.115 18.275-3.317 3.661-6.329 7.24-9.648 10.975-5 8.366-9.695 16.577-14.54 25.078-1.588 5.086-3.023 9.882-4.682 14.993-.95 6.143-1.675 11.973-2.469 18.224-.169 3.358-.721 6.364-.292 9.221 1.662 11.056 3.637 22.065 5.496 33.092-1.823.804-3.646 1.608-5.867 2.4-5.683-16.276-7.89-33.107-5.986-49.948 1.27-11.245 4.63-22.465 8.551-33.148 5.21-14.193 13.82-26.767 24.987-36.881 8.16-7.39 18.01-12.908 27.02-19.38 1.284-.922 2.608-2.37 3.028-3.828 6.883-23.89 26.75-38.424 51.71-37.814 1.768.043 3.56-.873 5.832-1.84 1.182-1.613 1.873-2.728 2.564-3.843 0 0 .175-.216.583-.356 1.147-1.114 1.885-2.089 2.624-3.063 5.133-.793 10.345-2.538 15.379-2.123 5.62.463 9.875 4.401 12.112 10.035-4.481.326-8.588.262-12.944.395.926 1.421 2.103 2.645 2.938 3.823-1.165.24-1.988.528-2.996.948-.253.268-.413.458-.372.526.14.232.352.422.563.637.027.01-.003.058.053.367.714.76 1.373 1.211 2.139 1.862.308.439.56.601 1.008.987 1.745 1.433 3.343 2.566 5.059 3.915.35.468.631.63 1.047 1 .99 1.408 1.896 2.517 2.803 3.626.094 1.455-.196 3.076.348 4.336 2.42 5.605 5.024 11.135 7.697 16.625.587 1.207 1.515 2.626 2.649 3.129 11.669 5.171 21.818 12.687 30.425 21.823 16.853 17.889 27.77 38.957 30.91 63.65 2.108 16.566 1.663 32.932-4.03 49.245M217.8 196.579c1.123 22.449 19.685 36.964 40.348 31.55 16.486-4.32 25.586-19.886 23.013-39.644h-63.362v8.095m53.492-11.158c1.665 0 3.332-.038 4.997.004 12.167.303 11.627-.087 11.516-12.511-.033-3.675-1.876-5.53-5.546-5.53-21.655-.008-43.311 0-64.966-.014-3.926-.002-5.857 1.842-5.688 5.83.07 1.662 0 3.33.01 4.996.041 6.474.722 7.199 7.206 7.209 17.158.028 34.315.013 52.47.015m-33.565-40.722 9.301-11.014c-15.006-1.444-33.875 16.45-33.656 30.637 3.935 0 7.917.279 11.823-.143 1.471-.16 3.285-1.655 4.05-3.036 2.873-5.188 5.378-10.58 8.482-16.444m26.063-12.9c1.306-.312 2.884-.26 3.87-.998 4.69-3.513 9.219-7.24 13.453-10.612-7.354-3.078-16.221.476-21.293 9.592 1.098.565 2.199 1.13 3.97 2.019z"/><path fill="#841d6e" d="M287.9 141.16c-.333-.072-.616-.233-.992-1.06-1.823-1.67-3.501-2.764-5.18-3.857-.3-.085-.551-.248-.876-1.032-.808-.972-1.493-1.399-2.178-1.825 0 0 .03-.049.04-.38-.007-.545-.026-.76-.044-.974.823-.288 1.647-.575 2.801-.84.331.022.28.032.472.316 2.764 2.256 5.234 4.391 7.968 6.106.867.544 2.436-.031 3.683-.094 1.047 1.495 1.828 3.314 3.187 4.425 4.884 3.99 9.964 7.739 14.516 11.928-2.645-.511-5.008-1.09-6.998-2.286-5.549-3.339-10.943-6.934-16.4-10.427z"/><path fill="#5d2073" d="M281.81 131.24c-1.166-1.2-2.343-2.424-3.022-3.555 11.535 2.225 22.552 4.475 33.63 6.363 1.63.278 3.553-1.16 5.34-1.804l1.643 3.795c-1.538.634-3.215 2.026-4.59 1.773-6.754-1.245-13.428-2.926-20.907-4.568-4.57-.75-8.362-1.384-12.155-2.019 0 0 .05-.01.06.015z"/><path fill="#901c6a" d="M317.49 131.97c-1.52.919-3.442 2.356-5.072 2.079-11.08-1.889-22.096-4.139-33.381-6.562 3.86-.225 7.966-.16 12.527-.135 8.856 1.42 17.257 2.882 25.926 4.618z"/><path fill="#5a236c" d="M287.98 141.46c5.373 3.195 10.767 6.79 16.316 10.128 1.99 1.197 4.353 1.775 6.937 2.633-.165 4.21-1.414 4.933-4.586 2.572-5.12-3.81-10.11-7.795-15.51-11.706-1.261-1.11-2.168-2.218-3.157-3.626z"/><path fill="#7e287a" d="M260.37 122.47c-.27 1.153-.961 2.268-1.896 3.517-6.265-1.616-12.287-3.367-18.309-5.118l.127-.845c6.552.803 13.104 1.605 20.078 2.446zM263.86 118.77c-.601 1.294-1.34 2.269-2.354 3.343-2.11-1.823-3.936-3.756-5.785-5.666-2.189-2.26-4.398-4.498-6.096-7.57 4.7 3.192 9.398 6.382 14.235 9.893z"/><path fill="#1a1419" d="M281.94 131.51c3.601.35 7.394.985 11.582 1.702.344 1.208.293 2.332.156 3.883-1.334.49-2.902 1.065-3.77.521-2.733-1.715-5.204-3.85-7.968-6.106z"/><path fill="#bb0d29" d="M195.19 303.69c-1.837-.141-3.303-.338-4.746-.532-1.841-21.248 11.257-58.237 36.355-71.87 3.205 1.625 5.962 2.903 8.228 4.776 12.449 10.29 19.288 24.063 23.522 39.176-2.13-.073-3.908-.142-5.848-.468-.489-.484-.817-.712-.97-1.267-.835-2.605-1.368-5.34-2.992-7.026-1.531-1.59-4.46-3.625-6.056.88-.497 0-.694-.054-1.026-.477-1.726.137-3.67.264-4.772 1.293-.637.595.087 2.645.043 4.332-.369 2.037-.584 3.782-.872 5.883-.773 1.138-1.474 1.92-2.11 2.423-4.381-2.278-8.826-4.277-12.89-6.408 1.492-1.66 3.12-3.074 3.499-4.766.196-.88-1.815-2.255-2.626-3.176-.335-1.267-.324-3.262-1.069-3.603-1.447-.662-3.319-.394-5.235-.307-.76.377-1.3.549-1.978.401-1.842.754-3.574 1.792-5.183 2.994-.088.066.846 1.5 1.354 2.563-.113.588-.277.91-.704 1.346-.437.197-.61.28-1.134.354-1.267.483-2.184.975-3.93 1.912 10.095 3.696 18.998 6.955 27.741 10.512-.842 1.72-1.525 3.142-2.541 4.572-.785.037-1.234.064-1.602-.27 2.5-3.348.038-4.237-2.057-5.15-2.349-1.025-3.729-.272-4.045 2.526-.412.05-.58-.013-.82-.431-1.656-.07-3.241.215-4.826.5.307 1.617.613 3.233.693 4.992-.308.301-.39.46-.798.6-4.392 6.708 3.529 5.188 5.394 7.82.45.635 3.644-.559 5.495-1.16.277-.09.108-1.55.512-2.387 1.49-.666 2.614-1.323 4.071-1.854.838 1.53 1.794 2.95 1.745 4.334-.083 2.359-.797 4.696-1.246 7.042-2.035.834-4.032 2.252-6.113 2.387-5.272.34-10.582.105-16.528-.245-2.5-1.129-4.35-1.91-5.885-2.987 1.654-1.653 2.981-3.027 4.34-4.369 4.317-4.259-2.787-6.365-2.097-10.094.053-.285-3.537-1.245-5.434-1.891-.12.472-.241.944-.715 1.53-3.498-1.84-5.707-.511-6.758 2.477-.437 1.241.516 2.971.463 4.479-2.285 3.66-.564 5.218 2.914 6.065.881.214 1.531 1.378 2.139 2.28-.149.173-.349.584-.349.584-.728-.117-1.456-.234-2.553-.295m28.195-50.726c.125.12.25.242.271 1.158 1.15.691 2.384 2.032 3.43 1.898 1.16-.148 2.168-1.621 3.208-2.556.56-.504 1.047-1.088 2.062-1.487.263-.207.526-.413 1.3-1.077.053-1.745.615-4.793.07-5.007-2.193-.857-1.564-2.377-2.161-3.876-2.2-5.52-6.874-.294-10.355-1.47-.453-.154-2.044 3.062-3.108 4.718.53.335 1.061.67 1.48 1.654-2.995 1.248-2.615 3.246-1.205 5.461 1.353 2.127 2.844 2.604 5.008.584z"/><path fill="#612080" d="M317.08 317.41c-2.206-17.667-3.326-35.658-9.778-52.945 17-.432 33.545-.48 50.09-.528 1.395 12.763-.743 25.138-4.09 37.382-.263.96-.444 1.94-.746 3.295-5.485 1.103-10.89 1.8-16.286 2.55-7.519 1.044-13.757 4.516-19.19 10.245z"/><path fill="#f9f9f9" d="m166.36 381.75 3.252.483V374.6l-4.355 1.32-1.067-12.467c13.579-.703 28.037-5.474 39.749 8.637l-7.807 13.85 7.418 10.293c2.12-5.33 8.677-7.782 5.596-14.487 5.13 1.014 4.824-4.075 6.948-6.456 3.665-4.11-1.389-6.777-1.845-10.62 4.792.604 9.974 2.632 14.254-3.617l-.583 4.283h4.611l4.764 14.927c1.633-.81 3.035-1.503 4.634-2.295l3.764 9.015-3.988 2.763 4.886 8.506-13.442 2.801-1.431-8.292-12.513-.722-1.508 6.958c-5.599 0-11.016 0-16.351-.403.102-.637.122-.87.142-1.102l-1.174.107-10.029 2.935-2.812-10.181h-7.307l.394 8.264-14.738 2.375c.922-3.555 1.76-6.993 2.714-10.4.886-3.165.514-5.834-2.503-8.11.06-.477.328-.733.328-.733m23.473-7.057 3.256-.934c-3.662-3.059-8.264-3.83-11.128-1.591-2.075 1.622-1.693 6.388-2.481 10.105 5.973.101 8.51-2.679 10.353-7.58m34.403 9.652 4.607-.347-4.916-10.426-3.196 10.509c1.064.116 1.867.203 3.505.264z"/><path fill="#612080" d="M149.32 306.92c-2.227-11.159-4.202-22.168-5.864-33.224-.43-2.858.123-5.863.76-9.213 16.529-.418 32.52-.425 48.513-.431-2.432 9.942-5.078 19.839-7.189 29.849-.843 4-.503 8.249-.732 12.846-5.427-3.075-10.795-5.235-16.272.411-.39.402-1.634.153-2.423-.035-5.476-1.309-10.94-1.951-16.793-.203z"/><path fill="#ba0e2a" d="M273.96 231.89c12.994 7.122 20.497 18.883 26.774 31.684 6.854 13.979 8.374 29.157 9.96 44.315.43 4.11.689 8.237.973 12.798-2.679.442-5.306.442-9.198.442.931-2.464 1.6-4.232 2.694-6.425 8.58-3.336.52-7.108.69-10.442.033-.632-3.366-1.6-5.268-2.048-.434-.103-1.16 1.383-1.871 2.001-.553.48-1.29.75-1.944 1.113-4.502 3.681-7.668-.02-11.503-2.516 4.561-3.428 4.586-3.637 1.014-8.804-.192-.278.092-.85.048-1.275-.766-7.555-6.141-2.63-9.282-3.027-1.249-.158-2.948 2.798-4.266 4.475-.105.134 1.17 1.352 1.742 2.276-.06.21-.27.594-.526.555-.569.097-.882.231-1.496.47-.18.868-.057 1.631.074 2.748 2.194 1.925 4.38 3.498 6.566 5.07-3.71-.215-7.42-.43-11.218-1.41-.503-3.345-.917-5.928-.95-8.591 1.013-1.77 2.309-3.535 2.126-5.132-.302-2.65-1.554-5.191-2.075-7.958 9.396-3.323 18.46-6.466 27.523-9.61-.105-.619-.21-1.238-.317-1.857-2.361.185-4.723.37-7.238.314-.45-.452-.748-.664-.945-1.25 2.51-5.586-1.537-4.744-4.488-5.13-.422.066-.522.256-.638.748-1.832.43-3.712.21-5.111.928-4.382 2.247-.832 5.108-.629 7.808-2.447 1.405-4.57 2.734-6.816 3.674-3.184-8.27-6.284-16.137-9.269-24.047-.474-1.257-1.05-3.036-.53-4.019 3.758-7.102 8.11-13.779 15.394-17.878m-4.726 17.635a24.12 24.12 0 0 0-.128 2.382c2.007 1.451 4.013 2.902 5.935 4.793.147.326.395.448 1.315.708 1.726-.298 3.602-.286 5.123-1.014.897-.43 1.272-2.013 1.808-3.113.876-1.798 2.4-3.651 2.335-5.433-.065-1.806-1.584-3.65-2.715-5.307-2.669-3.91-6.275-.012-9.437-.843-.875-.23-2.801 1.746-3.432 3.091-.35.747.982 2.281 1.431 3.876 0 0-.204.382-.72.31-.315.134-.63.267-1.515.55m32.135 30.3c-.01-.178-.018-.355.564-.946 1.582-3.49-1.599-3.623-3.375-4.249-.586-.206-1.869 1.565-3.267 2.598 0 0-.454-.104-.695-.754-1.51.12-3.485-.283-4.387.52-.763.68-.283 2.754-.229 4.869-.204.396-.407.792-.94 1.183 0 0-.24.223-.857.417.181.973.363 1.945.672 3.614 1.947 1.263 3.846 2.608 5.85 3.772 4.942 2.87 5.938-3.104 9.062-4.403.87-.362.507-3.789.524-5.81.001-.106-1.745-.226-2.922-.812z"/><path fill="#9fd9f1" d="M43.755 313.95c3.103 7.146 6.06 13.916 9.309 21.357l7.76-22.604 13.181 2.26c-4.392 11.166-5.452 22.29 3.303 32.591L64.51 349.47l-3.387-13.613-3.922 13.056-9.228 1.428-3.564-12.923-.9.16-2.77 11.954-14.183-1.872c5.727-10.878 14.954-22.206-.252-32.462 5.789-.543 11.548-1.083 17.452-1.248zM123.81 321.63c.891-3.593 1.773-6.74 2.667-9.929l13.001 4.493c-6.402 9.156-8.368 19.326-4.442 30.647l-11.935 2.992-9.833-17.426-2.512 17.058-13.712-.96c4.428-10.4 11.804-21.266-.319-31.575l15.358-3.276 10.928 19.257.79-.162c0-3.557 0-7.114.01-11.118z"/><path fill="#9ed8f0" d="M227.38 325.73c-.548-.39-1.155-1.164-.968-1.519 3.788-7.186 10.571-9.728 17.933-10.877 5.84-.91 11.786-1.128 17.52-1.64l-1.645 12.404-18.88-2.51-.468 1.506 19.689 11.479 2.051-1.68c1.68 2.472-.554 9.685-4.734 12.303-3.902 2.443-8.545 4.15-13.083 5.006-4.427.835-9.135.182-14.128.182l-4.546-11.917 22.988 3.046.66-2.167c-8.054-3.568-18.587-3.449-22.39-13.617z"/><path fill="#9ed9f0" d="M338.4 322.08c-.847.6-1.27 1.188-1.691 1.776l4.26 2.403 14.569 8.224c-.07.04 1.067-.637 2.267-1.353 1.295 7.117-4.115 14.091-11.016 15.795-6.601 1.63-13.656 1.427-20.823 2.056l-4.985-12.79c7.958.457 15.528 5.04 23.733.798-3.254-.95-6.539-1.807-9.754-2.873-4.95-1.641-9.761-3.472-11.218-9.417-.14-.57-1.706-.791-3.1-1.382 8.273-14.56 22.993-11.762 36.109-13.592l-1.442 12.387c-5.446-.675-10.965-1.36-16.909-2.032z"/><path fill="#9fdaf1" d="M365.2 332.01c.487-2.259.584-4.399.702-7.018-1.813.37-3.28.67-4.709.96l-1.17-12.616c13.64-.556 28.129-5.53 39.47 7.742-1.884 11.089-9.449 17.781-22.794 19.646v7.943l-14.626 2.411c-.477-6.553 7.246-13.455-.863-19.802 1.2.284 2.4.569 3.99.734m22.75-7.82c.14-.09.297-.162.41-.278.07-.074.13-.286.095-.314-3.603-2.915-7.482-2.617-11.719-1.092v9.405l1.087 1.13c2.241-1.959 4.512-3.884 6.709-5.892.964-.88 1.775-1.928 3.418-2.959z"/><path fill="#f9f9f9" d="M300.26 374.75c3.277-7.163 9.87-9.707 16.749-11.079 6.095-1.216 12.425-1.253 18.661-1.812l-1.665 12.108-18.696-2.554-.61 1.602 19.817 11.726 1.771-1.372c4.965 2.547-5.473 15.452-13.879 16.593-5.662.769-11.514.147-17.725.147l-4.826-12.517c4.105.982 7.994 2.18 11.973 2.787 3.816.584 7.726.555 11.845-.096-7.766-4.66-18.487-4.428-22.515-15.066a2.609 2.609 0 0 1-.9-.467z"/><path fill="#9dd6ee" d="M218.65 313.23c1.943.085 3.41.17 5.183.272l-1.227 12.233-17.653-5.544v7.294h8.621v7.417l-8.76-2.862v9.775l17.785-4.175v12.034l-32.191-1.662c2.775-10.469 4.144-21.989 1.108-33.224 9.613-.562 18.135-1.06 27.133-1.558z"/><path fill="#9ed8ef" d="M402.82 334.96c.152-6.233 1.303-12.131-1.8-18.563.598-1.526 1.983-2.778 5.356-1.897 2.537.664 5.476-.223 8.237-.405 6.25-.41 12.501-.81 19.315-1.25l-1.34 12.887-17.717-5.557v7.334h8.636v7.476c-2.922-1-5.67-1.943-8.733-2.992v9.744l17.914-4.102v11.977l-32.2-1.524a913.166 913.166 0 0 0 2.332-13.127z"/><path fill="#9fdaf1" d="M436.66 334.46c-.435-5.784 7.005-16.336 13.309-19.205 7.524-3.425 15.319-3.57 23.306-1.612l-.804 12.876c-9.175-5.075-17.21-3.968-24.215 3.7 4.281 3.158 2.756 11.529 9.888 11.333 5.16-.142 10.278-1.788 15.207-2.724.146 4.916-4.86 10.44-11.66 11.395-13.24 1.857-21.438-3.203-25.032-15.763z"/><path fill="#9ed7ef" d="M164.55 313.57c4.495.485 9.048 2.799 11.866-3.685l.636 4.228h11.501v9.114l-12.199-1.231 3.724 25.823-13.854 2.043 3.208-27.092-13.228 3.162V312.35c2.54.357 5.232.735 8.346 1.22zM270.88 324.13c-2.441.722-4.47 1.376-6.686 2.09v-13.517c6.487-1.42 14.01 5.63 20.357-1.636l.5 3.083h11.578v9.065l-12.248-1.238 3.668 25.834c-3.93.59-8.398 1.26-13.905 2.088l3.27-26.8c-1.844.29-3.983.626-6.533 1.03z"/><path fill="#f8f8f8" d="M297.78 391.06c.285 2.555.562 4.652.847 6.807h-32.08c5.625-4.63 3.335-11.498 3.598-17.658.21-4.906-.872-9.867-1.423-15.21l13.52-1.546-2.114 25.937c5.657-1.56 11.404-3.146 17.644-4.869 0 2.472 0 4.277.008 6.54z"/><path fill="#601f7e" d="M294.86 342.16c4.914.054 9.828.082 14.741.168 5.721.101 8.638 2.822 8.832 8.376.03.835-.473 2.076-1.132 2.489-9.034 5.656-18.14 11.2-28.512 17.558.49-7.61.328-13.398-8.148-14.508 4.684-1.156 8.57-1.414 11.724-3.068 4-2.097 2.45-6.402 2.348-10.455.07-.48.147-.56.147-.56z"/><path fill="#9fdaf1" d="m152.8 328.38-.001 19.599-11.354 1.216V317.02l12.612-3.535c-.427 4.902-.841 9.658-1.257 14.895zM91.8 336.12c.27 4.23.54 7.977.815 11.81l-12.17 1.201v-32.09l12.355-3.573c-.336 7.444-.668 14.807-1 22.652z"/><path fill="#f8f8f8" d="M262.4 395.43c-.38 1.231-.778 2.646-1.335 2.712-3.573.426-7.18.555-10.361.756V367.13l11.605-3.332c0 10.347 0 20.77.09 31.631z"/><path fill="#f9f7f5" d="M258.71 305.18c-4.309.31-8.617.62-13.618.698-4.072-1.45-5.427-3.848-5.408-7.433.012-2.36-.643-4.723-.955-7.456.412-1.513.78-2.653 1.525-3.763 2.857 1.884 4.856 1.247 6.855-1.03 1.466.322 2.59.515 3.926.672.466-.207.625-.442 1.076-.819 1.166-.048 1.947-.02 2.949.129.383.091.548.062 1.016.088 1.057-.226 1.81-.506 2.57-.49.621.978 1.237 1.66 2.005 2.742 1.442 6.077 2.832 11.767-1.94 16.662m-5.939-3.716c1.717-.84 3.433-1.681 5.601-2.744-1.288-2.023-2.382-3.742-3.71-6.139l-2.342-3.78c-1.755.905-3.196 1.624-4.614 2.384-1.389.745-2.755 1.532-4.365 2.431.931 1.771 1.677 3.19 2.333 5.326l2.364 5.27c1.657-1.052 2.845-1.806 4.734-2.748z"/><path fill="#5c1e79" d="M259.85 352.42a908.052 908.052 0 0 0 7.075-6.502l5.323 11.625c-.802.11-2.857 1.048-4.314.473-5.36-2.114-10.094.152-15.018 1.41-8.736 2.23-8.911 2.41-10.383 11.688l-7.01-13.86c8.129.13 16.65.398 24.327-4.835z"/><path fill="#89c0e0" d="M274.59 296.25c-.633-.714-1.907-1.932-1.802-2.066 1.318-1.677 3.017-4.634 4.266-4.475 3.14.397 8.516-4.528 9.282 3.027.043.425-.241.997-.048 1.275 3.571 5.167 3.547 5.376-1.35 8.684-1.719 1.016-3.462 1.652-5.498 2.448-2.478-1.412-4.665-2.985-6.795-5.326.092-1.325.128-1.88.164-2.436.313-.135.626-.27 1.55-.315a17.101 17.101 0 0 0 2.448-.097l-.019-.612-2.198-.107m6.674-.453-1.34-2.216-1.093.385 1.318 4.98 1.08-.103c.207-.856.412-1.712 1.09-2.623l.8-.385c-.446.12-.893.242-1.855-.038m-3.068 5.918s.132-.086 0 0z"/><path fill="#99cfe8" d="M316.26 336.13c-5.83.038-11.241.038-16.917.038v-7.888h18.067c-.198 2.115-.465 4.964-1.15 7.85z"/><path fill="#5c1e79" d="M201.23 359.6c-2.864-1.198-5.421-2.177-7.978-3.156 9.398-1.407 18.702-2.331 28.511 1.437-12.167 1.189-12.167 1.189-15.795 5.637a451.482 451.482 0 0 0-4.739-3.918z"/><path fill="#88c5e5" d="M296.91 305.65c.518-.683 1.255-.952 1.807-1.433.71-.619 1.438-2.104 1.871-2.002 1.902.449 5.301 1.417 5.269 2.05-.17 3.333 7.888 7.105-.657 10.076-1.961-3.687-3.798-7.188-8.29-8.691z"/><path fill="#f5f3f3" d="M232.12 303.78c.094-2.361.808-4.698.891-7.057.049-1.385-.907-2.805-1.898-4.645-.738-1.296-.99-2.156-.854-2.962 2.468.764 4.55 1.474 6.578 2.63.175 4.341.402 8.236.63 12.131-1.664-.027-3.328-.055-5.347-.097z"/><path fill="#50644f" d="M237.77 304.08c-.534-4.09-.76-7.984-.636-12.321.751-.427 1.15-.413 1.55-.399.356 2.362 1.011 4.725.999 7.085-.019 3.585 1.336 5.982 4.979 7.438-2.02-.378-4.303-.993-6.892-1.803z"/><path fill="#2d492d" d="M259.11 305.21c4.38-4.927 2.99-10.616 1.877-16.735 1.016-.593 1.856-.744 2.503-.648.066 1.647.325 3.047.512 4.9-.048 4.08-.024 7.71 0 11.338-1.5.392-3 .784-4.892 1.144z"/><path fill="#e1dbdb" d="M264.36 304.01c-.389-3.58-.412-7.21-.164-11.2.605-.091.94.178 1.359.78.448.79.812 1.251 1.131 1.712-.045 0-.093.077-.093.077.414 2.583.828 5.165 1.154 8.138-1.066.408-2.044.426-3.387.493z"/><path fill="#1a1419" d="M202.93 303.22c1.849.782 3.698 1.565 5.734 2.666-3.484-.203-7.155-.725-10.872-1.573-.046-.326.154-.737.643-.907 1.824-.175 3.16-.18 4.495-.186z"/><path fill="#f9f9f9" d="M300.79 375.23c-.116.35-.404.534-.692.717-.051-.251-.103-.503.002-.975.156-.222.518.091.69.258zM165.94 382.12c-.37-.012-.595-.137-.82-.262.277-.14.554-.282 1.033-.265.202.158-.066.414-.213.527z"/><path fill="#601f7e" d="M294.75 342.28a3.254 3.254 0 0 1-.584-.44c.193-.017.387-.035.64.134.061.187-.015.268-.056.306z"/><path fill="#f0dec8" d="M217.8 196.11v-7.625h63.362c2.572 19.759-6.528 35.325-23.013 39.644-20.662 5.414-39.224-9.1-40.348-32.02m55.996 9.805c-.53-4.99-3.877-6.249-8.086-5.581-3.944.625-5.269 3.55-4.89 7.301.372 3.692 2.481 5.539 6.19 5.598 4.418.071 6.774-1.986 6.786-7.318m-42.113-5.652c-4.143 1.17-5.404 4.3-4.634 8.02.847 4.085 4.141 5.503 7.949 4.834 3.596-.632 5.074-3.266 4.81-6.902-.333-4.604-3.059-6.208-8.125-5.952m-.59-7.603-5.15-.42c6.327 5.132 13.162 7.231 17.528 5.577-2.364-5.135-7.259-4.363-12.379-5.157m28.831 2.046-3.4 3.878c7.812.696 12.648-3.143 18.05-5.37l-.351-1.228c-4.538.762-9.076 1.524-14.298 2.72m-11.035 26.69c2.928.79 5.298.518 6.207-2.97h-8.986c.928 1.219 1.474 1.935 2.779 2.97z"/><path fill="#e21770" d="M299.58 250.41c-2.6-3.437-5.2-6.874-7.75-10.934 12.34-10.157 24.596-19.735 36.95-29.185 2.147-1.643 4.706-2.748 7.075-4.101 4.622 8.1 9.245 16.201 13.482 24.667-8.076 3.36-15.764 6.357-23.456 9.346-8.766 3.406-17.534 6.805-26.3 10.207z"/><path fill="#e2176f" d="M208.04 239.43c-2.854 3.911-5.709 7.822-9.034 11.603-1.647-.709-2.796-1.355-4.004-1.856-14.646-6.08-29.3-12.138-43.952-18.202 4.693-8.21 9.387-16.42 14.52-24.461 14.45 11.085 28.46 22 42.47 32.916z"/><path fill="#df176e" d="m285.56 233.5-11.826-8.308c8.143-8.006 12.718-17.622 12.544-29.64l13.908-.8v-18.386c9.338 4.347 16.53 9.995 23.408 16.783-1.308 2.227-2.568 3.963-4.047 5.486-11.305 11.645-22.653 23.25-33.988 34.865zM175.39 195.13c6.333-7.658 14.54-12.816 23.809-18.192v17.86c4.643.229 8.711.43 13.409.66.873 11.202 4.327 21.37 13.13 29.519-4.395 3.263-8.334 6.188-12.724 8.9-8.677-8.841-16.877-17.493-25.137-26.09-4.107-4.273-8.322-8.442-12.488-12.658z"/><path fill="#f9fafa" d="M270.79 185.42c-17.656-.002-34.814.013-51.972-.015-6.484-.01-7.165-.734-7.206-7.209-.01-1.665.06-3.334-.01-4.997-.169-3.987 1.762-5.831 5.688-5.829 21.655.014 43.311.007 64.966.014 3.67 0 5.513 1.855 5.546 5.53.11 12.424.65 12.815-11.516 12.51-1.665-.04-3.332-.004-5.496-.004m-22.068-6.176.464-8.124H237.97c-1.45 2.029 3.918 4.028-.527 4.512-.167.018-.248 2.025-.137 3.081.123 1.172.512 2.316.599 2.683 1.935.215 3.976-.16 5.125.682 3.564 2.613 4.58.833 5.693-2.834m12.971-5.593-1.36 9.19c3.805.378 5.01-3.798 2.603-12.276h-11.624l-.574 1.28c1.292.785 2.563 2.173 3.881 2.22 2.235.077 4.5-.693 7.074-.414m-7.973 1.74-1.323 6.159 7.002-1.812c1.527-5.167-1.81-4.672-5.68-4.347z"/><path fill="#dd1770" d="M357.47 263.54c-16.627.436-33.172.485-50.187.531-1.414-1.984-2.358-3.966-2.85-6.35 9.323-2.447 18.182-4.546 27.068-6.525 7.74-1.723 15.512-3.31 23.27-4.958.927 5.638 1.854 11.276 2.698 17.302z"/><path fill="#fbf7f7" d="M273.75 231.62c-7.066 4.372-11.418 11.049-15.176 18.151-.52.983.056 2.762.53 4.02 2.985 7.91 6.085 15.776 8.874 24.313-1.169.954-2.066 1.253-3.262 1.426-1.174-.167-2.05-.208-2.967-.57-.976-1.454-1.91-2.585-2.845-3.717-4.585-15.117-11.425-28.89-23.874-39.18-2.265-1.873-5.022-3.151-7.879-4.837 1.876-2.563 4.116-2.441 7.067-1.083 3.361 1.546 7.13 2.208 11.162 3.699 2.662 3.028 4.883 5.612 7.44 8.586l7.013-9.95c4.51-1.064 8.702-5.965 13.917-.858z"/><g fill="#a20d59"><path d="M285.75 233.76c11.151-11.883 22.498-23.487 33.804-35.132 1.479-1.523 2.74-3.259 4.245-5.217 4.032 3.835 7.92 7.992 11.932 12.46-2.246 1.665-4.805 2.77-6.952 4.413-12.353 9.45-24.61 19.028-37.088 28.876-2.045-1.502-3.9-3.318-5.94-5.401zM175.08 195.21a301.381 301.381 0 0 1 12.793 12.576c8.26 8.595 16.46 17.248 24.812 26.194-1.29 1.907-2.708 3.496-4.388 5.266-14.273-10.734-28.282-21.65-42.425-32.891 2.879-3.905 5.89-7.483 9.207-11.145zM354.77 245.86c-7.752 2.035-15.523 3.623-23.264 5.346-8.886 1.979-17.745 4.077-27.11 6.145-1.875-2.08-3.255-4.181-4.727-6.61 8.677-3.73 17.445-7.13 26.21-10.536 7.692-2.988 15.381-5.985 23.45-8.976 2.065 4.75 3.75 9.496 5.441 14.63z"/></g><path fill="#dd1770" d="M192.92 263.8c-16.191.259-32.183.265-48.643.263.257-5.838.983-11.668 2.34-17.686 15.203 3.447 29.783 7.048 44.332 10.772 1.455.373 2.719 1.497 4.071 2.272-.633 1.376-1.267 2.75-2.1 4.378z"/><path fill="#a20d59" d="M195.28 259.2c-1.607-.548-2.87-1.672-4.326-2.044-14.55-3.725-29.13-7.326-44.107-11.087 1.027-4.922 2.462-9.718 4.05-14.804 14.804 5.773 29.46 11.83 44.104 17.91 1.209.502 2.358 1.148 3.718 2.054-.94 2.8-2.062 5.271-3.44 7.97z"/><path fill="#615f5f" d="M237.49 144.97c-2.874 5.59-5.379 10.982-8.252 16.17-.765 1.38-2.578 2.877-4.05 3.036-3.905.422-7.887.143-11.822.143-.219-14.186 18.65-32.08 33.656-30.637l-9.532 11.288z"/><path fill="#5e5c5d" d="M263.45 131.64a636.865 636.865 0 0 1-3.634-1.857c5.072-9.116 13.939-12.67 21.293-9.592-4.235 3.37-8.763 7.099-13.453 10.611-.986.74-2.565.687-4.205.838z"/><path fill="#e5d5c0" d="M259.41 232.49c-1.837 3.191-4.091 6.39-6.596 9.944-2.557-2.975-4.778-5.559-7.053-8.464 4.374-.706 8.803-1.09 13.649-1.48z"/><g fill="#5a236c"><path d="M281.87 136.55c1.53.793 3.21 1.886 4.914 3.34-1.571-.774-3.169-1.907-4.914-3.34zM278.73 133.7c.63.118 1.315.544 2.015 1.316-.642-.105-1.301-.556-2.015-1.316zM278.48 132.17c.203.081.222.296.203.832-.223.116-.434-.074-.575-.307-.04-.068.12-.258.372-.525z"/></g><path fill="#e65523" d="M238.73 290.98c-.443.358-.843.343-1.542.324-2.38-.714-4.461-1.424-6.946-2.504-.489-.782-.574-1.194-.66-1.606.683-1.421 1.365-2.843 2.466-4.682.89-.754 1.36-1.09 1.831-1.425.701-.782 1.402-1.563 2.49-2.728 2.446-1.946 4.505-3.508 6.77-5.08.209-.01.625.009.641-.02.017-.03-.042.003.157.36 2.673.307 5.145.258 7.617.21.328.227.657.454 1.138 1.314.468 1.807.783 2.983.741 4.093-2.23-.152-4.105-.239-7.417-.392 2.174 3.64 3.49 5.846 4.808 8.051-1.124-.193-2.248-.386-3.718-1.064-.816-1.795-1.284-3.104-1.875-4.756-2.284 1.13-4.175 1.817-5.706 2.98-.428.325.208 2.05.355 3.133a79.309 79.309 0 0 0-1.15 3.792z"/><path fill="#88c5e5" d="M231.86 251.83c-.52.548-1.007 1.132-1.567 1.636-1.04.934-2.047 2.408-3.208 2.556-1.046.133-2.28-1.207-3.365-2.57.047-.853.028-1.035.039-1.46.03-.245.077-.735.397-.912 3.283-3.95 1.436-4.96-2.713-4.848-.817.012-1.283.026-1.75.04l-1.591-1.006c1.063-1.655 2.655-4.871 3.107-4.718 3.481 1.177 8.154-4.05 10.355 1.47.598 1.5-.032 3.02 2.16 3.877.547.214-.016 3.262-.563 5.236-.822.284-1.091.44-1.3.7m-2.96-1.285.28.137c-.115-.16-.23-.319-.581-.962l-1.063-.82-.348.631c.527.247 1.053.494 1.712 1.014z"/><path fill="#87c8e8" d="M221.79 284.2c.072-2.686 1.452-3.439 3.8-2.414 2.096.913 4.559 1.802 1.866 5.152-.275.36-.653.437-.875.479-.504.197-.676.434-.766.776-.03.025-.08.084-.29.163-.47.26-.63.507-.712.836-.023.017-.064.06-.387.013-1.241-.18-2.158-.316-3.075-.45-.12.3-.238.6-.357.902l3.79 2.575c.011.007.027.025.12.235.273.475.52.645.858.75.025.03.086.081.156.279.23.452.458.596.79.67.033.039.121.09.121.09-.037.827.132 2.287-.144 2.377-1.852.602-5.046 1.796-5.496 1.161-1.865-2.632-9.785-1.113-5.094-7.763 1.008-.023 1.388-.121 1.769-.22l-1.044-.58-.92-4.85c1.585-.284 3.17-.57 4.91-.313.429.406.705.269.98.132m.4 2.51s.134-.087 0 0z"/><path fill="#86ccec" d="M203.24 302.92c-1.649.3-2.984.305-4.66.306-1.095-.731-1.746-1.895-2.627-2.11-3.477-.846-5.198-2.405-2.48-6.023 1.966.116 3.124.19 4.303.59 1.42.75 2.82 1.175 4.22 1.6.1-.532.2-1.063.298-1.594-1.146-.157-2.293-.314-3.282-.84.33-2.534.503-4.7.676-6.867l.36-1.416c1.898.646 5.488 1.606 5.435 1.891-.69 3.729 6.415 5.835 2.098 10.094-1.36 1.342-2.686 2.716-4.341 4.369m-.815-10.218.658.168c-.14-.138-.281-.275-.658-.168m1.964 5.044s-.112.068 0 0zM209.77 268.25c-.458-.797-1.392-2.231-1.304-2.297 1.609-1.202 3.34-2.24 5.208-2.663.635 1.479 1.108 2.307 2.173 4.17v-5.107c1.696.117 3.568-.15 5.015.512.745.34.733 2.336 1.069 3.603.811.921 2.822 2.295 2.625 3.176-.378 1.692-2.007 3.105-3.792 4.591-1.563-.637-2.451-1.231-3.056-1.99-.83-4.934-5.164-2.791-7.938-3.995m8.735.557.86-.821c-.113-.119-.319-.347-.327-.34-.302.255-.587.532-.533 1.161z"/><path fill="#26191f" d="M217.42 272.41c.888.594 1.776 1.189 2.958 1.958 4.739 2.173 9.184 4.172 13.564 6.45-.535.614-1.005.95-1.735 1.404-9.161-3.14-18.065-6.398-28.16-10.094 1.746-.937 2.664-1.43 4.132-1.705.907.327 1.264.438 1.952.691 1.028.292 1.725.442 2.48.556.06-.035-.024-.144.207.153 1.481.322 2.731.348 4.114.493.132.12.488.094.488.094z"/><path fill="#88c5e5" d="M251.73 273.5c-2.647.377-5.12.426-7.493.084.422-.801.744-1.211 1.066-1.621-.268-.093-.746-.309-.774-.26-.296.504-.52 1.05-.765 1.585 0 0-.416-.019-.998-.058a173.142 173.142 0 0 1-5.685-1.02c-.11-1.395-.834-3.444-.197-4.04 1.101-1.028 3.045-1.155 4.79-.985a12.538 12.538 0 0 0 1.515 2.49l.654-.446-.86-1.931c1.294-4.449 4.224-2.413 5.755-.823 1.624 1.686 2.157 4.42 2.992 7.025z"/><path fill="#e16439" d="M253.79 279.31c-.315-1.175-.63-2.35-.937-3.901 1.786-.306 3.564-.237 5.694-.164 1.286 1.135 2.22 2.267 3.18 4.08-1.013 2.506-2.05 4.33-3.086 6.154-.753.281-1.507.562-2.391.482.51-1.305 1.367-2.175 1.727-3.217.32-.928.197-2.065.02-3.065-.038-.211-1.517-.525-1.72-.282-.652.783-1.257 1.76-1.433 2.743-.227 1.266-.022 2.609-.002 3.918-.782-.028-1.564-.057-2.717-.397.307-2.325.986-4.338 1.665-6.351z"/><path fill="#8bbad9" d="M199.33 288.1c.18 2.053.008 4.22-.6 6.78-.616.424-.798.453-.98.482-1.158-.074-2.316-.149-3.907-.264-.755-1.55-1.708-3.28-1.272-4.521 1.051-2.989 3.26-4.318 6.76-2.477z"/><path fill="#8abfdf" d="M219.64 246.6c.522-.339.989-.352 1.86-.018 1.048 1.792 1.694 3.235 2.339 4.679 0 0-.048.49-.232.784-.384.386-.552.518-.688.69-1.696 2.255-3.187 1.778-4.54-.35-1.41-2.215-1.79-4.213 1.261-5.785z"/><path fill="#89c2e2" d="M226.8 287.38s.379-.076.571-.077c.642-.028 1.092-.054 1.876-.09.42.401.505.813.607 1.541.268 1.177.52 2.037.924 3.207-.97.968-2.094 1.624-3.584 2.29-.367.01-.456-.041-.555-.277-.267-.483-.498-.628-.794-.67 0 0-.06-.052-.173-.295-.299-.506-.549-.674-.864-.747 0 0-.015-.018-.014-.397a270.626 270.626 0 0 0-.047-2.608s.04-.043.272-.142c.494-.278.654-.522.713-.833 0 0 .05-.06.283-.157.49-.252.673-.468.785-.745z"/><path fill="#8bbad9" d="M236.93 272.51c1.855.035 3.555.361 5.63.737-1.683 1.611-3.741 3.173-6.115 4.763-.1-1.718.115-3.463.485-5.5z"/><path fill="#8abddc" d="M217.71 272.24c-.283.165-.64.19-1.024-.204-1.621-.434-2.857-.475-4.092-.515 0 0 .083.109-.033-.204-.955-.526-1.794-.74-2.77-1.109l-.41-.466c.164-.322.327-.643.441-1.23 2.724.937 7.057-1.205 7.888 3.728zM215.62 262.55c.22 1.077.22 2.359.22 4.903-1.064-1.864-1.537-2.692-2.035-3.851.514-.503 1.054-.675 1.815-1.052z"/><path fill="#8bbad9" d="M242.68 267.36c.588.588.874 1.232 1.161 1.875l-.654.446c-.454-.605-.908-1.21-1.38-2.122.179-.253.376-.198.873-.199z"/><path fill="#88c5e5" d="M216.59 289.37c.575.051.923.244 1.27.437-.38.1-.76.198-1.44.24-.219-.217-.138-.376.17-.677z"/><path fill="#8abddc" d="M221.55 284.31a1.08 1.08 0 0 1-.665.111c.085-.124.253-.061.665-.111z"/><path fill="#8abfdf" d="M232.11 251.9c-.038-.333.23-.49.798-.544-.025.205-.287.412-.798.544z"/><path fill="#8abddc" d="M223.15 252.85c-.098-.29.07-.422.425-.563.173.132.192.313.198.769-.138.153-.264.032-.623-.206zM209.8 270.97a5.588 5.588 0 0 1-1.272-.54c-.027-.29.146-.373.583-.57.263-.115.536.196.636.5.1.304.053.61.053.61z"/><path fill="#0f0f0f" d="M189.55 374.95c-1.558 4.644-4.096 7.425-10.069 7.323.788-3.717.406-8.483 2.48-10.105 2.865-2.24 7.467-1.467 11.129 1.591-1.383.397-2.32.666-3.54 1.191zM223.82 384.36c-1.22-.074-2.024-.162-3.088-.278l3.196-10.509L228.844 384c-1.872.142-3.24.245-5.024.361z"/><path fill="#030304" d="M200.45 397.79c.256-.228.647-.263 1.038-.3-.02.233-.04.466-.322.768-.262.069-.58-.276-.716-.468z"/><path fill="#87c8e8" d="M289.86 281.21c.07-1.458-.409-3.532.354-4.212.902-.803 2.877-.4 4.488.171.293 1.675.486 2.657.68 3.64l1.021-.269-.673-3.474c.964-.867 2.247-2.638 2.833-2.431 1.776.625 4.957.759 2.934 4.557-.613.48-.74.68-1.054.963-.487.21-.741.365-.996.52.474-.113.948-.227 1.61-.345.187-.005.56-.03.56-.03.934.114 2.68.234 2.68.34-.018 2.021.345 5.448-.525 5.81-3.124 1.3-4.12 7.274-9.062 4.403-2.004-1.164-3.903-2.51-5.883-4.509-.03-1.515-.026-2.293-.022-3.071 0 0 .24-.223.747-.166 1.165-.147 1.823-.351 2.48-.555l-2.172-1.342m4.332 5.52s.135-.09 0 0z"/><path fill="#89c2e2" d="M271.6 248.25c-.574-1.18-1.905-2.714-1.555-3.46.63-1.345 2.557-3.321 3.432-3.091 3.162.83 6.768-3.067 9.437.842 1.13 1.658 2.65 3.502 2.715 5.307.064 1.782-1.46 3.635-2.335 5.433-.536 1.1-.912 2.684-1.808 3.113-1.521.729-3.397.716-5.478.679-.477-.55-.651-.709-.875-.813-2.007-1.45-4.014-2.901-5.85-4.887.288-1.022.408-1.51.528-1.997.315-.133.63-.267 1.558-.31a16.913 16.913 0 0 0 2.447-.1l-.041-.614-2.175-.102m6.613-.72-1.557-2.7-1.134.446 1.689 5.822 1.917-.197c-.112-1.102-.225-2.203-.915-3.37m-3.021 6.183s.136-.091 0 0z"/><path fill="#24181d" d="M265.01 279.66c.897-.298 1.795-.597 3.087-1.162 2.517-1.595 4.64-2.925 7.45-4.275 1.885-.652 3.083-1.282 4.542-1.992.441-.056.622-.033.88.337.995.375 1.91.404 3.154.416 1.227-.57 2.126-1.125 3.025-1.679l7.086-.555c.105.62.21 1.239.317 1.858a5282.66 5282.66 0 0 1-27.735 9.56c-.544.13-.97.036-1.03-.297-.3-.96-.538-1.585-.776-2.211z"/><path fill="#88c5e5" d="M283.8 273c-.915-.029-1.83-.058-2.594-.625-.077-1.479-.305-2.42-.533-3.36l-.84.126v3.169c-1.198.63-2.395 1.26-3.956 1.837-.89-2.68-4.44-5.541-.059-7.788 1.4-.718 3.28-.498 5.239-.978.464-.361.59-.49.679-.656 2.782.345 6.83-.497 3.978 5.138-.933 1.328-1.423 2.232-1.914 3.137z"/><path fill="#e44c22" d="M265.85 282.2s.425.093.637.143c1.063 2.637 2.316 5.178 2.618 7.828.183 1.596-1.113 3.362-2.126 5.132-.381.08-.333.004-.291-.328-.377-.793-.795-1.253-1.212-1.713-.335-.27-.67-.54-1.205-.9-.458-1.49-.717-2.89-.725-4.917.935-2.167 1.62-3.706 2.304-5.245z"/><path fill="#8abfdf" d="M284.12 272.98c.162-.888.653-1.792 1.485-2.746.639.162.937.374 1.387.827-.746.794-1.645 1.348-2.872 1.919zM295.51 277.15c.442 1.075.666 2.233.89 3.391l-1.022.27c-.193-.984-.385-1.966-.559-3.315.02-.367.474-.263.691-.346z"/><g fill="#8bbad9"><path d="M289.92 281.54c.662.119 1.386.566 2.11 1.013-.658.205-1.316.409-2.316.559-.139-.451.065-.847.206-1.572zM271.53 248.46c.787-.174 1.512-.14 2.237-.105l.04.614c-.61.063-1.222.126-2.188.134-.355-.054-.151-.435-.09-.643zM288.5 283.37c.305.681.3 1.46.266 2.626-.211-.584-.393-1.556-.266-2.626zM274.53 296.46c.793-.175 1.526-.139 2.259-.103l.018.612c-.612.062-1.224.124-2.191.135-.356-.05-.146-.434-.086-.644zM272.5 297.49c.266.451.23 1.007.13 1.979-.187-.348-.31-1.111-.13-1.979zM269.52 249.45c.165.413.046.9-.261 1.56-.133-.38-.079-.933.261-1.56z"/></g><path fill="#8abfdf" d="M301.49 280.06c.122.236-.252.262-.485.206a.676.676 0 0 1-.336-.17c.082-.228.209-.428.527-.7.154.074.163.251.294.664z"/><path fill="#8bbad9" d="M275.09 256.48c.266-.116.44.043.632.422-.28.246-.527.124-.632-.422z"/><path fill="#8abfdf" d="M281.56 264.68c.08.209-.047.337-.339.478-.183-.221-.084-.412.339-.478z"/><path fill="#060809" d="M387.57 324.21c-1.262 1.001-2.073 2.049-3.037 2.93-2.197 2.007-4.468 3.933-6.71 5.891l-1.086-1.13v-9.405c4.237-1.525 8.116-1.822 11.719 1.093.034.027-.025.24-.096.313-.112.117-.27.188-.79.308z"/><path fill="#bd485c" d="m245.77 298.22-2.422-4.608c1.61-.9 2.976-1.687 4.365-2.431 1.418-.76 2.858-1.48 4.613-2.383.85 1.372 1.596 2.576 2.234 4.364-1.395 1.43-2.682 2.276-4.28 3.186-1.711.667-3.11 1.27-4.51 1.872z"/><path fill="#ed8b18" d="M240.26 287.22c-.523-1.113-1.158-2.838-.73-3.163 1.53-1.163 3.422-1.85 5.705-2.98.591 1.652 1.06 2.961 1.533 4.628-1.652 2.761-3.65 3.398-6.508 1.515z"/><path fill="#e65523" d="M265.79 281.87c-.623 1.873-1.308 3.412-2.05 5.33-.897.532-1.737.683-2.906.875-.944-.64-1.56-1.322-2.181-2.3 1.03-2.12 2.067-3.945 3.12-6.13.893-.32 1.769-.278 2.943-.111.536.75.775 1.377 1.074 2.336z"/><path fill="#9ebe16" d="M250.59 296.28c1.287-.846 2.574-1.691 4.085-2.783 1.32 1.473 2.414 3.192 3.702 5.216-2.168 1.062-3.884 1.902-6.042 2.442-.876-1.825-1.31-3.35-1.745-4.875z"/><path fill="#ed8b18" d="M253.43 279.24c-.322 2.078-1.001 4.091-1.693 6.493-.078.688-.238.923-.704 1.13-1.53-2.17-2.847-4.375-5.02-8.015 3.312.153 5.186.24 7.417.392z"/><path fill="#dfdc12" d="M250.28 296.35c.746 1.46 1.18 2.985 1.706 4.905-1.096 1.149-2.284 1.903-3.941 2.954-.875-1.95-1.62-3.61-2.32-5.628 1.445-.962 2.844-1.564 4.555-2.23z"/><path fill="#ed7e17" d="M255.06 286.17c-.239-1.43-.444-2.773-.217-4.038.176-.983.781-1.96 1.433-2.743.203-.244 1.682.07 1.72.281.177 1 .3 2.138-.02 3.066-.36 1.041-1.218 1.911-2.031 3.161-.337.335-.501.364-.885.273z"/><path fill="#8abfdf" d="m281.84 296.28-.617 2.568-1.081.102-1.318-4.98 1.093-.385c.447.739.893 1.478 1.613 2.437.274.22.31.258.31.258z"/><path fill="#8abfdf" d="M281.79 296.22c.43-.141.877-.262 1.324-.383a6.59 6.59 0 0 1-1.036.413c-.236.028-.272-.01-.288-.03z"/><path fill="#8bbad9" d="M278.26 301.67c.066-.043-.066.043 0 0z"/><path fill="#ba0e2a" d="M265.56 293.59c.334.129.752.589 1.173 1.38-.36-.128-.725-.588-1.173-1.38z"/><path fill="#f2d3c2" d="M273.8 206.32c-.013 4.923-2.37 6.98-6.787 6.91-3.709-.06-5.818-1.907-6.19-5.599-.38-3.751.946-6.676 4.89-7.301 4.209-.668 7.555.59 8.087 5.99zM232.09 200.25c4.66-.244 7.387 1.36 7.72 5.965.263 3.635-1.214 6.27-4.81 6.901-3.808.67-7.102-.748-7.949-4.834-.77-3.72.49-6.85 5.039-8.032z"/><path fill="#312b2b" d="M231.49 192.76c4.716.69 9.61-.082 11.974 5.056-4.365 1.652-11.201-.447-17.528-5.58 1.991.163 3.57.292 5.553.524z"/><path fill="#2d2727" d="M260.26 194.49c4.88-.979 9.418-1.74 13.956-2.502l.35 1.227c-5.4 2.227-10.236 6.066-18.05 5.37 1.625-1.852 2.513-2.865 3.744-4.095zM248.51 221.24c-.925-.876-1.471-1.592-2.4-2.81h8.987c-.909 3.487-3.279 3.759-6.587 2.81z"/><path fill="#adbfc7" d="M248.45 179.46c-.838 3.454-1.854 5.235-5.418 2.622-1.149-.843-3.19-.467-5.125-.682-.087-.368-.476-1.511-.599-2.683-.11-1.056-.03-3.063.137-3.081 4.445-.484-.922-2.483.528-4.512h11.217c-.17 2.96-.317 5.542-.74 8.336z"/><path fill="#b9c8d0" d="M261.53 173.3c-2.414.067-4.678.837-6.913.76-1.317-.046-2.589-1.435-3.88-2.219l.573-1.281h11.624c2.408 8.479 1.202 12.654-2.603 12.276.455-3.075.908-6.132 1.199-9.536z"/><path fill="#adbfc7" d="M254.14 175.3c3.449-.236 6.786-.731 5.258 4.436l-7.002 1.812c.486-2.263.905-4.21 1.744-6.248z"/><path fill="#8abddc" d="M224.16 251.08c-.965-1.266-1.61-2.71-2.31-4.5 3.746-.46 5.593.55 2.31 4.5z"/><path fill="#8abfdf" d="m228.77 250.27-1.58-.74.348-.633c.355.274.709.548 1.163 1.079.1.257.069.294.069.294zM228.82 250.22c.133.144.248.303.363.463a.94.94 0 0 1-.346-.274c-.066-.137-.035-.173-.017-.189z"/><g fill="#8abddc"><path d="M224.43 289.21c.34.79.356 1.533.36 2.648-1.271-.484-2.531-1.34-3.792-2.197.12-.3.238-.601.357-.902.917.135 1.834.27 3.075.451zM225.52 288.36c.151.232-.009.476-.48.736-.15-.23.01-.476.48-.736zM222.26 286.67c.067-.043-.067.043 0 0zM226.58 287.42c.11.236-.074.451-.533.679-.143-.244.029-.481.533-.679zM224.9 292.47c.222-.137.472.03.746.506-.226.14-.473-.03-.746-.506zM225.92 293.5c.225-.155.456-.01.69.434-.232.163-.46.018-.69-.434z"/></g><g fill="#88c5e5"><path d="M197.77 295.69c.16-.354.343-.383.802-.438 1.423.13 2.57.287 3.717.444l-.298 1.594c-1.4-.425-2.8-.85-4.221-1.6zM202.54 292.58c.259.015.4.153.54.29-.219-.055-.438-.112-.54-.29zM204.33 297.78c-.056.034.056-.034 0 0z"/></g><path fill="#87c8e8" d="M218.33 268.63c.117-.452.401-.729.704-.984.008-.007.214.221.327.34-.287.274-.574.548-1.031.644z"/><path fill="#86ccec" d="M212.82 271.82c1.005-.257 2.24-.216 3.728.099-.997.249-2.247.223-3.728-.099zM210.13 271.11c-.33-.142-.283-.447-.247-.597.876.065 1.716.279 2.612.84-.64.198-1.337.049-2.365-.243z"/><path fill="#8bbad9" d="M243.78 273.26c.228-.505.452-1.051.748-1.556.028-.048.506.168.775.261-.323.41-.645.82-1.266 1.264-.3.035-.24.001-.257.031z"/><path fill="#8abfdf" d="M300.82 280.27c-.428.173-.902.287-1.376.4.255-.155.51-.31.996-.52.232-.054.333.06.38.12z"/><path fill="#8bbad9" d="M294.26 286.68c.068-.045-.068.045 0 0z"/><path fill="#8abfdf" d="M278.5 247.57c.401 1.134.514 2.236.627 3.338l-1.918.197-1.69-5.822 1.135-.446c.52.9 1.038 1.8 1.846 2.733z"/><path fill="#8bbad9" d="M275.26 253.67c.068-.045-.068.045 0 0z"/><path fill="#8abfdf" d="M280.09 272.23c-.261-.977-.261-2.033-.261-3.09l.84-.125c.228.94.457 1.881.454 3.013-.41.169-.591.146-1.033.202z"/></svg>