<svg xmlns="http://www.w3.org/2000/svg" viewBox="0 0 400 400"><g fill-rule="evenodd"><path fill="#6796b6" d="M186.868 22.383c-4.077.646-4.579 1.808-3.228 7.485 2.293 9.635-.204 16.532-5.985 16.532-5.048 0-13.52-5.742-14.686-9.956-1.558-5.627-2.063-5.953-8.145-5.266-8.17.923-8.818 1.605-6.737 7.086 1.446 3.81 4.035 6.079 8.81 7.723 8.4 2.891 10.91 5.847 9.076 10.687-2.207 5.826-9.81 6.458-23.173 1.926-9.365-3.176-13.569-2.217-20.6 4.699-8.046 7.915-15.991 8.391-22.733 1.362l-2.741-2.857-.72.889c-.407.503-1.008 2.499-1.385 4.598-1.665 9.29-5.088 12.044-12.833 10.325-5.779-1.283-8.988-.483-8.988 2.24 0 1.958 3.387 2.254 10.852.948 2.501-.438 5.628-.801 6.948-.808 1.32-.007 3.57-.274 5-.593 11.243-2.51 18.565-1.278 21.074 3.547.329.633 1.214 3.595 1.967 6.583 2.417 9.597 5.964 13.668 11.076 12.709 3.53-.662 4.283-3.05 3.291-10.436-.986-7.34-.358-10.132 2.948-13.119 6.21-5.61 15.973-5.931 24.129-.793 3.153 1.986 4.435 2.379 8.87 2.716 8.807.671 14.796 5.147 17.471 13.059 1.884 5.57.828 10.092-3.943 16.885-5.495 7.827-3.753 14.252 6.092 22.465 12.091 10.086 12.315 14.439 1.824 35.381-4.885 9.752-5.559 11.628-6.231 17.354-.719 6.131-1.041 6.656-5.528 8.992-6.994 3.642-7.045 6.293-.212 10.953 5.361 3.656 7.41 6.579 6.423 9.162-1.274 3.332-4.512 3.201-10.268-.415-10.531-6.615-14.773-7.606-21.999-5.136-5.625 1.923-7.012 4.126-6.183 9.818.9 6.183 1.825 7.289 11.599 13.885 3.19 2.153 6.7 4.583 7.8 5.401 3.116 2.316 3.642 2.482 8.983 2.827 2.759.178 7.334.619 10.166.979 8.666 1.104 11.609-.258 7.833-3.624-4.343-3.873-1.979-8.784 4.618-9.593 1.1-.135 3.62-.797 5.6-1.472 3.3-1.126 3.884-1.207 7.009-.972 2.53.19 4.853.037 9-.592 6.542-.993 15.653-.897 26.991.283 3.769.393 10.118.701 14.8.719l8.2.031 3.8-1.562c8.152-3.352 14.294-2.535 19.2 2.554 4.272 4.432 3.334 4.171 16 4.45 15.005.33 15.657.616 20.004 8.758 1.844 3.454 2.592 4.449 4.209 5.6 7.874 5.606 8.037 8.839 1.17 23.27-4.939 10.379-5.7 12.409-6.568 17.53-.918 5.416-1.407 6.507-4.518 10.074-3.353 3.845-3.516 4.185-4.332 9.046-1.433 8.542-5.369 12.963-20.966 23.552-3.336 2.264-7.858 5.795-10.185 7.951-5.701 5.283-6.305 5.522-15.614 6.167-13.421.931-14.565 1.387-19.684 7.845-3.912 4.937-4.849 5.507-15.716 9.565-17.049 6.366-21.313 7.073-24.193 4.008-3.367-3.585-.215-9.339 12.82-23.408 7.205-7.775 12.253-13.989 14.3-17.6l1.473-2.6.136-5.624c.196-8.12-.692-10.362-5.091-12.851-5.288-2.992-7.88-4.829-10.526-7.46-1.606-1.596-5.417-4.963-8.47-7.483-4.299-3.549-5.968-5.213-7.403-7.382-1.606-2.427-2.224-2.996-4.642-4.267-5.96-3.136-7.002-6.261-5.847-17.533.656-6.403.291-6.652-10.157-6.928-4.4-.116-9.541-.433-11.423-.704-4.295-.619-5.075-.415-7.772 2.027-7.198 6.519-19.342 6.647-41.227.435-14.62-4.15-19.046-6.765-21.175-12.51-1.457-3.932-2.703-5.052-7.431-6.681-6.718-2.316-12.895-8.779-24.314-25.439-2.111-3.08-5.261-7.115-7-8.967-3.875-4.124-4.673-5.802-6.459-13.582-1.44-6.27-1.799-7.421-4.513-14.451-3.832-9.928-3.877-16.177-.178-24.8 1.013-2.361 2.021-5.711 2.661-8.846 2.186-10.701 1.185-13.072-7.465-17.688-6.257-3.339-6.654-3.041-11.287 8.493-38.414 95.613 8.376 205.107 101.619 237.802 115.986 40.67 233.199-54.747 223.771-182.161C359.222 93.916 287.348 23.508 199.2 22.197c-5.61-.084-11.159 0-12.332.186m21.552 1.236c64.155 4.991 124.096 50.671 140.573 107.127 1.234 4.229.538 11.2-1.022 10.236-.172-.106-.522.845-.78 2.113-.257 1.268-.819 3.112-1.248 4.099-.43.986-.624 1.846-.433 1.909.525.175.062 2.65-.564 3.017-.3.176-.547.536-.548.8-.002.264-.271.994-.598 1.622-.328.628-.502 1.293-.387 1.479.115.186-.156 1.376-.602 2.644-.446 1.269-.811 2.593-.811 2.943 0 .349-.466 1.615-1.036 2.813-.569 1.199-1.46 3.079-1.979 4.179-.52 1.1-1.311 3.498-1.758 5.329-.833 3.408-1.46 4.575-4.083 7.603-1.051 1.213-1.634 2.377-1.948 3.888-.59 2.84-5.196 10.039-5.196 8.12 0-.937-3.541 2.958-4.749 5.224-.658 1.235-1.658 2.679-2.224 3.21-.565.531-1.027 1.124-1.027 1.317 0 .783-4.411 6.973-5.586 7.839-.694.511-1.905 1.951-2.692 3.2-2.004 3.181-2.785 3.95-5.459 5.376-1.291.687-2.619 1.665-2.951 2.172-.332.507-.774.922-.981.922-.208 0-1.043.535-1.856 1.188-1.538 1.236-2.766 1.294-4.075.195-4.685-3.933-15.185-4.085-24-.346-3.611 1.532-8.745 1.665-23.245.602-13.773-1.01-22.279-1.07-27.755-.196-2.286.364-6.105.617-8.914.59-4.452-.044-5.24.062-8.4 1.128-1.917.647-4.566 1.296-5.886 1.442-6.301.696-8.975 4.761-6.95 10.568.88 2.524.087 2.625-11.388 1.452l-7.538-.771-6.862-4.523c-13.496-8.897-13.748-9.124-14.882-13.386-1.616-6.072-.396-8.302 5.56-10.159 6.479-2.02 10.073-.988 20.458 5.87 4.719 3.116 4.789 3.228 2.702 4.301-6.822 3.509-5.337 12.794 2.054 12.836 6.947.039 9.821-6.537 5.211-11.923l-1.446-1.69 1.64-1.78c3.168-3.437 2.063-8.259-2.639-11.518-8.837-6.127-9.199-7.387-3.037-10.597 4.865-2.534 6.068-4.361 6.114-9.283.037-3.98 1.152-7.292 5.42-16.109 10.621-21.941 10.937-28.243 1.783-35.66-12.6-10.209-14.671-15.71-9.029-23.973 4.943-7.24 5.896-10.763 4.431-16.386-2.317-8.894-9.006-14.253-18.802-15.063-4.542-.375-5.203-.581-8.364-2.603-7.09-4.536-15.053-5.042-22.215-1.412-5.5 2.787-7.723 7.412-6.796 14.141 1.315 9.544.838 11.265-3.122 11.265-4.38 0-6.89-3.562-8.915-12.655-2.3-10.325-7.352-12.976-21.225-11.14-5.328.705-5.272.791-3.369-5.091 2.033-6.281 1.856-6.146 5.461-4.168 8.757 4.806 14.882 3.872 22.365-3.41 7.355-7.157 10.684-7.858 21.084-4.435 9.178 3.02 14.027 3.428 18.297 1.54 4.519-1.999 6.571-6.461 4.859-10.56-1.096-2.622-2.851-3.665-11.465-6.815-3.621-1.324-6.795-5.43-6.795-8.792 0-1.913.549-2.22 5.215-2.915 5.744-.855 6.435-.5 7.59 3.904 1.804 6.886 14.714 13.325 20.073 10.012 3.538-2.186 4.891-8.832 3.315-16.275-1.096-5.175-.762-6.12 2.342-6.628 2.67-.436 15.234-.409 21.085.047m-36.74 6.861c-.911.911-.565 3.096.689 4.351 2.722 2.721 4.883-.45 2.64-3.873-.687-1.049-2.498-1.309-3.329-.478m-39.706 9.264c-12.792 4.516-24.854 12.734-24.854 16.933 0 5.017 4.964 4.435 10.313-1.209 4.95-5.223 10.686-7.241 19.906-7.004 6.425.166 6.481.089 3.676-5.058-2.717-4.984-3.919-5.47-9.041-3.662m6.191 1.656c1.101 1.188 2.399 4.395 2.098 5.181-.167.435-1.239.544-4.938.503-8.468-.093-13.767 1.865-18.751 6.929-3.551 3.607-5.009 4.565-6.411 4.213-5.529-1.387 7.182-11.294 21.635-16.861 3.263-1.257 5.179-1.247 6.367.035m5.588 41.199c-3.682 1.834-4.207 3.693-3.126 11.061 1.541 10.512-2.752 16.34-12.036 16.34-9.02 0-15.067-5.635-17.598-16.4-1.75-7.444-2.986-7.924-13.485-5.237-6.147 1.574-7.238 1.77-17.988 3.244-11.263 1.545-16.746 4.982-20.673 12.959-1.882 3.822-1.491 4.966 2.807 8.225 9.069 6.875 11.215 13.642 8.946 28.209a289.94 289.94 0 0 0-1.007 7.188c-.245 1.973-.839 4.493-1.32 5.6-1.435 3.307-1.224 6.562.647 9.956.832 1.509 1.76 3.693 2.063 4.854.709 2.724 1.529 4.281 3.268 6.206 1 1.107 1.38 1.879 1.317 2.676-.202 2.55.068 3.334 1.832 5.32.99 1.115 1.8 2.204 1.8 2.42 0 .216.603.681 1.341 1.032 1.371.654 2.659 2.359 2.659 3.52 0 .356.495.836 1.099 1.066 1.699.645 2.419 1.494 2.705 3.186.144.854.583 1.963.974 2.464.392.502 1.129 1.722 1.639 2.712.879 1.709.939 1.749 1.173.8.203-.821.294-.878.509-.318.144.375.969 1.042 1.833 1.483.863.441 2.807 2.134 4.319 3.764 1.512 1.629 3.492 3.425 4.401 3.991.908.566 2.039 1.656 2.513 2.423.473.766 1.518 1.781 2.322 2.256.878.517 1.284.971 1.018 1.136-.261.162.409.815 1.63 1.587 1.14.723 2.516 1.959 3.057 2.748 1.667 2.433 6.559 4.661 8.555 3.895 1.37-.526 4.156 1.581 6.347 4.8 2.531 3.72 4.074 4.769 6.626 4.506 2.596-.268 2.412.84 1.886-11.358-.401-9.31.035-11.711 2.676-14.711 2.955-3.357 10.096-6.229 17.436-7.013 6.224-.665 6.579-.823 8.415-3.73 1.961-3.105 3.668-4.747 7.129-6.855 3.429-2.089 4.017-2.927 5.173-7.378 1.174-4.521 2.202-6.844 6.683-15.108 9.548-17.606 9.747-20.424 1.898-26.905-13.403-11.067-16.022-20.922-8.503-31.985 7.513-11.055 3.294-19.086-10.513-20.011-5.367-.36-6.299-.634-9.081-2.676-4.235-3.109-9.491-3.873-13.366-1.942m9.647 1.223c1.1.515 2.99 1.572 4.2 2.351 2.525 1.624 5.135 2.227 9.64 2.227 6.962 0 12.36 4.524 12.36 10.359 0 1.824-.797 3.488-3.725 7.777-7.991 11.702-4.923 22.902 9.34 34.108 6.624 5.204 6.098 8.456-4.492 27.774-3.454 6.299-4.046 7.688-5.34 12.526-1.063 3.971-1.833 5.052-4.607 6.464-3.053 1.554-5.81 4.014-7.361 6.568-1.811 2.981-2.088 3.133-6.263 3.454-9.648.742-17.598 3.828-23.108 8.973l-1.756 1.639-1.044-.942c-.574-.519-1.989-1.369-3.144-1.89-1.753-.79-2.1-1.119-2.1-1.988 0-1.611-7.055-8.3-7.882-7.473-1.004 1.004-8.118-4.14-8.118-5.87 0-1.409-2.459-3.879-3.862-3.879-1.189 0-5.083-2.931-5.732-4.315-1.061-2.259-1.184-3.63-.339-3.763.661-.104.479-.471-1.252-2.522-1.114-1.32-2.338-2.918-2.72-3.55-.382-.633-1.403-2.064-2.268-3.181-1.168-1.508-1.663-2.602-1.921-4.25-.394-2.518-1.097-3.645-1.122-1.799l-.015 1.18-.543-1.2c-.298-.66-1.166-1.683-1.929-2.273-.959-.742-1.6-1.724-2.076-3.179-.379-1.158-1.61-3.425-2.735-5.037l-2.047-2.931.719-1.216c.696-1.178.693-1.274-.086-3.09-.473-1.104-.717-2.324-.592-2.969.151-.782.024-1.167-.444-1.346-.496-.191-.596-.564-.413-1.543.208-1.109.012-1.558-1.39-3.178-1.765-2.04-1.785-2.131-1.818-8.677-.012-2.47.076-2.919.472-2.4.681.893.628.341-.158-1.621-.551-1.377-.719-1.54-.939-.911-.235.669-.355.598-.958-.566-.814-1.575-.596-5.435.484-8.587.635-1.854.627-2.015-.225-4.4-1.44-4.031-1.546-5.898-.459-8.143.869-1.795.95-1.859 1.176-.93.193.795.386.418.95-1.861.843-3.405.98-3.483 9.042-5.151 7.17-1.482 9.712-2.11 13.991-3.455 6.072-1.908 7.294-1.257 8.739 4.654 2.949 12.068 9.638 17.827 20.133 17.333 5.608-.265 8.754-2.178 11.231-6.834.949-1.784 1.089-4.855.666-14.578-.279-6.422 5.039-9.067 11.84-5.889M54.404 126.9c2.17 1.477 2.953 2.84 2.919 5.084-.037 2.458-1.268 7.618-1.989 8.339-.294.294-.534.849-.534 1.234 0 .384-.516 1.277-1.147 1.984l-1.148 1.285-.252-1.263c-.139-.695-.253-1.781-.253-2.413 0-.74-.208-1.15-.583-1.15-1.518 0-3.646-12.437-2.35-13.733.646-.647 4.05-.243 5.337.633m129.025 96.424c2.5 2.15 1.425 6.948-1.771 7.906-4.299 1.288-7.688-1.682-6.489-5.685.907-3.027 5.795-4.342 8.26-2.221m34.771 14.731c-1.76.431-4.319.918-5.686 1.083-1.367.165-2.611.426-2.764.579-.432.432 1.075 1.877 2.012 1.93.577.033.465.13-.362.313-1.695.375 3.119 1.485 7.952 1.834 3.71.268 6.201-.809 5.585-2.415-.125-.324.429-.852 1.43-1.362 1.833-.935 1.947-1.208.902-2.155-.997-.902-4.935-.818-9.069.193m-32.12 18.195c.247.152 2.133.242 4.191.199 4.202-.088 4.625.187 3.706 2.408l-.515 1.242-3.369-.274c-2.592-.21-3.301-.161-3.07.212.23.373-.657.429-3.862.243-4.38-.254-6.076-.57-5.764-1.076.104-.167-.483-.416-1.304-.554-2.281-.381-2.737-.796-2.192-1.991l.455-.999 5.638.156c3.1.086 5.839.281 6.086.434"/><path fill="#2f2c40" d="M169.2 10.681c-20.6 3.906-37.708 8.778-44.546 12.684-.91.52-2.644 1.26-3.854 1.646-2.547.812-8.671 3.802-11 5.371-.88.592-3.031 1.841-4.78 2.774-4.166 2.223-18.372 11.698-20.42 13.619-.88.825-2.23 1.917-3 2.427-.77.509-3.651 3.102-6.402 5.762-2.752 2.66-5.9 5.468-6.996 6.24-1.097.772-2.626 2.295-3.398 3.384-.772 1.089-3.159 3.814-5.304 6.054-2.145 2.241-3.9 4.255-3.9 4.476 0 .221-1.035 1.582-2.3 3.026-3.602 4.111-10.313 13.555-12.059 16.973-.417.816-1.38 2.406-2.14 3.534-1.712 2.542-8.669 16.567-10.074 20.31-.57 1.518-1.4 3.347-1.843 4.065-1.167 1.887-6.902 19.08-8.827 26.463-2.587 9.916-4.358 19.259-4.357 22.988 0 1.566-.581 5.352-1.4 9.123l-1.4 6.446v11.403c0 11.726.155 13.246 2.073 20.351.238.88.574 3.31.748 5.4.778 9.376 2.186 17.816 3.952 23.682.417 1.385.881 3.148 1.033 3.918 1.899 9.662 15.276 41.935 19.978 48.2.495.66 1.312 2.01 1.816 3 1.484 2.918 9.597 14.788 11.68 17.088 1.056 1.166 1.92 2.277 1.92 2.469 0 .192 1.44 1.899 3.2 3.794 1.76 1.895 3.2 3.65 3.2 3.899 0 .743 13.231 13.942 15.4 15.363 1.1.72 2.72 2.064 3.6 2.985.88.922 2.41 2.229 3.4 2.906a39 39 0 0 1 3.444 2.72c1.899 1.72 13.917 9.83 16.568 11.181.983.501 2.328 1.318 2.988 1.816 1.382 1.044 15.29 7.923 18.825 9.312 1.306.513 3.725 1.469 5.375 2.125 10.82 4.297 21.273 7.356 32.4 9.482 2.31.441 5.28 1.031 6.6 1.311 3.348.711 42.042.984 45.769.324 1.447-.257 4.791-.597 7.431-.757 16.882-1.02 53.544-13.355 64.8-21.802.66-.495 2.01-1.312 3-1.816 1.72-.874 9.097-5.657 11.2-7.262.55-.419 1.8-1.342 2.779-2.05.978-.709 2.822-2.233 4.096-3.388 1.275-1.155 2.533-2.1 2.796-2.1.754 0 26.232-25.554 27.917-28 .833-1.21 1.92-2.56 2.415-3 .805-.715 2.17-2.614 8.103-11.271.932-1.36 2.442-3.7 3.356-5.2 2.023-3.322 12.938-25.171 12.938-25.898 0-.286.517-1.67 1.148-3.076.632-1.405 2.326-6.245 3.766-10.755 4.341-13.598 4.379-13.737 6.934-25.6.356-1.65.919-4.08 1.252-5.4.333-1.32.747-5.19.921-8.6.23-4.533.563-7.06 1.238-9.4 1.517-5.26 1.408-26.901-.167-33.097-.792-3.117-1.092-5.29-1.092-7.916 0-2.632-.374-5.335-1.37-9.903-.753-3.456-1.49-6.914-1.637-7.684-1.282-6.712-7.78-28.094-9.617-31.647-.322-.622-1.036-2.38-1.586-3.905-2.598-7.203-15.929-31.605-18.374-33.634-.365-.304-1.729-2.195-3.03-4.204-1.301-2.008-2.84-4.092-3.42-4.631-.58-.538-1.739-1.969-2.575-3.179-.836-1.21-2.812-3.46-4.391-5-1.579-1.54-3.552-3.79-4.386-5-1.604-2.33-5.672-6.4-6.396-6.4-.237 0-2.542-2.037-5.124-4.526-2.582-2.49-5.324-4.948-6.094-5.462-.77-.515-2.12-1.606-3-2.424-.88-.818-3.13-2.518-5-3.777-1.87-1.258-3.85-2.711-4.4-3.227-.55-.516-2.26-1.638-3.8-2.495-2.934-1.631-5.843-3.375-9.2-5.515-2.359-1.504-11.162-5.942-12.6-6.353-.55-.157-2.53-.983-4.4-1.835-7.015-3.197-15.731-6.277-23.6-8.339-5.847-1.532-17.649-4.043-19.096-4.061-.607-.008-2.184-.275-3.504-.594-3.461-.836-49.725-.76-54.2.089m46.45 10.286C300.44 31.541 363.831 100.893 369.24 189c7.193 117.163-94.281 210.207-205.04 188.008C54.949 355.112-6.034 233.189 39.036 126.769c5.233-12.359 6.041-12.808 14.256-7.941 9.617 5.698 11.016 8.587 9.13 18.852-1.074 5.846-1.815 8.551-3.28 11.979-3.37 7.885-3.152 12.858 1.035 23.541 1.206 3.079 2.765 8.151 3.626 11.8 1.959 8.306 2.665 9.837 6.295 13.665 1.635 1.724 4.387 5.205 6.116 7.735 11.612 16.999 18.253 24.089 24.524 26.181 5.374 1.793 6.752 3.087 8.639 8.11 1.844 4.91 7.516 7.82 23.223 11.919 18.319 4.779 28.233 4.587 34.025-.662 3.856-3.495 4.65-3.665 11.679-2.505 2.507.413 6.683.663 11.714.7 11.671.085 11.734.161 11.018 13.257-.406 7.427-.013 8.305 4.919 10.98 2.99 1.622 3.56 2.124 5.246 4.62 1.12 1.659 3.095 3.8 4.845 5.252a5312.84 5312.84 0 0 0 5.754 4.769c1.54 1.274 4.15 3.593 5.8 5.154 1.823 1.725 4.672 3.814 7.263 5.328 7.552 4.411 8.737 6.591 8.737 16.07 0 9.939-2.478 14.133-18.212 30.827-8.928 9.472-12.572 15.091-11.008 16.976 1.478 1.78 4.248 1.222 16.684-3.36 12.893-4.751 14.059-5.404 17.936-10.05 5.641-6.757 7.643-7.714 17.551-8.386 12.357-.839 13.054-1.08 18.917-6.535 2.232-2.076 5.74-4.9 7.795-6.275 15.875-10.62 20.574-15.635 21.541-22.991.597-4.539 1.367-6.291 4.188-9.525 3.264-3.743 4.044-5.369 4.786-9.977.815-5.068 1.222-6.179 5.8-15.839 6.904-14.568 7.039-16.614 1.333-20.274-2.372-1.521-3.955-3.526-5.975-7.564-3.286-6.571-5.765-7.469-20.136-7.295-9.555.116-10.01-.035-14.628-4.857-3.554-3.713-4.655-4.225-8.972-4.174-2.958.035-4.138.344-9.8 2.567-2.962 1.163-12.688 1.264-22.2.23-15.203-1.653-24.222-1.78-31.205-.438-2.435.468-4.469.584-7.195.412-3.416-.216-4.083-.138-6.6.774-1.54.558-4.298 1.265-6.128 1.572-5.423.908-6.04 2.567-2.28 6.131 6.39 6.057 1.664 8.844-11.965 7.056-2.607-.341-7.245-.765-10.307-.942l-5.567-.32-2.277-1.625c-1.252-.894-5.246-3.664-8.876-6.157-10.93-7.505-12.474-9.624-13.064-17.927-.547-7.713 4.82-11.753 15.664-11.791 5.094-.018 5.837.261 14.383 5.408 5.622 3.385 6.644 3.804 7.789 3.191 2.145-1.148.62-3.329-5.129-7.334-8.177-5.699-7.866-9.985 1.047-14.437 3.426-1.712 3.939-2.503 4.316-6.662.517-5.693 1.266-7.875 6.175-17.982 10.579-21.783 10.506-22.947-2.17-34.19-10.448-9.268-11.477-16.115-4.016-26.721 7.489-10.645.449-23.192-13.618-24.27-4.985-.383-5.661-.595-9.553-3.006-6.988-4.328-14.169-4.375-20.08-.13-3.596 2.583-4.22 5.274-3.062 13.216 1.228 8.425-1.703 12.695-8.027 11.694-5.676-.897-8.539-4.409-10.672-13.088C114.07 80.46 110.042 78.462 97 81.689c-6.552 1.621-20.971 3.106-24.714 2.545-4.593-.689-4.666-4.76-.15-8.397 1.712-1.378 4.73-1.62 10.923-.874 6.428.774 8.222-1.318 9.544-11.127 1.238-9.185 4.199-10.417 7.797-3.241 4.118 8.213 12.409 8.815 19.6 1.423 7.958-8.18 12.986-9.179 25.516-5.07 10.04 3.292 13.987 3.398 17.103.46 3.643-3.436 1.439-6.562-6.463-9.167-5.96-1.965-8.182-4-10.533-9.647-2.98-7.159-1.584-9.352 5.977-9.387 1.43-.006 3.662-.185 4.959-.398 4.57-.748 7.456.849 8.039 4.45.693 4.28 2.493 6.222 8.885 9.585 7.317 3.849 10.94-2.677 7.559-13.614-1.752-5.667-.764-8.045 3.582-8.62 1.087-.143 2.246-.33 2.576-.416 1.58-.407 23.837.197 28.45.773m-40.019 5.943c5.162 3.478 5.034 13.09-.174 13.09-4.248 0-7.457-3.532-7.457-8.207 0-5.005 3.822-7.45 7.631-4.883m-36.271 8.848c1.582.66 2.791 2.2 4.851 6.171 2.111 4.071 4.383 6.457 7.875 8.269 4.412 2.291 5.177 3.281 3.685 4.773-.974.974-2.839.77-10.487-1.147-13.798-3.459-17.948-2.667-25.864 4.938-4.939 4.745-7.041 5.696-10.665 4.827-6.444-1.546-7.578-8.575-2.177-13.492 9.187-8.362 27.704-16.461 32.782-14.339M319.4 57.2c1.083 1.1 1.88 2 1.77 2-.11 0-1.087-.9-2.17-2s-1.88-2-1.77-2c.11 0 1.087.9 2.17 2m-244.2-.686c0 .062-1.035 1.097-2.3 2.3L70.6 61l2.186-2.3c2.032-2.137 2.414-2.483 2.414-2.186M154 79.828c.99.391 3.123 1.574 4.739 2.63 3.16 2.065 3.243 2.087 9.869 2.657 9.178.789 13.996 5.433 13.989 13.485-.003 4.088-.355 4.987-3.995 10.2-7.16 10.253-4.548 17.72 10.666 30.487 6.239 5.236 5.608 10.354-3.487 28.272-4.343 8.557-5.153 10.466-6.208 14.63-1.395 5.505-2.168 6.751-5.494 8.854-3.051 1.929-4.7 3.519-6.383 6.157-2.819 4.417-3.292 4.695-8.888 5.233-8.166.784-15.82 4.063-17.592 7.536-1.482 2.905-.855 12.915 1.084 17.298 1.152 2.604 4.242 5.41 11.046 10.028 8.745 5.937 9.854 7.066 9.854 10.031 0 7.118-16.861 6.364-39.809-1.78-7.494-2.659-8.388-3.355-10.991-8.546-2.485-4.957-3.819-6.097-9.163-7.834-6.316-2.053-13.458-9.638-24.411-25.927-1.355-2.016-3.717-5.039-5.248-6.719-3.282-3.601-4.391-5.782-5.548-10.92-.83-3.687-2.41-8.678-5.402-17.066-2.589-7.255-2.561-11.66.106-17.092 1.812-3.692 4.066-15.335 4.066-21.006 0-5.105-3.356-9.844-9.543-13.475-9.171-5.382-9.191-10.996-.07-20.202 7.372-7.44 9.906-8.45 24.013-9.572 6.745-.536 11.958-1.343 16.6-2.57 10.668-2.818 14.234-1.248 16.187 7.128 2.394 10.267 7.534 15.599 15.062 15.623 7.29.024 10.263-5.028 8.809-14.968-.429-2.93-.506-4.744-.254-6 .199-.99.369-1.929.379-2.086.238-3.91 10.319-6.734 16.017-4.486m227.492 120.463c-.087.83-.159.249-.161-1.291-.002-1.54.069-2.219.158-1.509.088.71.09 1.97.003 2.8m-203.108 25.242c-1.958 1.585.244 4.021 2.645 2.926 1.239-.564 1.364-2.621.197-3.245-1.109-.594-1.813-.515-2.842.319m105.99 5.454c.624.322 2.1 1.639 3.28 2.926 4.879 5.318 6.058 5.708 18.346 6.053 12.098.341 12.399.48 15.843 7.326 1.045 2.077 2.724 4.56 4.144 6.126 3.851 4.25 3.988 3.478-3.33 18.782-3.054 6.388-3.513 7.646-4.069 11.154-.74 4.667-1.409 6.111-4.403 9.507-3.145 3.567-4.069 5.573-4.795 10.407-1.099 7.318-3.881 10.27-19.862 21.082-2.35 1.589-6.002 4.496-8.116 6.459-4.742 4.404-5.515 4.676-14.812 5.206-8.302.473-10.014.796-13.63 2.571-2.839 1.393-3.448 1.953-9.114 8.383-3.013 3.418-7.758 5.831-11.47 5.831-3.085 0-2.982-1.759.335-5.702a4312.38 4312.38 0 0 1 5.897-6.979c9.873-11.662 10.78-13.851 10.485-25.32-.309-12.02-1.605-14.116-12.365-19.999-1.994-1.09-4.563-2.992-6.515-4.825-1.773-1.663-5.53-4.875-8.35-7.137-4.09-3.281-5.482-4.669-6.889-6.862-1.732-2.703-2.833-3.644-6.584-5.625-3.11-1.643-3.672-3.344-3.357-10.151.238-5.139.151-6.262-1.051-13.637-1.912-11.728-.743-13.763 7.905-13.763 1.509 0 4.354-.356 6.323-.791 4.472-.989 15.038-1.091 23.491-.228 23.148 2.363 26.51 2.373 32.93.095 4.403-1.563 7.826-1.876 9.733-.889"/><path fill="#e1eaf0" d="M191 25.869c-3.278.239-3.196.041-3.226 7.852-.052 13.439-4.217 17.788-14.488 15.125-1.796-.465-3.453-.846-3.683-.846-.28 0-.334 1.227-.164 3.7.843 12.201-8.191 15.876-26.146 10.637-9.862-2.879-11.859-2.387-18.693 4.599-3.156 3.226-5.107 4.868-6.9 5.805-3.009 1.572-2.991 1.414-.452 3.874 2.576 2.498 3.356 4.226 4.552 10.091 1.509 7.398 2.819 10.366 5.094 11.543 2.761 1.427 3.669-.272 2.805-5.254-.809-4.662-.523-10.692.618-13.035 4.57-9.385 19.763-11.66 31.185-4.67 3.147 1.926 3.485 2.037 7.2 2.373 10.606.958 17.459 6.009 20.496 15.109 2.076 6.219.963 11.627-3.848 18.697-5.375 7.899-3.825 12.34 7.442 21.324 10.26 8.183 10.482 15.78 1.051 35.932l-3.779 8.075c-1.672 3.572-2.103 5.439-2.309 10-.36 7.973-1.031 9.403-5.466 11.651-1.996 1.012-2.404 1.528-1.791 2.267.56.675 4.217 2.561 5.302 2.734 4.591.734 7.638.923 15 .933 4.73.006 9.23-.151 10-.348 2.925-.748 4.4-.82 4.4-.212 0 .665.825.723 2.8.198.77-.204 2.165-.57 3.1-.813.976-.253 1.7-.678 1.7-.998 0-.644.346-.772 4.366-1.61 1.631-.34 4.511-1.311 6.4-2.158 1.889-.847 3.884-1.676 4.434-1.843.55-.167 1.675-.644 2.5-1.06 1.255-.633 1.5-.66 1.5-.163 0 .816 2.638-.724 2.899-1.692.102-.377 1.606-1.487 3.343-2.466 1.737-.979 4.213-2.554 5.502-3.5 1.388-1.018 2.782-1.72 3.419-1.72.734 0 1.575-.519 2.656-1.64.869-.902 2.535-2.184 3.702-2.85 1.166-.665 2.876-2.12 3.8-3.233a148.29 148.29 0 0 1 3.9-4.45c4.731-5.17 5.579-6.312 5.579-7.512 0-1.555 3.564-7.148 4.4-6.905.793.232 3.233-3.564 5.031-7.827.76-1.803 1.726-3.761 2.145-4.35.42-.589 1.245-2.745 1.833-4.79.589-2.045 1.487-4.647 1.997-5.781 1.183-2.63 2.536-10.203 1.895-10.6-.321-.198-.345-1.131-.083-3.27.495-4.046.704-4.792 1.343-4.792 1.165 0 1.546-7.151.439-8.257-.379-.379-.6-1.364-.6-2.672-.001-3.432-.793-10.719-1.436-13.206-.391-1.509-.469-2.499-.222-2.8.666-.81-.402-8.665-1.178-8.665-.572 0-1.535-2.225-1.32-3.048.522-1.994-7.838-21.056-8.655-19.734-.162.263-.98-.593-1.993-2.086-.945-1.393-2.14-3.041-2.657-3.663-.516-.622-.939-1.552-.939-2.068 0-2.043-7.035-7.136-15.6-11.292-13.127-6.37-26.172-10.468-41.628-13.077-6.26-1.057-22.979-1.972-28.572-1.563m-36.7 9.571c-4.193 1.289.413 7.341 5.6 7.356 1.556.005 1.543.103.311-2.214-.544-1.024-1.105-2.477-1.247-3.231-.444-2.366-1.618-2.848-4.664-1.911m-8.147 50.9c-1.638 1.03-1.859 2.123-1.322 6.543 1.011 8.309-.071 12.407-4.966 18.819l-2.368 3.102.282 2.493c.332 2.934 1.81 7.518 4.489 13.923 2.058 4.922 2.632 5.945 4.924 8.78.8.99 2.153 2.681 3.006 3.758 1.276 1.612 1.595 1.832 1.8 1.247.29-.826 2.914 2.114 2.712 3.037-.143.651 5.333 4.823 5.999 4.569.28-.106 1.687.613 3.126 1.598 1.981 1.357 2.396 1.791 1.71 1.791-1.44 0-.375.743 2.626 1.832 1.466.533 3.473.968 4.46.968 1.95 0 4.569.905 4.569 1.58 0 .605 1.452.517 2.777-.168 2.658-1.375 7.223-9.267 7.223-12.489 0-2.014.182-1.793-6.913-8.404-11.794-10.99-13.913-22.575-6.153-33.64 4.364-6.222 4.596-8.887 1.081-12.403-2.295-2.294-3.316-2.61-9.415-2.909-6.071-.299-7.399-.658-11.553-3.126-2.972-1.765-6.155-2.12-8.094-.901"/><path fill="#8ed3b8" d="M131.798 41.365c-14.453 5.567-27.164 15.474-21.635 16.861 1.402.352 2.86-.606 6.411-4.213 4.984-5.064 10.283-7.022 18.751-6.929 5.41.06 5.545-.027 4.458-2.872-1.509-3.951-3.384-4.62-7.985-2.847m14.257 41.628c-3.805.909-4.69 2.232-4.495 6.718.423 9.723.283 12.794-.666 14.578-2.477 4.656-5.623 6.569-11.231 6.834-10.495.494-17.184-5.265-20.133-17.333-1.445-5.911-2.667-6.562-8.739-4.654-4.279 1.345-6.821 1.973-13.991 3.455-8.062 1.668-8.199 1.746-9.042 5.151-.564 2.279-.757 2.656-.95 1.861-.226-.929-.307-.865-1.176.93-1.087 2.245-.981 4.112.459 8.143.852 2.385.86 2.546.225 4.4-1.08 3.152-1.298 7.012-.484 8.587.603 1.164.723 1.235.958.566.22-.629.388-.466.939.911.786 1.962.839 2.514.158 1.621-.396-.519-.484-.07-.472 2.4.033 6.546.053 6.637 1.818 8.677 1.402 1.62 1.598 2.069 1.39 3.178-.183.979-.083 1.352.413 1.543.468.179.595.564.444 1.346-.125.645.119 1.865.592 2.969.779 1.816.782 1.912.086 3.09l-.719 1.216 2.047 2.931c1.125 1.612 2.356 3.879 2.735 5.037.476 1.455 1.117 2.437 2.076 3.179.763.59 1.631 1.613 1.929 2.273l.543 1.2.015-1.18c.025-1.846.728-.719 1.122 1.799.258 1.648.753 2.742 1.921 4.25.865 1.117 1.886 2.548 2.268 3.181.382.632 1.606 2.23 2.72 3.55 1.731 2.051 1.913 2.418 1.252 2.522-.845.133-.722 1.504.339 3.763.649 1.384 4.543 4.315 5.732 4.315 1.403 0 3.862 2.47 3.862 3.879 0 1.73 7.114 6.874 8.118 5.87.827-.827 7.882 5.862 7.882 7.473 0 .869.347 1.198 2.1 1.988 1.155.521 2.57 1.371 3.144 1.89l1.044.942 1.756-1.639c5.51-5.145 13.46-8.231 23.108-8.973 4.175-.321 4.452-.473 6.263-3.454 1.551-2.554 4.308-5.014 7.361-6.568 2.774-1.412 3.544-2.493 4.607-6.464 1.294-4.838 1.886-6.227 5.34-12.526 3.737-6.818 7.106-13.516 7.452-14.818.146-.55-.423.26-1.266 1.8-4.596 8.403-10.596 15.8-12.816 15.8-1.745 0-8.121-2.201-11.785-4.069-1.819-.928-3.511-1.649-3.759-1.603-.248.047-1.013-.44-1.7-1.082-1.524-1.424-3.877-2.846-4.708-2.846-.337 0-1.462-.855-2.499-1.9-1.038-1.045-2.416-2.368-3.064-2.941-5.999-5.3-12.155-13.433-14.009-18.511-.492-1.346-1.42-3.442-2.063-4.658-.642-1.215-1.476-3.465-1.853-5-.376-1.534-.961-3.663-1.299-4.73-.846-2.669-.961-3.272-1.201-6.331-.246-3.139-.266-3.12 4.518-4.373 10.079-2.64 13.293-8.937 11.613-22.756-.66-5.426 4.252-8.558 10.516-6.704.696.206.635.131-.2-.246-1.886-.851-4.215-1.014-6.545-.457"/><path fill="#2b6151" d="M187.2 20.194c-.33.086-1.489.273-2.576.416-4.346.575-5.334 2.953-3.582 8.62 3.381 10.937-.242 17.463-7.559 13.614-6.392-3.363-8.192-5.305-8.885-9.585-.583-3.601-3.469-5.198-8.039-4.45-1.297.213-3.529.392-4.959.398-7.561.035-8.957 2.228-5.977 9.387 2.351 5.647 4.573 7.682 10.533 9.647 7.902 2.605 10.106 5.731 6.463 9.167-3.116 2.938-7.063 2.832-17.103-.46-12.53-4.109-17.558-3.11-25.516 5.07-7.191 7.392-15.482 6.79-19.6-1.423-3.598-7.176-6.559-5.944-7.797 3.241-1.322 9.809-3.116 11.901-9.544 11.127-6.193-.746-9.211-.504-10.923.874-4.516 3.637-4.443 7.708.15 8.397 3.743.561 18.162-.924 24.714-2.545 13.042-3.227 17.07-1.229 19.783 9.816 2.133 8.679 4.996 12.191 10.672 13.088 6.324 1.001 9.255-3.269 8.027-11.694-1.158-7.942-.534-10.633 3.062-13.216 5.911-4.245 13.092-4.198 20.08.13 3.892 2.411 4.568 2.623 9.553 3.006 14.067 1.078 21.107 13.625 13.618 24.27-7.461 10.606-6.432 17.453 4.016 26.721 12.676 11.243 12.749 12.407 2.17 34.19-4.909 10.107-5.658 12.289-6.175 17.982-.377 4.159-.89 4.95-4.316 6.662-8.913 4.452-9.224 8.738-1.047 14.437 5.749 4.005 7.274 6.186 5.129 7.334-1.145.613-2.167.194-7.789-3.191-8.546-5.147-9.289-5.426-14.383-5.408-10.844.038-16.211 4.078-15.664 11.791.59 8.303 2.134 10.422 13.064 17.927 3.63 2.493 7.624 5.263 8.876 6.157l2.277 1.625 5.567.32c3.062.177 7.7.601 10.307.942 13.629 1.788 18.355-.999 11.965-7.056-3.76-3.564-3.143-5.223 2.28-6.131 1.83-.307 4.588-1.014 6.128-1.572 2.517-.912 3.184-.99 6.6-.774 2.726.172 4.76.056 7.195-.412 6.983-1.342 16.002-1.215 31.205.438 9.512 1.034 19.238.933 22.2-.23 5.662-2.223 6.842-2.532 9.8-2.567 4.317-.051 5.418.461 8.972 4.174 4.618 4.822 5.073 4.973 14.628 4.857 14.371-.174 16.85.724 20.136 7.295 2.02 4.038 3.603 6.043 5.975 7.564 5.706 3.66 5.571 5.706-1.333 20.274-4.578 9.66-4.985 10.771-5.8 15.839-.742 4.608-1.522 6.234-4.786 9.977-2.821 3.234-3.591 4.986-4.188 9.525-.967 7.356-5.666 12.371-21.541 22.991-2.055 1.375-5.563 4.199-7.795 6.275-5.863 5.455-6.56 5.696-18.917 6.535-9.908.672-11.91 1.629-17.551 8.386-3.877 4.646-5.043 5.299-17.936 10.05-21.328 7.859-22.735 4.483-5.676-13.616 15.734-16.694 18.212-20.888 18.212-30.827 0-9.479-1.185-11.659-8.737-16.07-2.591-1.514-5.44-3.603-7.263-5.328-1.65-1.561-4.26-3.88-5.8-5.154a5312.84 5312.84 0 0 1-5.754-4.769c-1.75-1.452-3.725-3.593-4.845-5.252-1.686-2.496-2.256-2.998-5.246-4.62-4.932-2.675-5.325-3.553-4.919-10.98.716-13.096.653-13.172-11.018-13.257-5.031-.037-9.207-.287-11.714-.7-7.029-1.16-7.823-.99-11.679 2.505-5.792 5.249-15.706 5.441-34.025.662-15.707-4.099-21.379-7.009-23.223-11.919-1.887-5.023-3.265-6.317-8.639-8.11-6.271-2.092-12.912-9.182-24.524-26.181-1.729-2.53-4.481-6.011-6.116-7.735-3.63-3.828-4.336-5.359-6.295-13.665-.861-3.649-2.42-8.721-3.626-11.8-4.187-10.683-4.405-15.656-1.035-23.541 1.465-3.428 2.206-6.133 3.28-11.979 1.886-10.265.487-13.154-9.13-18.852-8.215-4.867-9.023-4.418-14.256 7.941-45.07 106.42 15.913 228.343 125.164 250.239 104.567 20.958 202.218-60.682 205.265-171.608C372.241 104.349 296.032 21.45 199.2 20.188c-6.27-.081-11.67-.079-12 .006m21.62 1.023c88.741 6.882 156.869 81.231 159.427 173.983 3.247 117.762-102.36 206.78-212.047 178.737C67.289 351.206 10.841 259.604 28.435 166.6c3.879-20.506 12.615-45.808 16.837-48.766 2.544-1.781 13.903 4.982 15.953 9.499 1.621 3.569.095 14.235-3.078 21.509-3.756 8.611-3.502 13.563 1.326 25.881.975 2.488 2.383 7.18 3.129 10.428 2.002 8.721 2.525 9.885 6.258 13.914 1.758 1.898 4.294 5.09 5.633 7.093 11.646 17.41 19.242 25.512 25.907 27.632 4.873 1.551 5.979 2.592 7.772 7.317 1.993 5.252 6.158 7.59 21.447 12.039 19.346 5.631 31.633 5.444 38.388-.584 3.284-2.93 3.539-2.967 12.193-1.774 1.54.212 5.992.392 9.894.399l7.093.013 1.228 1.1c1.622 1.453 2.082 3.582 1.591 7.363-1.293 9.959-.318 12.793 5.478 15.924 2.299 1.241 3.023 1.915 4.716 4.381 1.1 1.603 2.918 3.661 4.041 4.573 5.222 4.245 9.425 7.858 12.368 10.633 1.97 1.858 4.85 3.995 7.462 5.536 7.469 4.407 8.129 5.647 8.129 15.29v6.6l-1.256 2.402c-2.106 4.027-8.481 11.869-16.841 20.718-10.29 10.892-13.194 16.05-10.534 18.711 2.205 2.205 4.751 1.726 19.231-3.612 13.061-4.816 13.348-4.986 17.809-10.616 4.751-5.994 7.089-6.91 19.391-7.592 8.876-.492 10.247-1.026 15.898-6.193 2.146-1.963 6.692-5.497 10.102-7.855 15.494-10.714 18.963-14.606 20.152-22.603.668-4.492 1.396-6.053 4.434-9.499 2.949-3.346 3.687-4.894 4.382-9.195.9-5.565 1.213-6.43 6.021-16.666 6.686-14.232 6.971-17.233 1.963-20.692-3.499-2.417-4.473-3.513-6.345-7.137-4.163-8.06-6.163-8.878-21.207-8.678-9.624.129-10.314-.089-14.226-4.491-4.316-4.856-10.557-5.892-17.464-2.899-5.506 2.386-11.125 2.624-26.31 1.112-14.799-1.474-23-1.538-29.755-.232-1.185.23-4.385.417-7.112.417-4.34 0-5.243.12-7.252.966-1.261.531-3.697 1.161-5.413 1.399-6.233.867-7.268 3.284-3.268 7.635 4.767 5.185 1.014 7.294-10 5.622-1.54-.234-5.535-.598-8.878-.809-7.011-.443-7.694-.666-11.987-3.918-1.724-1.306-5.353-3.854-8.064-5.663-7.902-5.269-9.495-7.135-10.435-12.222-1.416-7.656.062-10.672 6.289-12.838 8.411-2.925 12.635-2.015 23.784 5.125 3.48 2.229 5.377 2.837 6.723 2.154 3.132-1.589 1.587-4.604-4.432-8.651-7.808-5.25-7.745-9.185.212-13.181 3.986-2.001 4.443-2.72 5.003-7.868.631-5.796.786-6.23 6.173-17.351 10.251-21.16 10.287-24.521.35-32.905-12.5-10.547-14.15-16.639-7.246-26.752 8.414-12.323 1.854-25.506-13.33-26.788-4.042-.342-4.858-.544-7.162-1.773-8.667-4.624-12.32-5.501-17.495-4.201-7.313 1.839-10.401 5.716-9.96 12.503.755 11.624.763 10.821-.117 12.22-2.41 3.829-7.892 3.911-11.763.176-2.185-2.108-3.277-4.51-4.708-10.356-1.269-5.182-1.921-6.917-3.105-8.267-2.45-2.791-9.893-3.509-17.452-1.685-8.407 2.03-22.515 3.176-25.213 2.048-2.852-1.191-1.129-5.336 2.85-6.855 1.706-.652 2.016-.651 5.951.024 8.976 1.538 11.312-.353 12.826-10.389 1.29-8.547 3.124-9.634 6.137-3.639 1.575 3.136 3.102 4.428 6.472 5.477 6.076 1.891 9.461.793 15.205-4.933 7.528-7.503 12.034-8.304 24.172-4.3 10.99 3.625 16.748 3.136 19.214-1.633 1.922-3.716-.275-6.339-7.377-8.808-6.289-2.186-8.809-4.478-10.854-9.869-1.986-5.236-1.099-6.828 4.085-7.332 11.907-1.158 12.085-1.103 13.341 4.136.879 3.665 3.127 6.047 8.191 8.685 9.699 5.05 13.643-1.114 9.773-15.274-1.153-4.218.036-6.082 4.272-6.697 3.242-.471 16.678-.469 22.775.004m-38.733 5.407c-3.029 2.122-2.831 8.227.365 11.251 4.894 4.632 10.147 1.464 8.748-5.276-1.055-5.082-5.876-8.242-9.113-5.975m5.712 2.295c3.279 3.279 2.777 9.481-.769 9.481-3.51 0-6.603-4.465-5.669-8.186.729-2.906 4.141-3.592 6.438-1.295M131 36.568C115.292 41.887 103.2 50.6 103.2 56.6c0 8.607 8.352 9.721 16.22 2.162 7.916-7.605 12.066-8.397 25.864-4.938 7.648 1.917 9.513 2.121 10.487 1.147 1.492-1.492.727-2.482-3.685-4.773-3.492-1.812-5.764-4.198-7.875-8.269-3.714-7.163-5.614-7.933-13.211-5.361m8.127.794c.665.344 1.771 1.781 2.849 3.7.97 1.726 2.428 4.137 3.241 5.357 3.831 5.749 3.476 6.205-3.768 4.841-10.42-1.962-16.481-.328-22.95 6.185-4.618 4.649-7.098 5.718-10.231 4.409-4.934-2.061-4.739-7.56.414-11.657 10.863-8.64 26.12-15.071 30.445-12.835M319 57.2c1.083 1.1 2.06 2 2.17 2 .11 0-.687-.9-1.77-2s-2.06-2-2.17-2c-.11 0 .687.9 1.77 2M72.786 58.7 70.6 61l2.3-2.186c2.137-2.032 2.483-2.414 2.186-2.414-.062 0-1.097 1.035-2.3 2.3M144.6 79.333c-3.04 1.011-6.536 3.643-6.617 4.981-.01.157-.18 1.096-.379 2.086-.252 1.256-.175 3.07.254 6 1.454 9.94-1.519 14.992-8.809 14.968-7.528-.024-12.668-5.356-15.062-15.623-1.953-8.376-5.519-9.946-16.187-7.128-4.642 1.227-9.855 2.034-16.6 2.57-14.107 1.122-16.641 2.132-24.013 9.572-9.121 9.206-9.101 14.82.07 20.202 6.187 3.631 9.543 8.37 9.543 13.475 0 5.671-2.254 17.314-4.066 21.006-2.667 5.432-2.695 9.837-.106 17.092 2.992 8.388 4.572 13.379 5.402 17.066 1.157 5.138 2.266 7.319 5.548 10.92 1.531 1.68 3.893 4.703 5.248 6.719 10.953 16.289 18.095 23.874 24.411 25.927 5.344 1.737 6.678 2.877 9.163 7.834 2.603 5.191 3.497 5.887 10.991 8.546 22.948 8.144 39.809 8.898 39.809 1.78 0-2.965-1.109-4.094-9.854-10.031-6.804-4.618-9.894-7.424-11.046-10.028-1.939-4.383-2.566-14.393-1.084-17.298 1.772-3.473 9.426-6.752 17.592-7.536 5.596-.538 6.069-.816 8.888-5.233 1.683-2.638 3.332-4.228 6.383-6.157 3.326-2.103 4.099-3.349 5.494-8.854 1.055-4.164 1.865-6.073 6.208-14.63 9.095-17.918 9.726-23.036 3.487-28.272-15.214-12.767-17.826-20.234-10.666-30.487 3.64-5.213 3.992-6.112 3.995-10.2.007-8.052-4.811-12.696-13.989-13.485-6.626-.57-6.709-.592-9.869-2.657-5.051-3.3-10.194-4.436-14.139-3.125m8.283 1.46c1.412.436 3.574 1.514 4.806 2.396 3.129 2.241 3.879 2.466 9.346 2.811 8.43.532 12.737 3.522 14.395 9.996 1.041 4.061.409 6.042-4.004 12.551-6.709 9.895-3.944 19.189 8.853 29.753 8.292 6.846 8.144 9.597-1.538 28.42-4.621 8.986-5.332 10.641-6.346 14.769-1.287 5.238-1.835 6.183-4.627 7.972-4.198 2.69-5.723 4.123-7.407 6.958-2.213 3.725-2.649 3.965-8.416 4.635-13.78 1.601-19.388 5.824-19.305 14.537.117 12.269 2.025 15.632 13.17 23.209 8.508 5.785 9.829 7.26 8.422 9.407-3.449 5.265-41.703-3.331-44.816-10.071-2.874-6.222-3.105-6.593-4.944-7.941-1.03-.755-3.359-1.914-5.176-2.577-1.817-.663-3.991-1.556-4.83-1.985-3.143-1.603-10.68-10.496-18.675-22.033-2.362-3.41-5.406-7.38-6.763-8.822-2.891-3.073-4.041-5.321-5.103-9.978-.799-3.502-2.556-9.022-5.537-17.4-2.425-6.817-2.443-9.825-.09-14.731 1.757-3.66 1.886-4.198 3.559-14.869 1.673-10.668-.201-16.386-6.781-20.695l-4.476-2.932c-6.017-3.943-5.4-8.488 2.2-16.221 6.893-7.015 8.727-7.763 22.4-9.148 8.978-.909 10.912-1.229 17.143-2.834 9.844-2.535 12.328-1.35 14.497 6.917 2.544 9.696 6.338 13.996 13.678 15.502 9.285 1.904 14.266-4.478 12.477-15.989-1.512-9.736 4.278-14.575 13.888-11.607M381.331 199c.002 1.54.074 2.121.161 1.291.087-.83.085-2.09-.003-2.8-.089-.71-.16-.031-.158 1.509m-202.423 24.891c-2.266.412-3.178 3.476-1.526 5.127 2.122 2.123 5.818.638 5.818-2.338 0-2.03-1.85-3.232-4.292-2.789m2.318 1.323c1.167.624 1.042 2.681-.197 3.245-2.401 1.095-4.603-1.341-2.645-2.926 1.029-.834 1.733-.913 2.842-.319m93.415 6.662c-6.42 2.278-9.782 2.268-32.93-.095-8.453-.863-19.019-.761-23.491.228-1.969.435-4.814.791-6.323.791-8.648 0-9.817 2.035-7.905 13.763 1.202 7.375 1.289 8.498 1.051 13.637-.315 6.807.247 8.508 3.357 10.151 3.751 1.981 4.852 2.922 6.584 5.625 1.407 2.193 2.799 3.581 6.889 6.862 2.82 2.262 6.577 5.474 8.35 7.137 1.952 1.833 4.521 3.735 6.515 4.825 10.76 5.883 12.056 7.979 12.365 19.999.295 11.469-.612 13.658-10.485 25.32a4312.38 4312.38 0 0 0-5.897 6.979c-3.317 3.943-3.42 5.702-.335 5.702 3.712 0 8.457-2.413 11.47-5.831 5.666-6.43 6.275-6.99 9.114-8.383 3.616-1.775 5.328-2.098 13.63-2.571 9.297-.53 10.07-.802 14.812-5.206 2.114-1.963 5.766-4.87 8.116-6.459 15.981-10.812 18.763-13.764 19.862-21.082.726-4.834 1.65-6.84 4.795-10.407 2.994-3.396 3.663-4.84 4.403-9.507.556-3.508 1.015-4.766 4.069-11.154 7.318-15.304 7.181-14.532 3.33-18.782-1.42-1.566-3.099-4.049-4.144-6.126-3.444-6.846-3.745-6.985-15.843-7.326-12.288-.345-13.467-.735-18.346-6.053-3.749-4.089-6.167-4.467-13.013-2.037m8.362 1.27c.985.447 2.273 1.596 3.342 2.983 3.46 4.484 7.874 6.268 15.542 6.278 11.415.015 14.643.882 15.978 4.292.404 1.033 1.68 3.752 2.835 6.044 2.37 4.702 2.443 5.214 1.228 8.616-1.392 3.894-2.75 5.595-5.292 6.626-1.837.746-2.275 1.122-2.658 2.281-.252.763-.559 1.287-.682 1.163-.124-.123-.423.174-.666.661-.244.489-1.724 1.516-3.311 2.297-1.579.777-3.252 1.905-3.718 2.505-.466.601-.972 1.056-1.124 1.012-.444-.13-5.581 2.417-5.892 2.921-.156.252.234.148.866-.231l1.149-.689-.989.816c-.544.449-1.13.729-1.303.622-.172-.106-.844.184-1.493.646-.649.462-1.745 1.037-2.436 1.278-.748.261-1.073.551-.803.718.257.159-.244.488-1.16.763-.887.266-2.035.939-2.551 1.495-.999 1.078-3.093 1.732-5.591 1.747-1.939.013-2.884.522-4.874 2.625-1.367 1.444-2.008 1.782-4.4 2.315-2.561.57-2.971.809-4.8 2.798-1.795 1.951-2.203 2.195-3.986 2.383-1.522.161-2.184.458-2.832 1.27-.541.679-1.746 1.341-3.349 1.84-4.601 1.431-5.907 1.047-10.952-3.221-1.664-1.408-4.666-3.234-8.34-5.073-4.442-2.223-6.375-3.453-8.541-5.434-1.54-1.409-4.78-4.052-7.2-5.875-5.522-4.159-6.752-5.311-8.405-7.871-1.507-2.335-3.234-3.777-5.696-4.758-3.389-1.349-3.69-2.12-3.631-9.31.044-5.513-.103-7.082-1.209-12.864-2.051-10.726-1.471-12.012 5.421-12.018 1.915-.002 4.433-.344 6.52-.885 3.888-1.01 16.12-1.21 22.2-.363 3.094.43 15.655 1.72 21.8 2.238 4.388.37 9.599-.353 14.218-1.973 4.623-1.621 4.675-1.627 6.785-.668"/><path fill="#418070" d="M186.045 21.213c-4.236.615-5.425 2.479-4.272 6.697 3.87 14.16-.074 20.324-9.773 15.274-5.064-2.638-7.312-5.02-8.191-8.685-1.256-5.239-1.434-5.294-13.341-4.136-5.184.504-6.071 2.096-4.085 7.332 2.045 5.391 4.565 7.683 10.854 9.869 7.102 2.469 9.299 5.092 7.377 8.808-2.466 4.769-8.224 5.258-19.214 1.633-12.138-4.004-16.644-3.203-24.172 4.3-5.744 5.726-9.129 6.824-15.205 4.933-3.37-1.049-4.897-2.341-6.472-5.477-3.013-5.995-4.847-4.908-6.137 3.639-1.514 10.036-3.85 11.927-12.826 10.389-3.935-.675-4.245-.676-5.951-.024-3.979 1.519-5.702 5.664-2.85 6.855 2.698 1.128 16.806-.018 25.213-2.048 7.559-1.824 15.002-1.106 17.452 1.685 1.184 1.35 1.836 3.085 3.105 8.267 1.431 5.846 2.523 8.248 4.708 10.356 3.871 3.735 9.353 3.653 11.763-.176.88-1.399.872-.596.117-12.22-.441-6.787 2.647-10.664 9.96-12.503 5.175-1.3 8.828-.423 17.495 4.201 2.304 1.229 3.12 1.431 7.162 1.773 15.184 1.282 21.744 14.465 13.33 26.788-6.904 10.113-5.254 16.205 7.246 26.752 9.937 8.384 9.901 11.745-.35 32.905-5.387 11.121-5.542 11.555-6.173 17.351-.56 5.148-1.017 5.867-5.003 7.868-7.957 3.996-8.02 7.931-.212 13.181 6.019 4.047 7.564 7.062 4.432 8.651-1.346.683-3.243.075-6.723-2.154-11.149-7.14-15.373-8.05-23.784-5.125-6.227 2.166-7.705 5.182-6.289 12.838.94 5.087 2.533 6.953 10.435 12.222 2.711 1.809 6.34 4.357 8.064 5.663 4.293 3.252 4.976 3.475 11.987 3.918 3.343.211 7.338.575 8.878.809 11.014 1.672 14.767-.437 10-5.622-4-4.351-2.965-6.768 3.268-7.635 1.716-.238 4.152-.868 5.413-1.399 2.009-.846 2.912-.966 7.252-.966 2.727 0 5.927-.187 7.112-.417 6.755-1.306 14.956-1.242 29.755.232 15.185 1.512 20.804 1.274 26.31-1.112 6.907-2.993 13.148-1.957 17.464 2.899 3.912 4.402 4.602 4.62 14.226 4.491 15.044-.2 17.044.618 21.207 8.678 1.872 3.624 2.846 4.72 6.345 7.137 5.008 3.459 4.723 6.46-1.963 20.692-4.808 10.236-5.121 11.101-6.021 16.666-.695 4.301-1.433 5.849-4.382 9.195-3.038 3.446-3.766 5.007-4.434 9.499-1.189 7.997-4.658 11.889-20.152 22.603-3.41 2.358-7.956 5.892-10.102 7.855-5.651 5.167-7.022 5.701-15.898 6.193-12.302.682-14.64 1.598-19.391 7.592-4.461 5.63-4.748 5.8-17.809 10.616-14.48 5.338-17.026 5.817-19.231 3.612-2.66-2.661.244-7.819 10.534-18.711 8.36-8.849 14.735-16.691 16.841-20.718l1.256-2.402V316c0-9.643-.66-10.883-8.129-15.29-2.612-1.541-5.492-3.678-7.462-5.536-2.943-2.775-7.146-6.388-12.368-10.633-1.123-.912-2.941-2.97-4.041-4.573-1.693-2.466-2.417-3.14-4.716-4.381-5.796-3.131-6.771-5.965-5.478-15.924.491-3.781.031-5.91-1.591-7.363l-1.228-1.1-7.093-.013c-3.902-.007-8.354-.187-9.894-.399-8.654-1.193-8.909-1.156-12.193 1.774-6.755 6.028-19.042 6.215-38.388.584-15.289-4.449-19.454-6.787-21.447-12.039-1.793-4.725-2.899-5.766-7.772-7.317-6.665-2.12-14.261-10.222-25.907-27.632-1.339-2.003-3.875-5.195-5.633-7.093-3.733-4.029-4.256-5.193-6.258-13.914-.746-3.248-2.154-7.94-3.129-10.428-4.828-12.318-5.082-17.27-1.326-25.881 1.461-3.351 1.95-5.096 3.087-11.041 1.907-9.96.605-12.636-8.708-17.901-7.425-4.197-7.77-3.981-12.766 8.004C-2.924 230.3 52.509 347.427 156.2 373.937 265.887 401.98 371.494 312.962 368.247 195.2c-2.558-92.752-70.686-167.101-159.427-173.983-6.097-.473-19.533-.475-22.775-.004m28.555 1.773C297.444 33.143 359.671 99.975 366.007 185.6c9.428 127.414-107.785 222.831-223.771 182.161C48.993 335.066 2.203 225.572 40.617 129.959c4.633-11.534 5.03-11.832 11.287-8.493 8.65 4.616 9.651 6.987 7.465 17.688-.64 3.135-1.648 6.485-2.661 8.846-3.699 8.623-3.654 14.872.178 24.8 2.714 7.03 3.073 8.181 4.513 14.451 1.786 7.78 2.584 9.458 6.459 13.582 1.739 1.852 4.889 5.887 7 8.967 11.419 16.66 17.596 23.123 24.314 25.439 4.728 1.629 5.974 2.749 7.431 6.681 2.129 5.745 6.555 8.36 21.175 12.51 21.885 6.212 34.029 6.084 41.227-.435 2.697-2.442 3.477-2.646 7.772-2.027 1.882.271 7.023.588 11.423.704 10.448.276 10.813.525 10.157 6.928-1.155 11.272-.113 14.397 5.847 17.533 2.418 1.271 3.036 1.84 4.642 4.267 1.435 2.169 3.104 3.833 7.403 7.382 3.053 2.52 6.864 5.887 8.47 7.483 2.646 2.631 5.238 4.468 10.526 7.46 4.399 2.489 5.287 4.731 5.091 12.851l-.136 5.624-1.473 2.6c-2.047 3.611-7.095 9.825-14.3 17.6-13.035 14.069-16.187 19.823-12.82 23.408 2.88 3.065 7.144 2.358 24.193-4.008 10.867-4.058 11.804-4.628 15.716-9.565 5.119-6.458 6.263-6.914 19.684-7.845 9.309-.645 9.913-.884 15.614-6.167 2.327-2.156 6.849-5.687 10.185-7.951 15.597-10.589 19.533-15.01 20.966-23.552.816-4.861.979-5.201 4.332-9.046 3.111-3.567 3.6-4.658 4.518-10.074.868-5.121 1.629-7.151 6.568-17.53 6.867-14.431 6.704-17.664-1.17-23.27-1.617-1.151-2.365-2.146-4.209-5.6-4.347-8.142-4.999-8.428-20.004-8.758-12.666-.279-11.728-.018-16-4.45-4.906-5.089-11.048-5.906-19.2-2.554L269 227l-8.2-.031c-4.682-.018-11.031-.326-14.8-.719-11.338-1.18-20.449-1.276-26.991-.283-4.147.629-6.47.782-9 .592-3.125-.235-3.709-.154-7.009.972-1.98.675-4.5 1.337-5.6 1.472-6.597.809-8.961 5.72-4.618 9.593 3.776 3.366.833 4.728-7.833 3.624-2.832-.36-7.407-.801-10.166-.979-5.341-.345-5.867-.511-8.983-2.827-1.1-.818-4.61-3.248-7.8-5.401-9.774-6.596-10.699-7.702-11.599-13.885-.829-5.692.558-7.895 6.183-9.818 7.226-2.47 11.468-1.479 21.999 5.136 5.756 3.616 8.994 3.747 10.268.415.987-2.583-1.062-5.506-6.423-9.162-6.833-4.66-6.782-7.311.212-10.953 4.487-2.336 4.809-2.861 5.528-8.992.672-5.726 1.346-7.602 6.231-17.354 10.491-20.942 10.267-25.295-1.824-35.381-9.845-8.213-11.587-14.638-6.092-22.465 4.771-6.793 5.827-11.315 3.943-16.885-2.675-7.912-8.664-12.388-17.471-13.059-4.435-.337-5.717-.73-8.87-2.716-8.156-5.138-17.919-4.817-24.129.793-3.306 2.987-3.934 5.779-2.948 13.119.992 7.386.239 9.774-3.291 10.436-5.112.959-8.659-3.112-11.076-12.709-.753-2.988-1.638-5.95-1.967-6.583-2.509-4.825-9.831-6.057-21.074-3.547-1.43.319-3.68.586-5 .593-1.32.007-4.447.37-6.948.808-7.465 1.306-10.852 1.01-10.852-.948 0-2.723 3.209-3.523 8.988-2.24 7.745 1.719 11.168-1.035 12.833-10.325.377-2.099.978-4.095 1.385-4.598l.72-.889 2.741 2.857c6.742 7.029 14.687 6.553 22.733-1.362 7.031-6.916 11.235-7.875 20.6-4.699 13.363 4.532 20.966 3.9 23.173-1.926 1.834-4.84-.676-7.796-9.076-10.687-4.775-1.644-7.364-3.913-8.81-7.723-2.081-5.481-1.433-6.163 6.737-7.086 6.082-.687 6.587-.361 8.145 5.266 1.166 4.214 9.638 9.956 14.686 9.956 5.781 0 8.278-6.897 5.985-16.532-1.813-7.619-1.2-7.921 15.56-7.671 5.893.087 12.396.421 15.4.789m-44.19 5.404c-3.075 3.075.125 10.01 4.62 10.01 3.546 0 4.048-6.202.769-9.481-1.603-1.603-4.073-1.845-5.389-.529m4.599 2.568c2.243 3.423.082 6.594-2.64 3.873-1.254-1.255-1.6-3.44-.689-4.351.831-.831 2.642-.571 3.329.478m-44.409 7.19c-10.596 3.85-22.524 11.084-25.017 15.172-1.855 3.043-.553 7.181 2.685 8.534 3.133 1.309 5.613.24 10.231-4.409 6.469-6.513 12.53-8.147 22.95-6.185 7.244 1.364 7.599.908 3.768-4.841-.813-1.22-2.271-3.631-3.241-5.357-2.677-4.766-4.789-5.307-11.376-2.914m7.697 1.265c1.214.85 4.591 7.16 4.432 8.28-.128.898-.181.906-5.39.771-9.22-.237-14.956 1.781-19.906 7.004-5.349 5.644-10.313 6.226-10.313 1.209 0-5.94 26.441-20.581 31.177-17.264m7.062 40.965c-5.646 1.349-7.483 4.818-6.364 12.022 1.789 11.511-3.192 17.893-12.477 15.989-7.34-1.506-11.134-5.806-13.678-15.502-2.169-8.267-4.653-9.452-14.497-6.917-6.231 1.605-8.165 1.925-17.143 2.834-13.673 1.385-15.507 2.133-22.4 9.148-7.6 7.733-8.217 12.278-2.2 16.221l4.476 2.932c6.58 4.309 8.454 10.027 6.781 20.695-1.673 10.671-1.802 11.209-3.559 14.869-2.353 4.906-2.335 7.914.09 14.731 2.981 8.378 4.738 13.898 5.537 17.4 1.062 4.657 2.212 6.905 5.103 9.978 1.357 1.442 4.401 5.412 6.763 8.822 7.995 11.537 15.532 20.43 18.675 22.033.839.429 3.013 1.322 4.83 1.985 1.817.663 4.146 1.822 5.176 2.577 1.839 1.348 2.07 1.719 4.944 7.941 3.113 6.74 41.367 15.336 44.816 10.071 1.407-2.147.086-3.622-8.422-9.407-11.145-7.577-13.053-10.94-13.17-23.209-.083-8.713 5.525-12.936 19.305-14.537 5.767-.67 6.203-.91 8.416-4.635 1.684-2.835 3.209-4.268 7.407-6.958 2.792-1.789 3.34-2.734 4.627-7.972 1.014-4.128 1.725-5.783 6.346-14.769 9.682-18.823 9.83-21.574 1.538-28.42-12.797-10.564-15.562-19.858-8.853-29.753 4.413-6.509 5.045-8.49 4.004-12.551-1.658-6.474-5.965-9.464-14.395-9.996-5.467-.345-6.217-.57-9.346-2.811-3.651-2.614-8.513-3.723-12.33-2.811m7.824 1.979c1.096.416 2.867 1.399 3.936 2.184 2.782 2.042 3.714 2.316 9.081 2.676 7.456.5 10.885 2.287 13.166 6.866 2.08 4.173 1.503 7.029-2.653 13.145-7.519 11.063-4.9 20.918 8.503 31.985 7.849 6.481 7.65 9.299-1.898 26.905-4.481 8.264-5.509 10.587-6.683 15.108-1.156 4.451-1.744 5.289-5.173 7.378-3.461 2.108-5.168 3.75-7.129 6.855-1.836 2.907-2.191 3.065-8.415 3.73-7.34.784-14.481 3.656-17.436 7.013-2.641 3-3.077 5.401-2.676 14.711.526 12.198.71 11.09-1.886 11.358-2.552.263-4.095-.786-6.626-4.506-2.191-3.219-4.977-5.326-6.347-4.8-1.996.766-6.888-1.462-8.555-3.895-.541-.789-1.917-2.025-3.057-2.748-1.221-.772-1.891-1.425-1.63-1.587.266-.165-.14-.619-1.018-1.136-.804-.475-1.849-1.49-2.322-2.256-.474-.767-1.605-1.857-2.513-2.423-.909-.566-2.889-2.362-4.401-3.991-1.512-1.63-3.456-3.323-4.319-3.764-.864-.441-1.689-1.108-1.833-1.483-.215-.56-.306-.503-.509.318-.234.949-.294.909-1.173-.8-.51-.99-1.247-2.21-1.639-2.712-.391-.501-.83-1.61-.974-2.464-.286-1.692-1.006-2.541-2.705-3.186-.604-.23-1.099-.71-1.099-1.066 0-1.161-1.288-2.866-2.659-3.52-.738-.351-1.341-.816-1.341-1.032 0-.216-.81-1.305-1.8-2.42-1.764-1.986-2.034-2.77-1.832-5.32.063-.797-.317-1.569-1.317-2.676-1.739-1.925-2.559-3.482-3.268-6.206-.303-1.161-1.231-3.345-2.063-4.854-1.871-3.394-2.082-6.649-.647-9.956.481-1.107 1.075-3.627 1.32-5.6A289.94 289.94 0 0 1 70.6 141c2.269-14.567.123-21.334-8.946-28.209-4.298-3.259-4.689-4.403-2.807-8.225 3.927-7.977 9.41-11.414 20.673-12.959 10.75-1.474 11.841-1.67 17.988-3.244 10.499-2.687 11.735-2.207 13.485 5.237 2.531 10.765 8.578 16.4 17.598 16.4 9.284 0 13.577-5.828 12.036-16.34-.824-5.615-.794-6.655.247-8.507 1.838-3.269 7.612-4.581 12.309-2.796M75.374 184.155c.581-.223 1.681.952 1.913 2.045.21.987-1.122 3.802-1.795 3.794-.608-.008-1.846-.775-1.292-.8.22-.01.084-.202-.302-.427-.528-.308-.688-.877-.645-2.288.063-2.04.623-3.163 1.259-2.527.212.212.6.303.862.203m13.051 16.331c1.443 1.502 2.538 2.817 2.433 2.923-.19.189.638.338 1.272.228.181-.031.224.113.096.321-.309.499 3.866 4.717 6.288 6.353l1.913 1.292-.258 1.947c-.169 1.275-.103 2.044.193 2.226.248.154.367.416.264.582-.103.167.827.165 2.066-.003 3.769-.511 5.777.502 8.202 4.139 1.403 2.104 5.72 3.932 9.659 4.09 1.781.071 3.852 1.97 3.841 3.522-.005.724-.08.78-.394.294-.677-1.047-.485.675.228 2.055.96 1.856 3.496 2.784 8.321 3.045 4.438.239 4.147.084 6.851 3.648.862 1.137 1.669 1.704 2.866 2.014 1.215.315 1.892.799 2.503 1.788.979 1.583 2.507 2.319 4.323 2.08 3.274-.43 6.827 2.079 5.762 4.07-.652 1.218-5.689 1.268-10.25.101-1.718-.439-4.042-.871-5.164-.959-1.122-.088-3.39-.641-5.04-1.229-1.65-.587-4.53-1.576-6.4-2.197-1.87-.62-4.21-1.504-5.2-1.964-.99-.459-2.528-1.016-3.417-1.237-2.403-.596-3.16-1.562-4.569-5.834-1.558-4.724-2.134-5.283-7.214-7.004-6.848-2.32-10.8-5.074-10.8-7.528 0-.174-.754-1.111-1.676-2.082-.921-.972-1.686-1.893-1.7-2.047-.013-.154-.249-.505-.524-.78s-.5-.734-.5-1.02c0-.286-.21-.52-.467-.52-.256 0-.353-.114-.214-.253.139-.139.041-.634-.219-1.1-.259-.466-.478-.978-.486-1.137-.008-.16-.644-.856-1.414-1.548-5.616-5.043-5.967-5.488-6.943-8.8-.48-1.629-.468-1.893.101-2.315.475-.353.486-.406.042-.203-.469.214-.497.162-.131-.235.376-.406.735-.324 1.8.413l1.331.92-1-1.168-1-1.168 1 .775c.55.426 2.181 2.004 3.625 3.505m88.497 22.696c-3.426 2.089-2.33 7.492 1.672 8.243 3.747.703 6.394-1.562 6.08-5.201-.309-3.571-4.31-5.141-7.752-3.042m5.578 1.534c1.048.911.904 3.116-.282 4.302-2.87 2.87-7.502-.77-5.01-3.937 1.211-1.54 3.739-1.715 5.292-.365m93.718 9.098c-4.619 1.62-9.83 2.343-14.218 1.973-6.145-.518-18.706-1.808-21.8-2.238-6.08-.847-18.312-.647-22.2.363-2.087.541-4.605.883-6.52.885-6.892.006-7.472 1.292-5.421 12.018 1.106 5.782 1.253 7.351 1.209 12.864-.059 7.19.242 7.961 3.631 9.31 2.462.981 4.189 2.423 5.696 4.758.729 1.129 1.928 2.61 2.665 3.29 2.433 2.246 8.532 6.78 7.898 5.871-.342-.491-1.868-1.816-3.39-2.944-4.001-2.967-4.587-3.562-5.477-5.564-1.308-2.943-2.234-3.96-4.773-5.241-3.136-1.583-4.212-2.786-4.563-5.097-.446-2.944-.333-7.72.224-9.401.351-1.063.424-2.562.234-4.841-.224-2.692-.162-3.414.337-3.913.337-.336.512-.712.39-.834-.589-.588 2.589-.666 3.947-.097.818.343 2.133.624 2.923.624 1.943 0 5.032.809 4.761 1.246-.432.7 2.162.336 3.085-.433.519-.432.804-.792.634-.8-.53-.022.857-2.331 1.797-2.989.498-.348 1.713-.624 2.754-.624 1.681 0 2.663-.321 7.359-2.407.66-.293 1.358-.494 1.55-.446.193.047.657-.192 1.033-.531.375-.34.802-.497.949-.35.148.147.268.086.268-.135 0-.345 2.179-.691 3.4-.54.554.069 5.888.318 8.869.414 1.358.044 2.641-.026 2.85-.155.209-.129 2.878-.32 5.931-.424 3.052-.104 6-.283 6.55-.398 3.058-.638 5.046-1.168 5.4-1.44.723-.554 4.717-1.588 6.137-1.588 1.931 0 4.524 1.632 6.189 3.895 2.677 3.639 4.194 4.513 7.8 4.492l2.274-.014-2.304-.793c-3.46-1.19-6.015-2.942-7.951-5.451-3.047-3.95-4.512-4.284-10.127-2.315m-48.949 4.048c1.045.947.931 1.22-.902 2.155-1.001.51-1.555 1.038-1.43 1.362.616 1.606-1.875 2.683-5.585 2.415-4.833-.349-9.647-1.459-7.952-1.834.827-.183.939-.28.362-.313-.937-.053-2.444-1.498-2.012-1.93.153-.153 1.397-.414 2.764-.579 1.367-.165 3.926-.652 5.686-1.083 4.134-1.011 8.072-1.095 9.069-.193m72.931 5.208c2.196.474 3.879.536 7.8.283 6.196-.398 3.407-.85-5.4-.874l-5.2-.014 2.8.605m13.538.413c2.027.523 4.967 4.988 5.681 8.629.154.783 1.814 3.031 2.265 3.066.156.012-.474-1.463-1.4-3.278-.926-1.815-2.015-4.15-2.419-5.189-.765-1.966-2.651-3.555-4.112-3.465-.72.045-.721.055-.015.237"/><path fill="#a4b9d3" d="M187.335 23.572c-3.104.508-3.438 1.453-2.342 6.628 1.576 7.443.223 14.089-3.315 16.275-5.359 3.313-18.269-3.126-20.073-10.012-1.155-4.404-1.846-4.759-7.59-3.904-4.666.695-5.215 1.002-5.215 2.915 0 3.362 3.174 7.468 6.795 8.792 8.614 3.15 10.369 4.193 11.465 6.815 1.712 4.099-.34 8.561-4.859 10.56-4.27 1.888-9.119 1.48-18.297-1.54-10.4-3.423-13.729-2.722-21.084 4.435-7.483 7.282-13.608 8.216-22.365 3.41-3.605-1.978-3.428-2.113-5.461 4.168-1.903 5.882-1.959 5.796 3.369 5.091 13.873-1.836 18.925.815 21.225 11.14 2.025 9.093 4.535 12.655 8.915 12.655 3.96 0 4.437-1.721 3.122-11.265-1.974-14.334 14.917-21.745 29.011-12.729 3.161 2.022 3.822 2.228 8.364 2.603 9.796.81 16.485 6.169 18.802 15.063 1.465 5.623.512 9.146-4.431 16.386-5.642 8.263-3.571 13.764 9.029 23.973 9.154 7.417 8.838 13.719-1.783 35.66-4.268 8.817-5.383 12.129-5.42 16.109-.046 4.922-1.249 6.749-6.114 9.283-6.162 3.21-5.8 4.47 3.037 10.597 4.702 3.259 5.807 8.081 2.639 11.518l-1.64 1.78 1.446 1.69c4.61 5.386 1.736 11.962-5.211 11.923-7.391-.042-8.876-9.327-2.054-12.836 2.087-1.073 2.017-1.185-2.702-4.301-10.385-6.858-13.979-7.89-20.458-5.87-5.956 1.857-7.176 4.087-5.56 10.159 1.134 4.262 1.386 4.489 14.882 13.386l6.862 4.523 7.538.771c11.475 1.173 12.268 1.072 11.388-1.452-2.025-5.807.649-9.872 6.95-10.568 1.32-.146 3.969-.795 5.886-1.442 3.16-1.066 3.948-1.172 8.4-1.128 2.809.027 6.628-.226 8.914-.59 5.476-.874 13.982-.814 27.755.196 14.5 1.063 19.634.93 23.245-.602 8.815-3.739 19.315-3.587 24 .346 1.309 1.099 2.537 1.041 4.075-.195.813-.653 1.648-1.188 1.856-1.188.207 0 .649-.415.981-.922.332-.507 1.66-1.485 2.951-2.172 2.674-1.426 3.455-2.195 5.459-5.376.787-1.249 1.998-2.689 2.692-3.2 1.175-.866 5.586-7.056 5.586-7.839 0-.193.462-.786 1.027-1.317.566-.531 1.566-1.975 2.224-3.21 1.208-2.266 4.749-6.161 4.749-5.224 0 1.919 4.606-5.28 5.196-8.12.314-1.511.897-2.675 1.948-3.888 2.623-3.028 3.25-4.195 4.083-7.603.447-1.831 1.238-4.229 1.758-5.329.519-1.1 1.41-2.98 1.979-4.179.57-1.198 1.036-2.464 1.036-2.813 0-.35.365-1.674.811-2.943.446-1.268.717-2.458.602-2.644-.115-.186.059-.851.387-1.479.327-.628.596-1.358.598-1.622.001-.264.248-.624.548-.8.626-.367 1.089-2.842.564-3.017-.191-.063.003-.923.433-1.909.429-.987.991-2.831 1.248-4.099.258-1.268.608-2.219.78-2.113 1.56.964 2.256-6.007 1.022-10.236C335.489 84.474 288.649 41.46 237.6 28.45c-16.399-4.179-40.331-6.502-50.265-4.878m25.465 1.419c36.07 3.793 69.231 19.427 93.023 43.857 7.098 7.288 9.414 11.162 10.197 17.052.227 1.705.747 4.81 1.156 6.9.456 2.329.768 5.813.806 9 .034 2.86.111 7.54.171 10.4.06 2.86-.111 6.55-.379 8.2-.268 1.65-.608 4.35-.756 6-.511 5.695-1.874 12.57-3.014 15.2-.62 1.43-1.705 4.49-2.412 6.8-1.307 4.276-4.11 10.4-4.759 10.4-.197 0-.648.852-1.003 1.892-.936 2.749-6.09 11.178-8.258 13.508-2.05 2.202-3.053 3.8-2.386 3.8.737 0 .45.68-1.549 3.666-2.02 3.019-10.437 11.985-10.437 11.118 0-.267-.781.212-1.736 1.065a65.98 65.98 0 0 1-3.2 2.668c-.805.614-1.464 1.433-1.464 1.819 0 .959-2.435 3.216-5.8 5.376a216.92 216.92 0 0 0-6.268 4.241c-1.918 1.351-3.534 2.242-3.616 1.994-.196-.586-3.03.851-4.873 2.469-.758.666-2.249 1.512-3.311 1.881-1.128.391-1.648.729-1.249.813 1.062.221-7.585 4.426-10.083 4.903-1.21.231-5.758.593-10.107.804-4.349.211-9.749.675-12 1.03-2.251.356-6.793.679-10.093.719-4.927.06-6.465.226-8.6.931-2.692.889-9.507 1.867-10.461 1.501-1.763-.677-2.88-4.215-2.354-7.457 1.015-6.251-.232-8.635-6.877-13.141-5.891-3.995-5.926-5.055-.263-8.06 4.129-2.192 4.669-3.109 5.187-8.82.583-6.425.877-7.332 5.721-17.632 10.74-22.836 10.611-27.719-.981-37.11-5.934-4.807-9.944-10.546-9.963-14.259-.012-2.192.41-3.096 3.792-8.119 9.955-14.79.727-31.514-17.433-31.592-1.15-.005-2.491-.361-3.6-.955-.972-.521-3.133-1.686-4.801-2.589-6.771-3.666-14.436-3.795-20.925-.354-6.218 3.298-8.112 7.748-6.879 16.161 1.105 7.534.674 9.111-2.494 9.111-3.675 0-6.031-3.55-8.018-12.081-2.473-10.622-7.145-13.653-19.712-12.792-3.88.266-4.492-.115-3.864-2.406.898-3.279 1.303-3.428 5.525-2.034 8.256 2.726 14.518 1.107 21.084-5.451 7.257-7.248 9.609-7.734 20.825-4.299 14.582 4.465 23.078 2.18 23.969-6.448.512-4.962-2.043-7.66-9.779-10.327-5.399-1.861-8.462-4.901-8.49-8.43-.012-1.435.85-1.851 4.99-2.405 4.04-.54 4.614-.227 5.579 3.04 2.295 7.774 15.453 14.15 21.647 10.491 3.66-2.162 5.177-9.607 3.594-17.64-1.02-5.179-.298-5.45 13.781-5.167 4.07.082 10.01.423 13.2.758m-63.278 58.611c1.462.206 3.312.809 4.4 1.437 6.154 3.546 5.875 3.449 11.025 3.848 6.896.534 7.192.598 9.315 2.026 5.024 3.38 5.874 8.251 2.338 13.398-5.267 7.665-5.979 9.535-5.719 15.018.339 7.137 5.03 14.698 13.325 21.476 5.7 4.657 5.971 7.926 1.358 16.395-.659 1.21-.901 1.84-.537 1.4.363-.44 1.483-2.479 2.487-4.532 3.222-6.586 2.727-9.475-2.299-13.424-14.263-11.206-17.331-22.406-9.34-34.108 4.771-6.989 4.94-9.866.844-14.348-2.619-2.866-4.217-3.449-10.468-3.817-5.541-.327-4.771-.077-12.021-3.903-1.449-.764-2.665-1.063-4.6-1.129l-2.63-.091 2.522.354m-7.429 5.198c0 .77.082 1.085.183.7.1-.385.1-1.015 0-1.4-.101-.385-.183-.07-.183.7m.844 8.6c.002 1.76.072 2.43.156 1.489.085-.94.084-2.38-.002-3.2-.086-.819-.155-.049-.154 1.711m-.614 4.6c-.14.77-.363 1.76-.495 2.2-.132.44.043.193.387-.549.345-.743.568-1.733.496-2.2-.094-.606-.206-.448-.388.549m-93.256 24.267c-1.296 1.296.832 13.733 2.35 13.733.375 0 .583.41.583 1.15 0 .632.114 1.718.253 2.413l.252 1.263 1.148-1.285c.631-.707 1.147-1.6 1.147-1.984 0-.385.24-.94.534-1.234 1.656-1.656 2.502-9.675 1.206-11.425-1.732-2.338-6.196-3.909-7.473-2.631m114.756 86.37c4.351 2.199 6.84 3.697 8.329 5.014l1.642 1.452-1.597 1.791c-2.493 2.796-6.114 2.786-12.462-.033-1.944-.864-4.482-1.876-5.639-2.249-3.895-1.257-3.938-3.391-.106-5.298 3.985-1.985 6.855-2.182 9.833-.677m10.078 44.022c-.545 1.195-.089 1.61 2.192 1.991.821.138 1.408.387 1.304.554-.312.506 1.384.822 5.764 1.076 3.205.186 4.092.13 3.862-.243-.231-.373.478-.422 3.07-.212l3.369.274.515-1.242c.919-2.221.496-2.496-3.706-2.408-2.058.043-3.944-.047-4.191-.199-.247-.153-2.986-.348-6.086-.434l-5.638-.156-.455.999"/><path fill="#288c68" d="M73.719 184.083c-.735.933-.61 4.224.179 4.684.386.225.522.417.302.427-.554.025.684.792 1.292.8.673.008 2.005-2.807 1.795-3.794-.232-1.093-1.332-2.268-1.913-2.045-.262.1-.65.009-.862-.203-.248-.248-.532-.201-.793.131M84.8 197.374l1 1.168-1.331-.92c-1.065-.737-1.424-.819-1.8-.413-.366.397-.338.449.131.235.444-.203.433-.15-.042.203-.569.422-.581.686-.101 2.315.976 3.312 1.327 3.757 6.943 8.8.77.692 1.406 1.388 1.414 1.548.008.159.227.671.486 1.137.26.466.358.961.219 1.1-.139.139-.042.253.214.253.257 0 .467.234.467.52 0 .286.225.745.5 1.02s.511.626.524.78c.014.154.779 1.075 1.7 2.047.922.971 1.676 1.908 1.676 2.082 0 2.454 3.952 5.208 10.8 7.528 5.08 1.721 5.656 2.28 7.214 7.004 1.409 4.272 2.166 5.238 4.569 5.834.889.221 2.427.778 3.417 1.237.99.46 3.33 1.344 5.2 1.964 1.87.621 4.75 1.61 6.4 2.197 1.65.588 3.918 1.141 5.04 1.229 1.122.088 3.446.52 5.164.959 4.561 1.167 9.598 1.117 10.25-.101 1.065-1.991-2.488-4.5-5.762-4.07-1.816.239-3.344-.497-4.323-2.08-.611-.989-1.288-1.473-2.503-1.788-1.197-.31-2.004-.877-2.866-2.014-2.704-3.564-2.413-3.409-6.851-3.648-4.825-.261-7.361-1.189-8.321-3.045-.713-1.38-.905-3.102-.228-2.055.314.486.389.43.394-.294.011-1.552-2.06-3.451-3.841-3.522-3.939-.158-8.256-1.986-9.659-4.09-2.425-3.637-4.433-4.65-8.202-4.139-1.239.168-2.169.17-2.066.003.103-.166-.016-.428-.264-.582-.296-.182-.362-.951-.193-2.226l.258-1.947-1.913-1.292c-2.422-1.636-6.597-5.854-6.288-6.353.128-.208.085-.352-.096-.321-.634.11-1.462-.039-1.272-.228.215-.215-4.51-5.228-6.058-6.428l-1-.775 1 1.168m191.8 37.292c-1.1.336-2.18.75-2.4.92-.354.274-2.333.802-5.4 1.442-.55.115-3.498.294-6.55.398-3.053.104-5.722.295-5.931.424-.209.129-1.492.199-2.85.155-2.981-.096-8.315-.345-8.869-.414-1.221-.151-3.4.195-3.4.54 0 .221-.12.282-.268.135-.147-.147-.574.01-.949.35-.376.339-.84.578-1.033.531-.192-.048-.89.153-1.55.446-4.696 2.086-5.678 2.407-7.359 2.407-1.041 0-2.256.276-2.754.624-.94.658-2.327 2.967-1.797 2.989.17.008-.115.368-.634.8-.923.769-3.517 1.133-3.085.433.271-.437-2.818-1.246-4.761-1.246-.79 0-2.105-.281-2.923-.624-1.358-.569-4.536-.491-3.947.097.122.122-.053.498-.39.834-.499.499-.561 1.221-.337 3.913.19 2.279.117 3.778-.234 4.841-.557 1.681-.67 6.457-.224 9.401.351 2.311 1.427 3.514 4.563 5.097 2.548 1.286 3.479 2.312 4.766 5.252.746 1.705 2.285 3.226 6.119 6.049.772.568 2.572 2.159 4 3.535 5.011 4.827 7.311 6.482 12.695 9.133 3.44 1.694 6.267 3.417 7.959 4.85 5.069 4.292 6.37 4.676 10.976 3.243 1.603-.499 2.808-1.161 3.349-1.84.648-.812 1.31-1.109 2.832-1.27 1.783-.188 2.191-.432 3.986-2.383 1.829-1.989 2.239-2.228 4.8-2.798 2.392-.533 3.033-.871 4.4-2.315 1.99-2.103 2.935-2.612 4.874-2.625 2.498-.015 4.592-.669 5.591-1.747.516-.556 1.664-1.229 2.551-1.495.916-.275 1.417-.604 1.16-.763-.27-.167.055-.457.803-.718.691-.241 1.787-.816 2.436-1.278.649-.462 1.321-.752 1.493-.646.173.107.759-.173 1.303-.622l.989-.816-1.149.689c-.632.379-1.022.483-.866.231.311-.504 5.448-3.051 5.892-2.921.152.044.658-.411 1.124-1.012.466-.6 2.139-1.728 3.718-2.505 1.587-.781 3.067-1.808 3.311-2.297.243-.487.542-.784.666-.661.123.124.43-.4.682-1.163.383-1.159.821-1.535 2.658-2.281 4.226-1.715 8.024-10.886 5.248-12.675-.901-.581-2.305-2.381-2.455-3.147-.499-2.546-2.68-6.597-4.288-7.963-.86-.731-1.441-.792-6.734-.703-3.929.066-6.722-.095-8.683-.5-1.59-.328-3.966-.597-5.281-.597-3.743 0-5.223-.843-7.917-4.505-2.651-3.603-5.579-4.556-9.926-3.229"/><path fill="#bec4d1" d="M190.2 24.247c-4.662.378-5.198 1.008-4.381 5.153 1.583 8.033.066 15.478-3.594 17.64-6.194 3.659-19.352-2.717-21.647-10.491-.965-3.267-1.539-3.58-5.579-3.04-4.14.554-5.002.97-4.99 2.405.028 3.529 3.091 6.569 8.49 8.43 7.736 2.667 10.291 5.365 9.779 10.327-.891 8.628-9.387 10.913-23.969 6.448-11.216-3.435-13.568-2.949-20.825 4.299-6.566 6.558-12.828 8.177-21.084 5.451-4.222-1.394-4.627-1.245-5.525 2.034-.628 2.291-.016 2.672 3.864 2.406 12.567-.861 17.239 2.17 19.712 12.792 1.987 8.531 4.343 12.081 8.018 12.081 3.168 0 3.599-1.577 2.494-9.111-1.233-8.413.661-12.863 6.879-16.161 6.489-3.441 14.154-3.312 20.925.354 1.668.903 3.829 2.068 4.801 2.589 1.109.594 2.45.95 3.6.955 12.413.054 21.632 8.572 21.632 19.988 0 4.266-.861 6.645-4.199 11.604-3.382 5.023-3.804 5.927-3.792 8.119.019 3.713 4.029 9.452 9.963 14.259 11.592 9.391 11.721 14.274.981 37.11-4.844 10.3-5.138 11.207-5.721 17.632-.518 5.711-1.058 6.628-5.187 8.82-5.663 3.005-5.628 4.065.263 8.06 6.645 4.506 7.892 6.89 6.877 13.141-.526 3.242.591 6.78 2.354 7.457.954.366 7.769-.612 10.461-1.501 2.135-.705 3.673-.871 8.6-.931 3.3-.04 7.842-.363 10.093-.719 2.251-.355 7.651-.819 12-1.03 4.349-.211 8.897-.573 10.107-.804 2.498-.477 11.145-4.682 10.083-4.903-.399-.084.121-.422 1.249-.813 1.062-.369 2.553-1.215 3.311-1.881 1.843-1.618 4.677-3.055 4.873-2.469.082.248 1.698-.643 3.616-1.994a216.92 216.92 0 0 1 6.268-4.241c3.365-2.16 5.8-4.417 5.8-5.376 0-.386.659-1.205 1.464-1.819a65.98 65.98 0 0 0 3.2-2.668c.955-.853 1.736-1.332 1.736-1.065 0 .867 8.417-8.099 10.437-11.118 1.999-2.986 2.286-3.666 1.549-3.666-.667 0 .336-1.598 2.386-3.8 2.168-2.33 7.322-10.759 8.258-13.508.355-1.04.806-1.892 1.003-1.892.649 0 3.452-6.124 4.759-10.4.707-2.31 1.792-5.37 2.412-6.8 1.14-2.63 2.503-9.505 3.014-15.2.148-1.65.488-4.35.756-6 .268-1.65.439-5.34.379-8.2-.06-2.86-.137-7.54-.171-10.4-.038-3.187-.35-6.671-.806-9-.409-2.09-.929-5.195-1.156-6.9-1.973-14.841-31.79-39.373-61.922-50.945-20.126-7.729-46.387-12.13-63.898-10.708m22.128 2.359c23.334 2.346 51.089 12.254 62.172 22.195 1.559 1.398 2.3 2.365 2.3 3 0 .516.423 1.446.939 2.068.517.622 1.712 2.27 2.657 3.663 1.013 1.493 1.831 2.349 1.993 2.086.817-1.322 9.177 17.74 8.655 19.734-.215.823.748 3.048 1.32 3.048.776 0 1.844 7.855 1.178 8.665-.247.301-.169 1.291.222 2.8.643 2.487 1.435 9.774 1.436 13.206 0 1.308.221 2.293.6 2.672 1.107 1.106.726 8.257-.439 8.257-.639 0-.848.746-1.343 4.792-.262 2.139-.238 3.072.083 3.27.641.397-.712 7.97-1.895 10.6-.51 1.134-1.408 3.736-1.997 5.781-.588 2.045-1.413 4.201-1.833 4.79-.419.589-1.385 2.547-2.145 4.35-1.798 4.263-4.238 8.059-5.031 7.827-.836-.243-4.4 5.35-4.4 6.905 0 1.2-.848 2.342-5.579 7.512a148.29 148.29 0 0 0-3.9 4.45c-.924 1.113-2.634 2.568-3.8 3.233-1.167.666-2.833 1.948-3.702 2.85-1.081 1.121-1.922 1.64-2.656 1.64-.637 0-2.031.702-3.419 1.72-1.289.946-3.765 2.521-5.502 3.5-1.737.979-3.241 2.089-3.343 2.466-.261.968-2.899 2.508-2.899 1.692 0-.497-.245-.47-1.5.163-.825.416-1.95.893-2.5 1.06-.55.167-2.545.996-4.434 1.843-1.889.847-4.769 1.818-6.4 2.158-4.02.838-4.366.966-4.366 1.61 0 .32-.724.745-1.7.998-.935.243-2.33.609-3.1.813-1.975.525-2.8.467-2.8-.198 0-.608-1.475-.536-4.4.212-.77.197-5.27.354-10 .348-7.362-.01-10.409-.199-15-.933-1.085-.173-4.742-2.059-5.302-2.734-.613-.739-.205-1.255 1.791-2.267 4.435-2.248 5.106-3.678 5.466-11.651.206-4.561.637-6.428 2.309-10l3.779-8.075c9.431-20.152 9.209-27.749-1.051-35.932-11.267-8.984-12.817-13.425-7.442-21.324 10.554-15.508 2.39-32.087-16.648-33.806-3.715-.336-4.053-.447-7.2-2.373-11.422-6.99-26.615-4.715-31.185 4.67-1.141 2.343-1.427 8.373-.618 13.035.864 4.982-.044 6.681-2.805 5.254-2.275-1.177-3.585-4.145-5.094-11.543-1.196-5.865-1.976-7.593-4.552-10.091-2.539-2.46-2.557-2.302.452-3.874 1.793-.937 3.744-2.579 6.9-5.805 6.834-6.986 8.831-7.478 18.693-4.599 17.955 5.239 26.989 1.564 26.146-10.637-.17-2.473-.116-3.7.164-3.7.23 0 1.887.381 3.683.846 10.271 2.663 14.436-1.686 14.488-15.125.015-4.017.192-7.046.426-7.278.939-.936 14.078-.847 24.128.163m-54.463 8.784c.463.325.958 1.207 1.099 1.961.142.754.703 2.207 1.247 3.231 1.232 2.317 1.245 2.219-.311 2.214-5.187-.015-9.793-6.067-5.6-7.356 2.441-.751 2.561-.752 3.565-.05m-12.534 48.96c-2.697 1.265-3.112 2.248-2.689 6.368 1.444 14.053-1.577 19.716-11.971 22.438-4.784 1.253-4.764 1.234-4.518 4.373.24 3.059.355 3.662 1.201 6.331.338 1.067.923 3.196 1.299 4.73.377 1.535 1.211 3.785 1.853 5 .643 1.216 1.571 3.312 2.063 4.658 1.854 5.078 8.01 13.211 14.009 18.511.648.573 2.026 1.896 3.064 2.941 1.037 1.045 2.162 1.9 2.499 1.9.831 0 3.184 1.422 4.708 2.846.687.642 1.452 1.129 1.7 1.082.248-.046 1.94.675 3.759 1.603 3.664 1.868 10.04 4.069 11.785 4.069 3.865 0 14.707-17.295 14.707-23.462 0-2.474-1.02-4.012-4.594-6.933-8.295-6.778-12.986-14.339-13.325-21.476-.26-5.483.452-7.353 5.719-15.018 3.536-5.147 2.686-10.018-2.338-13.398-2.123-1.428-2.419-1.492-9.315-2.026-5.156-.4-4.855-.294-11.072-3.875-2.593-1.493-6.18-1.771-8.544-.662m8.916 2.891c4.154 2.468 5.482 2.827 11.553 3.126 6.099.299 7.12.615 9.415 2.909 3.515 3.516 3.283 6.181-1.081 12.403-7.76 11.065-5.641 22.65 6.153 33.64 7.095 6.611 6.913 6.39 6.913 8.404 0 3.222-4.565 11.114-7.223 12.489-1.325.685-2.777.773-2.777.168 0-.675-2.619-1.58-4.569-1.58-.987 0-2.994-.435-4.46-.968-3.001-1.089-4.066-1.832-2.626-1.832.686 0 .271-.434-1.71-1.791-1.439-.985-2.846-1.704-3.126-1.598-.666.254-6.142-3.918-5.999-4.569.202-.923-2.422-3.863-2.712-3.037-.205.585-.524.365-1.8-1.247a595.688 595.688 0 0 0-3.006-3.758c-2.292-2.835-2.866-3.858-4.924-8.78-2.679-6.405-4.157-10.989-4.489-13.923l-.282-2.493 2.368-3.102c4.895-6.412 5.977-10.51 4.966-18.819-.246-2.024-.33-4.148-.186-4.72.729-2.906 5.493-3.363 9.602-.922m2.943 124.597c-6.252 1.908-7.784 5.261-3.094 6.774 1.157.373 3.695 1.385 5.639 2.249 6.348 2.819 9.969 2.829 12.462.033l1.597-1.791-1.642-1.452c-1.489-1.317-3.978-2.815-8.329-5.014-1.494-.755-5.283-1.211-6.633-.799"/></g></svg>