<svg xmlns="http://www.w3.org/2000/svg" viewBox="0 0 200 200"><path fill="red" d="M38.2 58.2C21.8 80.6 19 84.5 19 85.5c0 .5 7.5 9.3 16.6 19.5 9.2 10.2 19.7 22.1 23.5 26.5 3.8 4.4 9.3 10.6 12.2 13.9l5.4 5.9 4.9-5.3c2.7-2.9 5.2-5.7 5.6-6.4.5-.7 2.9 1.2 6.5 5.3l5.8 6.3 5.8-6.1c3.2-3.4 6.1-6.1 6.5-6 .4 0 3 2.7 5.7 5.9 2.8 3.3 5.3 5.9 5.6 6 .4 0 9.4-9.8 20.1-21.8 10.8-11.9 20.6-22.9 21.9-24.3 8.4-9.1 16.9-18.8 16.9-19.4 0-.4-5.9-8.7-13.1-18.6L155.8 49H45l-6.8 9.2zm21.8.6c0 .4-4 6.4-9 13.2-4.9 6.9-9 12.9-9 13.5.1 1 12.4 15.3 29.8 34.3 5 5.6 9.2 10.5 9.2 10.9 0 .5-.9 1.9-2 3.3l-2 2.5-3.3-3.6c-11.1-12.6-29.9-33.5-35.8-40.1l-7-7.7 6.8-9.3c3.8-5.1 8.1-11.2 9.7-13.6 2.7-4 3.1-4.2 7.7-4.2 2.7 0 4.9.4 4.9.8zm24-.3c0 .4-7 10.3-18.5 26.1-.7.9-.5 1.7.7 2.6.8.7 6.7 7.1 12.9 14.3 6.2 7.1 14.5 16.6 18.5 21l7.2 8-2.2 2.8c-1.2 1.5-2.4 2.7-2.8 2.7-.3 0-10.8-11.5-23.3-25.5L53.8 84.9l6.1-8.2c3.4-4.5 7.7-10.6 9.7-13.5 3.6-5.2 3.6-5.2 9-5.2 3 0 5.4.2 5.4.5zm75.2 12c4.9 6.6 9.1 12.6 9.4 13.2.3.7-.9 3-2.8 5.1-19.1 22.1-41.6 46.7-42.7 46.7-.7 0-20-21.3-35.4-39.2-6.2-7.1-9.5-11.8-9.1-12.5 1.3-2.2 15.6-22.2 17.2-24.1 1.4-1.6 3.8-1.7 28.1-1.5l26.5.3 8.8 12z"/></svg>