<svg baseProfile="tiny" xmlns="http://www.w3.org/2000/svg" viewBox="0 0 123.7 122.7"><path fill="#5ECAE6" d="M12.5 75.4l9.8 2.7c-2.2-5.2-3.4-10.9-3.4-16.9C18.9 37.4 38.2 18 62.1 18h.8l5.8-7.9L64 2.3h-1.9c-32.6 0-59 26.4-59 59 0 7.5 1.4 14.8 4 21.4l5.4-7.3z"/><path fill="#A5DDEF" d="M72.1 10.6l-6 7.7c21.9 2.1 39.1 20.5 39.1 43 0 5.1-.9 9.9-2.5 14.4l4.7 9.1 9-.7c2.9-7 4.6-14.7 4.6-22.8 0-30.8-23.6-56.1-53.7-58.7l4.8 8z"/><path fill="#7FD2ED" d="M105.6 87.6l-4.2-8.6c-6.8 15-21.8 25.4-39.4 25.4-16.6 0-31-9.4-38.2-23.1l-10.4-2.6-5.1 6.9c9.3 20.4 29.8 34.6 53.7 34.6 23.4 0 43.6-13.6 53.1-33.3l-9.5.7z"/><path fill="#EF4561" d="M45.9 35.7L30.1 51.9l4 8.1 27.5 33.6 27.5-34.4 4-7.3-15.8-16.2zM30.1 52.4l9.9 2"/><path fill="#EF4D6E" d="M89.1 59.3l-9.8 2.9 3.9-7.8 9.9-2z"/><path fill="#EF4561" d="M57.7 63.7l-4-10h15.8l-4 10zm15.7-2l-3.9-8h13.7l-3.9 8z"/><path fill="#EF4D6E" d="M49.8 62.2l3.9-7.8 4 9.8zm15.7 2l4-9.8 3.9 7.8z"/><path fill="#EF4561" d="M83.2 53.9l-7.8-18.2h1.9l15.8 15.9z"/><path fill="#EF4D6E" d="M69.5 53.7l1.9-18h4l7.8 18zm-35.4 6.6l9.8 1.9-3.9-7.8-9.9-2z"/><path fill="#EF4561" d="M49.8 61.7l3.9-8H40l3.9 8z"/><path fill="#EF4561" d="M40 53.9l7.8-18.2h-1.9L30.1 51.6z"/><path fill="#EF4D6E" d="M53.7 53.7l-1.9-18h-4l-7.8 18z"/><path fill="#EF4561" d="M53.7 53.4l7.9-17.7h-9.8zm15.8 0l1.9-17.7h-9.8z"/><path fill="#EF4D6E" d="M69.5 53.7L61.6 36l-7.9 17.7zm-25.6 8l17.7 31.4-11.8-31.4z"/><path fill="#EF4561" d="M34.1 60.3l9.8 1.9 17.7 31.5z"/><path fill="#EF4561" d="M49.8 62.2l7.9 2 3.9 29.5zm23.6 0L61.6 93.7l3.9-29.5z"/><path fill="#EF4D6E" d="M79.3 61.7L61.6 93.1l11.8-31.4z"/><path fill="#EF4561" d="M89.1 59.3l-9.8 2.9-17.7 31.5z"/><path fill="#EF4D6E" d="M61.6 93.2l-3.9-29.5h7.8z"/></svg>