<svg width="367" height="399" xmlns="http://www.w3.org/2000/svg"><g fill="none" fill-rule="evenodd"><path d="M103.634 185.667c-.745.033-1.114-.318-1.295-.625 0 0-4.591-.951-5.94-.544-1.348.407-9.05-.944-12.429-3.388-3.379-2.435-6.754-.673-9.86-2.573-3.103-1.899-7.834-1.629-11.342-1.762-3.511-.133-7.97.133-9.592 2.303-1.62 2.165-7.966 8.812-10.262 11.518-2.295 2.71-11.614 12.465-15.262 13.953 0 0 .943 1.496.405 2.577-.541 1.089-.136 4.198-.136 5.287 0 1.09.269 2.843-.67 3.932-.952 1.085-1.49 2.843-1.49 3.52 0 .678-1.083 3.118 0 6.373 1.08 3.254 2.023 6.908-2.431 5.42-4.46-1.488-3.512-5.553-7.156-5.694-3.644-.134-8.372 0-9.724-5.01-1.357-5.016-3.917-13.554-4.459-14.909-.538-1.35-2.428-7.585 1.084-13.006 3.511-5.42 4.185-9.352 4.727-10.574.538-1.218 3.107-8.944 4.993-10.033 1.89-1.085 1.212-4.473 2.295-5.96 1.08-1.493.675-3.933 1.349-5.288.674-1.355.947-5.283 1.89-8.263.947-2.98 4.054-7.594 5.944-10.03 1.89-2.436 2.974-6.093 2.974-7.315 0-1.222-.675-3.791 2.428-5.96 3.102-2.17 8.64-9.216 9.182-10.3 0-.27 0-5.284-.273-7.046-.269-1.762-.674-3.388 1.08-4.065 1.762-.682 4.19-2.174 4.19-2.174s-1.686-2.165-5.334-3.996c-3.648-1.827-14.588-14.228-15.6-21.544-1.015-7.32-1.42-18.906 8.508-22.97 9.93-4.07 20.866-6.304 22.49-6.506 1.622-.201 7.293-1.423 9.524.202 0 0-2.432-.403-3.443 0-1.015.407 4.856.206 6.277 1.83 0 0-2.834-.81-4.455-.608-1.617.202 2.837 2.032 3.648 3.456.807 1.424 3.849 2.44 3.444 4.678-.402 2.234-.607 5.69-.205 6.707.41 1.016 1.42 2.847 1.625 5.69.205 2.847 1.016 6.71 1.822 8.538.81 1.83 2.838 7.52 2.027 11.586 0 0 .81 2.032 4.86-2.642 4.053-4.678 8.107-5.488 10.13-5.488 2.026 0 5.068-2.037 7.091-1.222 2.03.814 4.262-.202 6.69.407 2.428.609 12.558 0 14.79-.815 2.222-.814 9.924-1.83 11.541-1.83 1.622 0-2.022-2.642 1.016-4.675 3.042-2.032-3.243-3.048 1.42-8.94 4.656-5.896.197-7.522-.61-8.74-.806-1.221-1.011-5.085-1.011-7.319 0-2.238-.606-7.929-.606-7.929l.81-1.016s-.654-1.08-1.296-1.464c-.638-.383-1.276-2.69-1.782-4.226-.517-1.537-6.132-9.864-7.79-11.143-1.66-1.286-1.914-3.202-1.66-4.997.256-1.798 1.528-3.33 1.275-5.254-.256-1.92-.128-4.48-.256-5.376-.125-.9.256-6.275 1.408-6.787 0 0 .891-.388 1.276.89 0 0-.642-4.48.763-4.48 0 0 1.661-.512 2.3 1.795.634 2.307 1.276 3.585 1.404 4.226.129.642.638 1.662.638 1.662s1.401-.633 2.553-.125c1.148.512 1.918 1.024 1.918 1.666 0 .64 0-.513 1.405-.513 1.4 0 2.68-.387 3.066 1.025.377 1.407.638 2.436.762 3.843.133 1.407.386 2.56.895 3.585.514 1.024 1.273 2.815 1.273 5.25 0 2.437.899 6.917 1.28 8.97.381 2.049 4.723 9.99 4.723 9.99s6.638 1.282 9.7.64c3.067-.64 8.424.513 7.79 3.332-.638 2.814-1.019 11.142-1.276 17.675-.257 6.534-1.28 19.213-2.3 23.697-1.023 4.48-7.276 16.14-9.828 18.06-2.548 1.923-5.362 3.201-12.381 6.533-7.023 3.33-15.194 7.045-15.194 7.045s4.342 6.146 5.362 6.533c1.019.383.894-.895 2.167-.387.634.254 2.837 1.121 1.436.544-.003.054 7.69 2.03 7.69 2.03.738-.014 1.194-.148 1.103-.585-.386-1.79 1.405-4.094 2.168-4.61.767-.512-1.149 2.305 0 3.582 1.152 1.286 17.654-3.619 17.344-2.74-.305.878.896.947 1.948.12 1.044-.821 5.416-3.678 8.532-3.666 3.123.016 10.19.64 12.085-.053 1.895-.689 10.511-6.024 13.39-7.435 2.87-1.418 12.792-1.281 16.98-4.11 4.187-2.833 13.41-9.462 17.304-11.876 3.89-2.41 32.762-20.125 38.922-21.089 6.159-.963 20.922-6.806 23.451-8.615 2.53-1.806 10.487-6.202 12.081-7.58 1.598-1.379 9.58 2.123 13.74 8.06 0 0 8.114-3.986 9.865-4.14 1.746-.153 4.982-2.413 7.463-4.32 2.486-1.91 9.97-6.967 13.242-8.567 0 0 1.654-.73 1.971-1.894.318-1.165 1.638-3.39 2.827-2.93 0 0 2.606-3.337 3.662-2.333 0 0 2.288-2.172 3.601-.991 0 0 1.297.185 1.735.886 0 0 1.646-1.334 2.409-.322 0 0 1.188-1.346 3.191.233 0 0 1.333 1.649-1.12 4.68 0 0-1.537.797-2.613 3.022-1.068 2.224-4.06 6.451-7.336 8.108-3.284 1.656-7.074 4.565-6.934 10.514.145 5.952-2.38 12.87-8.608 11.315-6.227-1.555-11.688.544-17.14 3.523 0 0-.478 3.143-1.004 3.892-.53.746-2.967.504-6.32 2.612-3.348 2.103-5.392 2.893-8.033 4.876-2.646 1.983-3.212 3.32-5.437 4.356-2.224 1.044-4.721 3.873-6.195 5.44-1.481 1.564-6.93 5.413-13.37 8.556-6.444 3.147-32.931 12.63-39.054 17.614-6.13 4.985-17.401 13.916-34.505 22.314-.71.346-1.369.685-2.04 1.02-1.035.946-15.742 14.446-20.777 17.977-5.22 3.659-7.308 4.183-8.873 12.553-1.028 5.516-5.224 14.422-8.123 21.515a348.535 348.535 0 0 0-1.16 17.695c-.2 5.283-6.942 57.82-8.564 63.503-1.626 5.69-2.028 9.958-1.217 14.427.811 4.46-1.216 9.744-3.645 14.213-2.437 4.47-6.489 15.031-5.882 21.125.606 6.093 1.216 8.33-.607 9.14-1.826.81-7.704.612-8.511 2.643-.811 2.03-3.85 2.03-3.85 2.03s-.912 9.064.678 10.66c1.594 1.588 7.215 8.265.377 13.238-6.845 4.98-14.06 9.398-15.743 12.875-1.69 3.47-5.44 5.449-6.845 6.573-1.405 1.124-3.935 2.724-4.124 3.377-.184.661-2.244 1.882-4.215 1.322 0 0-1.687.746-3.47-1.23 0 0-2.898.283-3.464-1.59 0 0-2.437.18-2.718-1.693 0 0-1.221-2.725 2.437-3.849 3.65-1.132 9.463-9.305 9.652-10.619.184-1.313 2.907-9.49 4.966-12.867 2.06-3.385 4.778-12.215 5.156-20.29 0 0-.84-.56-.84-1.403 0-.85.049-4.73.454-6.218.41-1.495 1.217-5.823.679-12.19-.542-6.36.81-16.789 0-23.966-.811-7.177.73-57.002 2.89-63.502 2.165-6.5 2.972-7.988 2.84-10.563-.137-2.575 0-10.429.81-10.832.807-.407.944-10.292.675-11.38-.273-1.08-6.083-5.142-6.89-7.988 0 0 .132 2.979 0 4.063-.137 1.084-.27-.27-2.433-2.576-2.168-2.305-6.22-7.177-6.488-10.699-.484-.262-6.47-3.798-6.47-3.798z" fill="#991B21"/><path d="M129.953 125c-.613 10.999-26.335 61.096-26.335 61.096-.899 4.433-.712 8.57-.258 11.032 1.09 5.9-4.36 14.748-4.36 14.748l5.935 3.124c8.016-4.647 4.579-18.583 4.579-18.583a17.456 17.456 0 0 1-.386-7.149l.064.065s29.17-57.82 27.758-62.373c-.004.008-3.48-.493-6.997-1.96z" fill="#000"/></g></svg>