<svg xmlns="http://www.w3.org/2000/svg" viewBox="0 0 128 128"><path d="M23.69 49.2a3.12 3.12 0 1 0-5.94 1.92l8.07 24.81a3.11 3.11 0 0 0 3.79 1.92A3.06 3.06 0 0 0 31.73 74c0-.05-8.04-24.8-8.04-24.8z" fill="#ecb32d"/><path d="M11.2 53.24a3.12 3.12 0 1 0-5.94 1.92L13.33 80a3.11 3.11 0 0 0 3.79 1.92 3.06 3.06 0 0 0 2.12-3.85c0-.07-8.04-24.83-8.04-24.83z" fill="#63c1a0"/><path d="M33.85 69.72a3.12 3.12 0 1 0-1.92-5.94L7.1 71.88a3.11 3.11 0 0 0-1.92 3.79A3.06 3.06 0 0 0 9 77.79c.08 0 24.85-8.07 24.85-8.07z" fill="#e01a59"/><path d="M12.26 76.76l5.94-1.92c-.52-1.61-1.21-3.7-1.92-5.94l-5.94 1.92z" fill="#331433"/><path d="M24.78 72.68l5.94-1.92c-.52-1.61-1.21-3.7-1.92-5.94l-5.94 1.92z" fill="#d62027"/><path d="M29.78 57.24a3.12 3.12 0 1 0-1.92-5.94L3 59.36a3.11 3.11 0 0 0-1.92 3.79A3.06 3.06 0 0 0 5 65.27l24.78-8.03z" fill="#89d3df"/><path d="M8.22 64.24l5.94-1.92c-.72-2.24-1.41-4.34-1.92-5.94L6.29 58.3z" fill="#258b74"/><path d="M20.7 60.19l5.94-1.92c-.72-2.24-1.41-4.34-1.92-5.94l-5.94 1.92z" fill="#819c3c"/><path d="M59 55.71c1.09.49 1.18.83.32 2.47s-1.09 1.82-2.18 1.35a12.46 12.46 0 0 0-4.22-1c-1.84 0-3 .66-3 1.67 0 3.3 10.51 1.52 10.51 8.53 0 3.53-3 5.89-7.58 5.89a18 18 0 0 1-7.38-1.84c-1-.52-1.09-.8-.2-2.5.75-1.46 1-1.64 2.1-1.18a15.67 15.67 0 0 0 5.4 1.35c1.67 0 2.78-.69 2.78-1.67 0-3.19-10.71-1.67-10.71-8.47 0-3.62 3-6 7.52-6a17.23 17.23 0 0 1 6.64 1.4zm8.5-8.32v26.18a.94.94 0 0 1-1 .8h-2.76a.94.94 0 0 1-1-.8V47.39c0-1.29.37-1.41 2.38-1.41 2.3.02 2.38.14 2.38 1.41zm19.58 14.7v11.28a1 1 0 0 1-1 1h-2.73a1 1 0 0 1-1-1.09v-1.21a7.68 7.68 0 0 1-5.71 2.5c-4.11 0-6.86-2.38-6.86-5.91 0-3.76 3.1-6.32 7.78-6.32a12.41 12.41 0 0 1 4.71.86v-1.28c0-2.07-1.64-3.3-4.42-3.3a8.86 8.86 0 0 0-4.16 1.26c-1 .55-1.21.52-2.27-1.06s-1-1.87 0-2.53a13.34 13.34 0 0 1 6.89-2c5.39-.04 8.77 2.86 8.77 7.8zm-12.69 6.54c0 1.35 1.15 2.24 2.84 2.24a6 6 0 0 0 5.05-2.7v-1.75a10.35 10.35 0 0 0-3.62-.66c-2.57 0-4.27 1.24-4.27 2.87zm31.36-12.89c1 .57 1 .89-.06 2.58s-1.21 1.69-2.33 1.15a8 8 0 0 0-3.27-.8 5.4 5.4 0 0 0-5.74 5.71c0 3.56 2.3 6 5.74 6a8.35 8.35 0 0 0 3.68-1c1-.57 1.21-.55 2.27 1s.95 1.78.09 2.38a11.64 11.64 0 0 1-6.13 1.85c-6.37 0-10.65-4.08-10.65-10.22s4.28-10.13 10.71-10.13a12.45 12.45 0 0 1 5.69 1.48zm20.84 16.17c.8 1 .49 1.38-1.52 2.1s-2.33.69-3-.23l-5.71-7.61-2.56 2.47v4.94a.94.94 0 0 1-1 .8H110a.94.94 0 0 1-1-.8V47.39c0-1.29.37-1.41 2.38-1.41 2.33 0 2.38.17 2.38 1.41v14.87l7.81-7.49c.86-.8 1.35-.75 2.87.26 1.69 1.09 1.81 1.41 1 2.18l-5.8 5.68z" fill="#2d333a"/></svg>