<svg xmlns="http://www.w3.org/2000/svg" width="769.333" height="769.333" version="1.0" viewBox="0 0 577 577"><path fill="#5e5e5e" d="m409.9 87.6-2.5 2.5 12.1 12.4c35.6 36.3 60 79.2 72 126.5 9.7 38.7 9.3 86.3-1.1 125-12.5 46.3-36.6 88.3-71.1 124-9.7 10.1-10.2 10.8-8.5 12.3 1.7 1.6 2.2 1.3 8.3-3.1 59.6-43.6 94.9-90.3 111.3-147.3 8-28 10.8-67.4 6.2-88.4-9.2-41.5-37.4-85.7-83.7-131C440.8 108.6 414 85 412.7 85c-.1 0-1.4 1.1-2.8 2.6zM300 126.5l-2.3 2.4 10.2 10.6c32.3 33.9 53.7 76.2 62.2 123 1.9 10.2 2.2 15.8 2.3 38 .1 23.1-.2 27.5-2.3 39-8.3 46.5-30.9 91.9-62.2 124.9-5.5 5.8-7.7 8.9-7.3 10 .3.9 1.1 1.6 1.7 1.6.5 0 6.4-4.4 13.1-9.8 13.9-11.2 33.4-30.2 42.5-41.5 31.7-39.1 48.1-84.5 48.1-132.8 0-16-2-28.1-7.1-42.6-7.2-20.5-22.1-45.8-40.5-68.8-9.1-11.3-39.2-42.2-50-51.3l-6.1-5.1-2.3 2.4zM199.4 165.7c-.9 1.5.3 3.3 8.4 11.8 27.1 28.7 44.3 60.7 52.4 97.7 2 9.2 2.3 13 2.2 35.8 0 22.7-.2 26.7-2.2 36-8.1 37.1-28.5 75.3-53.6 100-6.5 6.4-7.6 8.3-5.6 9.5 1.9 1.2 24.5-17.1 38.3-31 26.8-27.1 42.2-55.1 49.8-90.5 1.9-8.7 2.3-13.7 2.3-29.5.1-16.7-.2-20-2.2-27.3-9.2-33.7-38-73-78.6-107.1-4.6-3.9-8.7-7.1-9.2-7.1s-1.4.8-2 1.7z"/><path fill="#ff2f92" d="M201 230.6c-3.7 1.1-17.5 1.4-79.2 1.4H47l-3 6.6c-1.6 3.7-3 6.8-3 7 0 .2 4.6.4 10.3.4 5.6 0 10.7.4 11.4.8.9.6-2.1 19.5-11.7 74.2-7.2 40.4-13 73.8-13 74.2 0 .5 6 .8 13.4.8h13.4l.6-2.8c.6-3 25.6-145.3 25.6-145.9 0-.1 11.3-.3 25.1-.3h25.2l-.6 2.8c-.3 1.6-5.4 30.3-11.4 63.8-14 79.5-14.1 83.2-2.4 85.4 8.6 1.6 20.8-2.8 32.1-11.5 5.8-4.4 18-16.9 21.7-22l2.1-3.1-2.2-3.6-2.2-3.7-5.5 5.5c-6.7 6.9-14.2 11.4-19.1 11.4-3.2 0-3.7-.4-4.7-3.1-.6-1.8-1.1-4.2-1.1-5.5 0-2 19.1-109.1 20.5-115 .5-2.1 1.3-2.2 15.3-2.9l14.9-.7 3.3-5.7c1.8-3.1 4-6.6 4.8-7.9 1.7-2.7.9-2.8-5.8-.6z"/></svg>