<svg xmlns="http://www.w3.org/2000/svg" fill="none" viewBox="0 0 316 316"><g fill="#00758F" filter="url(#truffleruby__a)" opacity=".7"><path d="M11.426 297.002c-1.205 0-2.209-.401-3.012-1.201-.803-.801-1.205-2.001-1.205-3.202l4.016-108.071c0-2.202 1.807-4.003 4.217-4.203l38.152-1.601c1.205 0 2.41.4 3.213 1.2l68.874 68.646c.804.8 1.406 2.001 1.205 3.202l-1.606 38.025c0 2.201-2.008 4.003-4.217 4.203l-109.637 3.002Zm8.233-108.272-3.816 99.666 100.802-2.802 1.406-32.221-66.264-66.044-32.128 1.401ZM203.386 260.774c-1.205 0-2.209-.4-3.012-1.201l-35.341-35.223c-.803-.8-1.205-2.001-1.205-3.202s.603-2.201 1.406-3.002l75.501-69.046c1.205-1.2 3.213-1.4 4.618-.8 1.607.8 2.611 2.402 2.41 4.003l-3.815 102.667c0 2.202-1.808 4.003-4.217 4.203l-36.345 1.601c.201 0 .201 0 0 0Zm-29.116-39.426 30.722 30.62 30.321-1.2 3.414-88.459-64.457 59.039ZM83.696 141.296c-1.204 0-2.209-.4-3.012-1.201l-35.34-35.223c-.804-.801-1.406-2.002-1.206-3.202l1.607-36.024c0-2.202 1.807-4.003 4.217-4.003l102.81-4.002c1.807 0 3.413 1 4.016 2.401.602 1.401.401 3.402-.803 4.603l-69.277 75.25c-.602.8-1.807 1.401-3.012 1.401Zm-30.923-41.227 30.723 30.62 59.236-64.243-88.754 3.403-1.205 30.22Z"/><path d="M11.428 296.996c-1.205 0-2.21-.4-3.012-1.2a4.344 4.344 0 0 1-1.004-4.603l31.124-81.054c.602-1.601 2.209-2.602 3.815-2.802l38.152-1.601c1.205 0 2.41.4 3.213 1.201l14.658 14.61c.803.8 1.406 2.001 1.205 3.202l-1.606 38.025c0 1.801-1.205 3.202-2.811 3.802l-82.329 30.02c-.402.2-1.004.4-1.405.4Zm34.136-81.253-26.707 69.646 70.883-25.817 1.405-33.222-12.048-12.008-33.533 1.401ZM142.743 245.767c-1.205 0-2.41-.4-3.213-1.201l-78.714-78.652c-.803-.8-1.406-2.001-1.205-3.202 0-1.601.201-4.803 39.156-48.031 18.876-21.014 44.176-47.832 58.032-60.24 64.256-57.238 119.275-30.02 121.685-28.82.402.201.803.401 1.004.801l.201.2c.401.4.602.601.803 1.001 1.205 2.402 28.514 57.238-28.915 121.28-12.45 13.809-39.357 39.026-60.441 57.838-43.373 38.826-46.586 39.026-48.393 39.026 0 0 .2 0 0 0ZM69.25 162.112l74.296 74.049c13.454-9.807 79.316-68.045 101.806-93.062 49.196-54.836 31.526-102.867 28.313-110.472-8.032-3.603-55.421-21.415-110.842 28.218-25.502 22.215-83.734 87.858-93.573 101.267Z"/><path d="M220.653 120.482c-9.236 0-18.272-3.403-25.3-10.407-14.056-14.01-14.056-36.624 0-50.634 14.056-14.009 36.746-14.009 50.802 0 14.056 14.01 14.056 36.625 0 50.634-7.229 7.004-16.465 10.407-25.502 10.407Zm0-62.842c-7.028 0-14.056 2.602-19.276 8.005-10.643 10.608-10.643 27.819 0 38.426 10.642 10.607 27.911 10.607 38.553 0 5.221-5.204 8.032-12.008 8.032-19.213 0-7.205-2.811-14.01-8.032-19.213a27.28 27.28 0 0 0-19.277-8.005ZM169.252 158.109c-5.422 0-10.642-2.001-14.859-6.204-4.016-4.003-6.225-9.206-6.225-14.81 0-5.603 2.209-10.807 6.225-14.81 8.233-8.205 21.485-8.205 29.718 0 4.016 4.003 6.225 9.207 6.225 14.81 0 5.604-2.209 10.807-6.225 14.81-4.016 4.203-9.437 6.204-14.859 6.204Zm0-33.222c-3.213 0-6.426 1.201-8.835 3.603-2.41 2.401-3.615 5.403-3.615 8.805 0 3.202 1.205 6.405 3.615 8.806 4.819 4.803 12.65 4.803 17.469 0 2.41-2.401 3.615-5.403 3.615-8.806 0-3.202-1.205-6.404-3.615-8.805-2.208-2.402-5.421-3.603-8.634-3.603ZM122.668 255.97c-1.205 0-2.209-.4-3.012-1.201L50.38 185.924c-1.004-1.001-1.406-2.402-1.205-3.803.201-1.401 1.205-2.602 2.41-3.202l20.482-9.806c1.606-.801 3.614-.401 4.819.8l58.633 58.439c1.205 1.2 1.607 3.202.804 4.803l-9.84 20.413c-.602 1.201-1.807 2.202-3.212 2.402h-.603Zm-61.846-71.848 60.641 60.44 6.024-12.208-54.216-54.035-12.45 5.803ZM168.244 225.552c-1.004 0-2.209-.4-3.012-1.201l-84.537-84.255c-1.606-1.601-1.606-4.403 0-6.004s4.418-1.601 6.024 0l84.537 84.255c1.607 1.601 1.607 4.403 0 6.004-1.004.801-2.008 1.201-3.012 1.201Z"/><path d="M142.748 245.765c-1.205 0-2.209-.4-3.012-1.2l-78.915-78.652c-1.606-1.601-1.606-4.003-.402-5.604l19.88-25.817c.803-1.001 1.807-1.601 3.212-1.601 1.205 0 2.41.4 3.414 1.201l84.537 84.255c.803.801 1.406 2.002 1.205 3.202 0 1.201-.602 2.402-1.606 3.202l-25.502 20.214c-1.004.4-2.008.8-2.811.8ZM69.455 162.51l73.493 73.249 18.675-14.81-77.51-77.451-14.658 19.012ZM298.167 157.107h-18.272c-2.41 0-4.217-2.001-4.217-4.203 0-2.201 2.008-4.203 4.217-4.203h18.272c2.41 0 4.217 2.002 4.217 4.203 0 2.202-2.008 4.203-4.217 4.203Z"/><path d="M288.93 166.3c-2.41 0-4.217-2.001-4.217-4.203v-18.412c0-2.401 2.008-4.202 4.217-4.202 2.209 0 4.217 2.001 4.217 4.202v18.212c.2 2.402-1.808 4.403-4.217 4.403ZM305.999 207.536h-14.257v14.209h14.257v-14.209ZM152.594 30.42c-2.41 0-4.217-2.002-4.217-4.203V8.005c0-2.402 2.008-4.203 4.217-4.203 2.209 0 4.217 2.001 4.217 4.203v18.212c.2 2.201-1.808 4.203-4.217 4.203Z"/><path d="M161.826 21.417h-18.273c-2.41 0-4.217-2.001-4.217-4.203 0-2.201 2.008-4.203 4.217-4.203h18.273c2.409 0 4.216 2.002 4.216 4.203 0 2.202-1.807 4.203-4.216 4.203ZM97.769 0H83.512v14.21h14.257V0ZM32.11 151.496H13.839c-2.41 0-4.217-2.001-4.217-4.202 0-2.202 2.008-4.203 4.217-4.203H32.11c2.41 0 4.217 2.001 4.217 4.203 0 2.201-1.808 4.202-4.217 4.202Z"/><path d="M22.865 160.703c-2.41 0-4.217-2.001-4.217-4.203v-18.212c0-2.401 2.008-4.203 4.217-4.203 2.21 0 4.217 2.002 4.217 4.203V156.5c.2 2.202-1.807 4.203-4.217 4.203ZM20.257 78.451H6v14.21h14.257V78.45ZM159.203 296.587c-2.409 0-4.217-2.001-4.217-4.203v-18.212c0-2.401 2.008-4.202 4.217-4.202 2.209 0 4.217 2.001 4.217 4.202v18.212c0 2.202-1.807 4.203-4.217 4.203Z"/><path d="M168.255 287.384h-18.273c-2.409 0-4.216-2.002-4.216-4.203 0-2.201 2.008-4.203 4.216-4.203h18.273c2.41 0 4.217 2.002 4.217 4.203 0 2.201-1.807 4.203-4.217 4.203ZM228.481 285.786h-14.256v14.21h14.256v-14.21Z"/></g><defs><filter id="truffleruby__a" width="315.999" height="315.996" x="0" y="0" color-interpolation-filters="sRGB" filterUnits="userSpaceOnUse"><feFlood flood-opacity="0" result="BackgroundImageFix"/><feColorMatrix in="SourceAlpha" values="0 0 0 0 0 0 0 0 0 0 0 0 0 0 0 0 0 0 127 0"/><feOffset dx="2" dy="8"/><feGaussianBlur stdDeviation="4"/><feColorMatrix values="0 0 0 0 0 0 0 0 0 0.235294 0 0 0 0 0.290196 0 0 0 0.2 0"/><feBlend in2="BackgroundImageFix" result="effect1_dropShadow"/><feBlend in="SourceGraphic" in2="effect1_dropShadow" result="shape"/><feColorMatrix in="SourceAlpha" result="hardAlpha" values="0 0 0 0 0 0 0 0 0 0 0 0 0 0 0 0 0 0 127 0"/><feOffset dx="2" dy="4"/><feGaussianBlur stdDeviation="2"/><feComposite in2="hardAlpha" k2="-1" k3="1" operator="arithmetic"/><feColorMatrix values="0 0 0 0 0 0 0 0 0 0.235294 0 0 0 0 0.290196 0 0 0 0.25 0"/><feBlend in2="shape" result="effect2_innerShadow"/></filter></defs></svg>