<?xml version="1.0" encoding="utf-8"?>
<!-- Generator: Adobe Illustrator 16.0.4, SVG Export Plug-In . SVG Version: 6.00 Build 0)  -->
<!DOCTYPE svg PUBLIC "-//W3C//DTD SVG 1.1//EN" "http://www.w3.org/Graphics/SVG/1.1/DTD/svg11.dtd">
<svg version="1.1" id="Layer_1" xmlns="http://www.w3.org/2000/svg" xmlns:xlink="http://www.w3.org/1999/xlink" x="0px" y="0px"
	 width="612px" height="612.999px" viewBox="0 88.5 612 612.999" enable-background="new 0 88.5 612 612.999" xml:space="preserve">
<circle fill="#517FA4" cx="305.997" cy="395.024" r="306"/>
<g>
	<path fill="#FFFFFF" d="M340.315,402.634c0-17.987-14.634-32.624-32.628-32.624c-17.986,0-32.617,14.637-32.617,32.624
		c0,17.987,14.633,32.624,32.617,32.624C325.683,435.258,340.315,420.621,340.315,402.634z"/>
	<g>
		<path fill="#FFFFFF" d="M307.688,324.045c16.941,0,32.638,5.402,45.482,14.553h61.737h56.619v-23.052
			c0-45.619-37.12-82.739-82.735-82.739H223.205c-45.619,0-82.739,37.12-82.739,82.739v23.052h121.75
			C275.062,329.447,290.75,324.045,307.688,324.045z M375.507,283.092c0-5.059,4.133-9.192,9.195-9.192h28.4
			c5.06,0,9.194,4.133,9.194,9.192V311.5c0,5.059-4.136,9.192-9.194,9.192h-28.4c-5.062,0-9.195-4.133-9.195-9.192V283.092z"/>
		<path fill="#FFFFFF" d="M386.284,402.634c0,43.338-35.258,78.59-78.597,78.59c-43.331,0-78.584-35.252-78.584-78.59
			c0-11.932,2.688-23.242,7.463-33.386h-96.1v113.248c0,45.619,37.12,82.738,82.739,82.738h165.59
			c45.615,0,82.735-37.119,82.735-82.738V369.248h-92.713C383.597,379.392,386.284,390.702,386.284,402.634z"/>
	</g>
</g>
</svg>
